G04 (created by PCBNEW (2013-may-18)-stable) date Thu 03 Apr 2014 02:12:56 PM EEST*
%MOIN*%
G04 Gerber Fmt 3.4, Leading zero omitted, Abs format*
%FSLAX34Y34*%
G01*
G70*
G90*
G04 APERTURE LIST*
%ADD10C,0.00590551*%
%ADD11C,0.0354331*%
%ADD12C,0.0275591*%
%ADD13R,0.1378X0.1378*%
%ADD14R,0.0787402X0.0787402*%
%ADD15C,0.0787402*%
%ADD16C,0.065*%
%ADD17C,0.066*%
%ADD18C,0.055*%
%ADD19C,0.19685*%
%ADD20C,0.0787402*%
%ADD21C,0.0393701*%
%ADD22C,0.01*%
G04 APERTURE END LIST*
G54D10*
G54D11*
X23757Y-6492D02*
X23386Y-6121D01*
X22643Y-6545D02*
X23174Y-7075D01*
X24287Y-5961D01*
X23757Y-5431D01*
X22431Y-4848D02*
X21530Y-5749D01*
X21477Y-5908D01*
X21477Y-6015D01*
X21530Y-6174D01*
X21689Y-6333D01*
X21848Y-6386D01*
X21742Y-5537D02*
X21795Y-5696D01*
X22007Y-5908D01*
X22166Y-5961D01*
X22272Y-5961D01*
X22431Y-5908D01*
X22749Y-5590D01*
X22802Y-5431D01*
X22802Y-5325D01*
X22749Y-5166D01*
X22537Y-4954D01*
X22378Y-4901D01*
X21424Y-3840D02*
X20522Y-4742D01*
X20469Y-4901D01*
X20469Y-5007D01*
X20522Y-5166D01*
X20681Y-5325D01*
X20840Y-5378D01*
X20734Y-4530D02*
X20787Y-4689D01*
X20999Y-4901D01*
X21159Y-4954D01*
X21265Y-4954D01*
X21424Y-4901D01*
X21742Y-4583D01*
X21795Y-4424D01*
X21795Y-4318D01*
X21742Y-4159D01*
X21530Y-3946D01*
X21371Y-3893D01*
X20151Y-2568D02*
X19144Y-3045D01*
X19621Y-2038D01*
X17871Y-1772D02*
X18507Y-2409D01*
X18189Y-2091D02*
X19303Y-977D01*
X19250Y-1242D01*
X19250Y-1454D01*
X19303Y-1613D01*
G54D12*
X20890Y-26478D02*
X21284Y-25915D01*
X21565Y-26478D02*
X21565Y-25296D01*
X21115Y-25296D01*
X21002Y-25353D01*
X20946Y-25409D01*
X20890Y-25521D01*
X20890Y-25690D01*
X20946Y-25803D01*
X21002Y-25859D01*
X21115Y-25915D01*
X21565Y-25915D01*
X20552Y-25296D02*
X20159Y-26478D01*
X19765Y-25296D01*
X19428Y-25409D02*
X19371Y-25353D01*
X19259Y-25296D01*
X18978Y-25296D01*
X18865Y-25353D01*
X18809Y-25409D01*
X18753Y-25521D01*
X18753Y-25634D01*
X18809Y-25803D01*
X19484Y-26478D01*
X18753Y-26478D01*
X18021Y-25296D02*
X17909Y-25296D01*
X17796Y-25353D01*
X17740Y-25409D01*
X17684Y-25521D01*
X17628Y-25746D01*
X17628Y-26028D01*
X17684Y-26253D01*
X17740Y-26365D01*
X17796Y-26421D01*
X17909Y-26478D01*
X18021Y-26478D01*
X18134Y-26421D01*
X18190Y-26365D01*
X18246Y-26253D01*
X18303Y-26028D01*
X18303Y-25746D01*
X18246Y-25521D01*
X18190Y-25409D01*
X18134Y-25353D01*
X18021Y-25296D01*
X16503Y-26478D02*
X17178Y-26478D01*
X16840Y-26478D02*
X16840Y-25296D01*
X16953Y-25465D01*
X17065Y-25578D01*
X17178Y-25634D01*
X15491Y-25690D02*
X15491Y-26478D01*
X15772Y-25240D02*
X16053Y-26084D01*
X15322Y-26084D01*
G54D13*
X3600Y-4841D03*
X3600Y-2479D03*
X1750Y-3660D03*
G54D14*
X4225Y-14125D03*
G54D15*
X4225Y-13125D03*
X4225Y-12125D03*
X4225Y-11125D03*
G54D16*
X16800Y-12900D03*
X16800Y-15900D03*
X10725Y-12125D03*
X10725Y-15125D03*
X10800Y-18850D03*
X10800Y-21850D03*
G54D14*
X4200Y-22850D03*
G54D15*
X4200Y-21850D03*
X4200Y-20850D03*
X4200Y-19850D03*
G54D14*
X23300Y-13650D03*
G54D15*
X23300Y-12650D03*
X23300Y-11650D03*
G54D14*
X17500Y-22500D03*
G54D15*
X18500Y-22500D03*
G54D14*
X20000Y-22500D03*
G54D15*
X21000Y-22500D03*
X10450Y-6350D03*
G54D14*
X10450Y-5350D03*
G54D15*
X10450Y-4350D03*
G54D17*
X15550Y-22500D03*
X15550Y-23500D03*
G54D15*
X12625Y-16125D03*
X12625Y-15125D03*
X12625Y-14125D03*
X12625Y-13125D03*
X12625Y-12125D03*
X12625Y-11125D03*
X12625Y-10125D03*
X12625Y-9125D03*
X7625Y-9125D03*
X7625Y-10125D03*
X7625Y-11125D03*
X7625Y-12125D03*
X7625Y-13125D03*
X7625Y-14125D03*
X7625Y-15125D03*
X7625Y-16125D03*
X12625Y-24875D03*
X12625Y-23875D03*
X12625Y-22875D03*
X12625Y-21875D03*
X12625Y-20875D03*
X12625Y-19875D03*
X12625Y-18875D03*
X12625Y-17875D03*
X7625Y-17875D03*
X7625Y-18875D03*
X7625Y-19875D03*
X7625Y-20875D03*
X7625Y-21875D03*
X7625Y-22875D03*
X7625Y-23875D03*
X7625Y-24875D03*
X7550Y-2350D03*
G54D14*
X7550Y-6350D03*
X6600Y-6350D03*
G54D15*
X3600Y-6350D03*
G54D18*
X10450Y-2700D03*
X12450Y-2700D03*
G54D14*
X13100Y-6350D03*
G54D15*
X13100Y-5350D03*
G54D14*
X5650Y-25650D03*
G54D15*
X5650Y-24650D03*
G54D14*
X5650Y-16950D03*
G54D15*
X5650Y-15950D03*
X15000Y-8900D03*
X15000Y-9900D03*
X15000Y-10900D03*
X15000Y-11900D03*
X15000Y-12900D03*
X15000Y-13900D03*
X15000Y-14900D03*
X15000Y-15900D03*
X15000Y-16900D03*
X15000Y-17900D03*
X15000Y-18900D03*
X15000Y-19900D03*
X21000Y-19900D03*
X21000Y-18900D03*
X21000Y-17900D03*
X21000Y-16900D03*
X21000Y-15900D03*
X21000Y-14900D03*
X21000Y-13900D03*
X21000Y-12900D03*
X21000Y-11900D03*
X21000Y-10900D03*
X21000Y-9900D03*
X21000Y-8900D03*
G54D19*
X23500Y-1500D03*
X23500Y-25500D03*
X1500Y-25500D03*
X1500Y-7000D03*
G54D20*
X5650Y-16950D02*
X3850Y-16950D01*
X3850Y-25650D02*
X5650Y-25650D01*
X1850Y-23650D02*
X3850Y-25650D01*
X1850Y-18950D02*
X1850Y-23650D01*
X3850Y-16950D02*
X1850Y-18950D01*
X7550Y-6350D02*
X7550Y-6650D01*
X3300Y-16950D02*
X5650Y-16950D01*
X1800Y-15450D02*
X3300Y-16950D01*
X1800Y-9950D02*
X1800Y-15450D01*
X3150Y-8600D02*
X1800Y-9950D01*
X5600Y-8600D02*
X3150Y-8600D01*
X7550Y-6650D02*
X5600Y-8600D01*
X7550Y-6350D02*
X6600Y-6350D01*
X10450Y-6350D02*
X7550Y-6350D01*
X13100Y-6350D02*
X10562Y-6350D01*
X10450Y-6237D02*
X10450Y-6350D01*
X10562Y-6350D02*
X10450Y-6237D01*
X5650Y-25650D02*
X6750Y-25650D01*
X6750Y-25650D02*
X7525Y-24875D01*
X7525Y-24875D02*
X7625Y-24875D01*
X7625Y-16125D02*
X7275Y-16125D01*
X7275Y-16125D02*
X6450Y-16950D01*
X6450Y-16950D02*
X5650Y-16950D01*
G54D21*
X10725Y-12125D02*
X10725Y-9325D01*
X13100Y-1650D02*
X12450Y-1650D01*
X15100Y-3650D02*
X13100Y-1650D01*
X15100Y-7000D02*
X15100Y-3650D01*
X13850Y-8250D02*
X15100Y-7000D01*
X11800Y-8250D02*
X13850Y-8250D01*
X10725Y-9325D02*
X11800Y-8250D01*
X10725Y-12125D02*
X10575Y-12125D01*
X9350Y-17400D02*
X10800Y-18850D01*
X9350Y-13350D02*
X9350Y-17400D01*
X10575Y-12125D02*
X9350Y-13350D01*
X10725Y-12125D02*
X8750Y-10150D01*
X7650Y-10150D02*
X7625Y-10125D01*
X8750Y-10150D02*
X7650Y-10150D01*
X10800Y-18850D02*
X7650Y-18850D01*
X7650Y-18850D02*
X7625Y-18875D01*
X21000Y-11900D02*
X20650Y-11900D01*
X20650Y-11900D02*
X16700Y-7950D01*
X16700Y-7950D02*
X16700Y-3950D01*
X16700Y-3950D02*
X14400Y-1650D01*
X14400Y-1650D02*
X12450Y-1650D01*
X10450Y-2200D02*
X10450Y-2700D01*
X12450Y-1650D02*
X11000Y-1650D01*
X11000Y-1650D02*
X10450Y-2200D01*
X21000Y-11900D02*
X21850Y-11900D01*
X22600Y-12650D02*
X23300Y-12650D01*
X21850Y-11900D02*
X22600Y-12650D01*
G54D20*
X10450Y-4350D02*
X10450Y-2700D01*
G54D21*
X15000Y-17900D02*
X12650Y-17900D01*
X12650Y-17900D02*
X12625Y-17875D01*
X12625Y-9125D02*
X13025Y-9125D01*
X14500Y-14900D02*
X15000Y-14900D01*
X14050Y-14450D02*
X14500Y-14900D01*
X14050Y-10150D02*
X14050Y-14450D01*
X13025Y-9125D02*
X14050Y-10150D01*
X21000Y-15900D02*
X20600Y-15900D01*
X19900Y-22400D02*
X20000Y-22500D01*
X19900Y-16600D02*
X19900Y-22400D01*
X20600Y-15900D02*
X19900Y-16600D01*
X17500Y-22500D02*
X17500Y-17700D01*
X20300Y-14900D02*
X21000Y-14900D01*
X17500Y-17700D02*
X20300Y-14900D01*
X12625Y-24875D02*
X13025Y-24875D01*
X14600Y-19900D02*
X15000Y-19900D01*
X13650Y-20850D02*
X14600Y-19900D01*
X13650Y-24250D02*
X13650Y-20850D01*
X13025Y-24875D02*
X13650Y-24250D01*
X15000Y-16900D02*
X13400Y-16900D01*
X13400Y-16900D02*
X12625Y-16125D01*
X23300Y-13650D02*
X22550Y-13650D01*
X22300Y-13900D02*
X21000Y-13900D01*
X22550Y-13650D02*
X22300Y-13900D01*
X12625Y-18875D02*
X14975Y-18875D01*
X14975Y-18875D02*
X15000Y-18900D01*
X12625Y-10125D02*
X12825Y-10125D01*
X13950Y-15900D02*
X15000Y-15900D01*
X13500Y-15450D02*
X13950Y-15900D01*
X13500Y-10800D02*
X13500Y-15450D01*
X12825Y-10125D02*
X13500Y-10800D01*
G54D20*
X3600Y-2479D02*
X7421Y-2479D01*
X7421Y-2479D02*
X7550Y-2350D01*
X1750Y-3660D02*
X1750Y-3250D01*
X2521Y-2479D02*
X3600Y-2479D01*
X1750Y-3250D02*
X2521Y-2479D01*
G54D21*
X21000Y-22500D02*
X21300Y-22500D01*
X24050Y-11650D02*
X23300Y-11650D01*
X24200Y-11800D02*
X24050Y-11650D01*
X24200Y-19600D02*
X24200Y-11800D01*
X21300Y-22500D02*
X24200Y-19600D01*
X18500Y-23400D02*
X20800Y-23400D01*
X21000Y-23200D02*
X21000Y-22500D01*
X20800Y-23400D02*
X21000Y-23200D01*
X18500Y-22500D02*
X18500Y-23400D01*
X18400Y-23500D02*
X15550Y-23500D01*
X18500Y-23400D02*
X18400Y-23500D01*
X15000Y-11900D02*
X15350Y-11900D01*
X14950Y-23500D02*
X15550Y-23500D01*
X14400Y-22950D02*
X14950Y-23500D01*
X14400Y-21900D02*
X14400Y-22950D01*
X16000Y-20300D02*
X14400Y-21900D01*
X16000Y-12550D02*
X16000Y-20300D01*
X15350Y-11900D02*
X16000Y-12550D01*
X7550Y-2350D02*
X8250Y-2350D01*
X8250Y-2350D02*
X9600Y-1000D01*
X9600Y-1000D02*
X14700Y-1000D01*
X14700Y-1000D02*
X19150Y-5450D01*
X19150Y-5450D02*
X19150Y-8900D01*
X19150Y-8900D02*
X20150Y-9900D01*
X20150Y-9900D02*
X21000Y-9900D01*
X7625Y-9125D02*
X8575Y-9125D01*
X13700Y-5350D02*
X13100Y-5350D01*
X14450Y-6100D02*
X13700Y-5350D01*
X14450Y-6650D02*
X14450Y-6100D01*
X13450Y-7650D02*
X14450Y-6650D01*
X10050Y-7650D02*
X13450Y-7650D01*
X8575Y-9125D02*
X10050Y-7650D01*
X7625Y-17875D02*
X6825Y-17875D01*
X4250Y-24650D02*
X5650Y-24650D01*
X3050Y-23450D02*
X4250Y-24650D01*
X3050Y-19300D02*
X3050Y-23450D01*
X4000Y-18350D02*
X3050Y-19300D01*
X6350Y-18350D02*
X4000Y-18350D01*
X6825Y-17875D02*
X6350Y-18350D01*
X7625Y-9125D02*
X6675Y-9125D01*
X4350Y-15950D02*
X5650Y-15950D01*
X2850Y-14450D02*
X4350Y-15950D01*
X2850Y-10650D02*
X2850Y-14450D01*
X3750Y-9750D02*
X2850Y-10650D01*
X6050Y-9750D02*
X3750Y-9750D01*
X6675Y-9125D02*
X6050Y-9750D01*
X7625Y-17875D02*
X8600Y-16900D01*
X8275Y-15125D02*
X7625Y-15125D01*
X8600Y-15450D02*
X8275Y-15125D01*
X8600Y-16900D02*
X8600Y-15450D01*
X23300Y-11650D02*
X23300Y-11550D01*
X21650Y-9900D02*
X21000Y-9900D01*
X23300Y-11550D02*
X21650Y-9900D01*
G54D20*
X10450Y-5350D02*
X13100Y-5350D01*
X12450Y-2700D02*
X12450Y-4700D01*
X12450Y-4700D02*
X13100Y-5350D01*
X7550Y-2350D02*
X7550Y-3950D01*
X7550Y-3950D02*
X8950Y-5350D01*
X8950Y-5350D02*
X10450Y-5350D01*
X5650Y-24650D02*
X5950Y-24650D01*
X5950Y-24650D02*
X6725Y-23875D01*
X6725Y-23875D02*
X7625Y-23875D01*
X5650Y-15950D02*
X5650Y-15900D01*
X6425Y-15125D02*
X7625Y-15125D01*
X5650Y-15900D02*
X6425Y-15125D01*
G54D21*
X12625Y-21875D02*
X10825Y-21875D01*
X10825Y-21875D02*
X10800Y-21850D01*
X12625Y-22875D02*
X12625Y-21875D01*
X12625Y-23875D02*
X12625Y-22875D01*
X12625Y-11125D02*
X12625Y-12125D01*
X12625Y-20875D02*
X12625Y-19875D01*
X12625Y-15125D02*
X10725Y-15125D01*
X12625Y-14125D02*
X12625Y-13125D01*
X12625Y-15125D02*
X12625Y-14125D01*
X21000Y-12900D02*
X16800Y-12900D01*
X15550Y-22500D02*
X15550Y-21900D01*
X16800Y-20650D02*
X16800Y-15900D01*
X15550Y-21900D02*
X16800Y-20650D01*
G54D20*
X4225Y-14125D02*
X7625Y-14125D01*
X4225Y-13125D02*
X7625Y-13125D01*
X4225Y-12125D02*
X7625Y-12125D01*
X4225Y-11125D02*
X7625Y-11125D01*
X3600Y-4841D02*
X3600Y-6350D01*
X4200Y-20850D02*
X7600Y-20850D01*
X7600Y-20850D02*
X7625Y-20875D01*
X4200Y-19850D02*
X7600Y-19850D01*
X7600Y-19850D02*
X7625Y-19875D01*
X4200Y-21850D02*
X7600Y-21850D01*
X7600Y-21850D02*
X7625Y-21875D01*
X4200Y-22850D02*
X7600Y-22850D01*
X7600Y-22850D02*
X7625Y-22875D01*
G54D10*
G36*
X24950Y-26950D02*
X24731Y-26950D01*
X24731Y-25256D01*
X24544Y-24803D01*
X24198Y-24456D01*
X23947Y-24353D01*
X23947Y-11754D01*
X23938Y-11498D01*
X23858Y-11305D01*
X23753Y-11266D01*
X23683Y-11337D01*
X23683Y-11196D01*
X23644Y-11091D01*
X23404Y-11002D01*
X23148Y-11011D01*
X22955Y-11091D01*
X22916Y-11196D01*
X23300Y-11579D01*
X23683Y-11196D01*
X23683Y-11337D01*
X23370Y-11650D01*
X23753Y-12033D01*
X23858Y-11994D01*
X23947Y-11754D01*
X23947Y-24353D01*
X23940Y-24349D01*
X23940Y-12523D01*
X23843Y-12287D01*
X23676Y-12120D01*
X23683Y-12103D01*
X23300Y-11720D01*
X23229Y-11791D01*
X23229Y-11650D01*
X22846Y-11266D01*
X22741Y-11305D01*
X22652Y-11545D01*
X22661Y-11801D01*
X22741Y-11994D01*
X22846Y-12033D01*
X23229Y-11650D01*
X23229Y-11791D01*
X22916Y-12103D01*
X22923Y-12120D01*
X22837Y-12206D01*
X22783Y-12206D01*
X22163Y-11586D01*
X22019Y-11490D01*
X21850Y-11456D01*
X21647Y-11456D01*
X21647Y-10004D01*
X21640Y-9805D01*
X21640Y-8773D01*
X21543Y-8537D01*
X21363Y-8357D01*
X21127Y-8259D01*
X20873Y-8259D01*
X20637Y-8356D01*
X20457Y-8536D01*
X20359Y-8772D01*
X20359Y-9026D01*
X20456Y-9262D01*
X20623Y-9429D01*
X20616Y-9446D01*
X21000Y-9829D01*
X21383Y-9446D01*
X21376Y-9429D01*
X21542Y-9263D01*
X21640Y-9027D01*
X21640Y-8773D01*
X21640Y-9805D01*
X21638Y-9748D01*
X21558Y-9555D01*
X21453Y-9516D01*
X21070Y-9900D01*
X21453Y-10283D01*
X21558Y-10244D01*
X21647Y-10004D01*
X21647Y-11456D01*
X21462Y-11456D01*
X21405Y-11399D01*
X21542Y-11263D01*
X21640Y-11027D01*
X21640Y-10773D01*
X21543Y-10537D01*
X21376Y-10370D01*
X21383Y-10353D01*
X21000Y-9970D01*
X20929Y-10041D01*
X20929Y-9900D01*
X20546Y-9516D01*
X20441Y-9555D01*
X20352Y-9795D01*
X20361Y-10051D01*
X20441Y-10244D01*
X20546Y-10283D01*
X20929Y-9900D01*
X20929Y-10041D01*
X20616Y-10353D01*
X20623Y-10370D01*
X20457Y-10536D01*
X20359Y-10772D01*
X20359Y-10981D01*
X17143Y-7766D01*
X17143Y-3950D01*
X17109Y-3780D01*
X17109Y-3780D01*
X17078Y-3732D01*
X17013Y-3636D01*
X17013Y-3636D01*
X14713Y-1336D01*
X14569Y-1240D01*
X14400Y-1206D01*
X13100Y-1206D01*
X12450Y-1206D01*
X11000Y-1206D01*
X10830Y-1240D01*
X10686Y-1336D01*
X10136Y-1886D01*
X10040Y-2030D01*
X10006Y-2200D01*
X10006Y-2240D01*
X9997Y-2247D01*
X9858Y-2454D01*
X9809Y-2700D01*
X9809Y-4350D01*
X9809Y-4350D01*
X9809Y-4476D01*
X9858Y-4595D01*
X9858Y-4595D01*
X9858Y-4595D01*
X9906Y-4712D01*
X9931Y-4737D01*
X9914Y-4744D01*
X9844Y-4814D01*
X9806Y-4906D01*
X9806Y-5005D01*
X9806Y-5237D01*
X9868Y-5300D01*
X10400Y-5300D01*
X10400Y-5292D01*
X10500Y-5292D01*
X10500Y-5300D01*
X11031Y-5300D01*
X11093Y-5237D01*
X11093Y-5005D01*
X11093Y-4906D01*
X11055Y-4814D01*
X10985Y-4744D01*
X10968Y-4737D01*
X10992Y-4713D01*
X11041Y-4595D01*
X11041Y-4595D01*
X11041Y-4595D01*
X11090Y-4477D01*
X11090Y-4350D01*
X11090Y-4350D01*
X11090Y-4349D01*
X11090Y-4223D01*
X11090Y-4222D01*
X11090Y-2700D01*
X11041Y-2454D01*
X10954Y-2323D01*
X11183Y-2093D01*
X12450Y-2093D01*
X12916Y-2093D01*
X14656Y-3833D01*
X14656Y-6816D01*
X13666Y-7806D01*
X11800Y-7806D01*
X11630Y-7840D01*
X11486Y-7936D01*
X10411Y-9011D01*
X10315Y-9155D01*
X10281Y-9325D01*
X10281Y-11053D01*
X9063Y-9836D01*
X8919Y-9740D01*
X8750Y-9706D01*
X8272Y-9706D01*
X8272Y-9229D01*
X8263Y-8973D01*
X8183Y-8780D01*
X8078Y-8741D01*
X8008Y-8812D01*
X8008Y-8671D01*
X7969Y-8566D01*
X7729Y-8477D01*
X7473Y-8486D01*
X7280Y-8566D01*
X7241Y-8671D01*
X7625Y-9054D01*
X8008Y-8671D01*
X8008Y-8812D01*
X7695Y-9125D01*
X8078Y-9508D01*
X8183Y-9469D01*
X8272Y-9229D01*
X8272Y-9706D01*
X8112Y-9706D01*
X8001Y-9595D01*
X8008Y-9578D01*
X7625Y-9195D01*
X7554Y-9266D01*
X7554Y-9125D01*
X7171Y-8741D01*
X7066Y-8780D01*
X6977Y-9020D01*
X6986Y-9276D01*
X7066Y-9469D01*
X7171Y-9508D01*
X7554Y-9125D01*
X7554Y-9266D01*
X7241Y-9578D01*
X7248Y-9595D01*
X7082Y-9761D01*
X6984Y-9997D01*
X6984Y-10251D01*
X7080Y-10484D01*
X4225Y-10484D01*
X4224Y-10484D01*
X4098Y-10484D01*
X3979Y-10533D01*
X3979Y-10533D01*
X3979Y-10533D01*
X3862Y-10581D01*
X3772Y-10672D01*
X3772Y-10672D01*
X3772Y-10672D01*
X3682Y-10761D01*
X3633Y-10879D01*
X3633Y-10879D01*
X3633Y-10879D01*
X3584Y-10997D01*
X3584Y-11124D01*
X3584Y-11125D01*
X3584Y-11125D01*
X3584Y-11251D01*
X3633Y-11370D01*
X3633Y-11370D01*
X3633Y-11370D01*
X3681Y-11487D01*
X3772Y-11577D01*
X3772Y-11577D01*
X3772Y-11577D01*
X3819Y-11625D01*
X3772Y-11672D01*
X3772Y-11672D01*
X3772Y-11672D01*
X3682Y-11761D01*
X3633Y-11879D01*
X3633Y-11879D01*
X3633Y-11879D01*
X3584Y-11997D01*
X3584Y-12124D01*
X3584Y-12125D01*
X3584Y-12125D01*
X3584Y-12251D01*
X3633Y-12370D01*
X3633Y-12370D01*
X3633Y-12370D01*
X3681Y-12487D01*
X3772Y-12577D01*
X3772Y-12577D01*
X3772Y-12577D01*
X3819Y-12625D01*
X3772Y-12672D01*
X3772Y-12672D01*
X3772Y-12672D01*
X3682Y-12761D01*
X3633Y-12879D01*
X3633Y-12879D01*
X3633Y-12879D01*
X3584Y-12997D01*
X3584Y-13124D01*
X3584Y-13125D01*
X3584Y-13125D01*
X3584Y-13251D01*
X3633Y-13370D01*
X3633Y-13370D01*
X3633Y-13370D01*
X3681Y-13487D01*
X3708Y-13514D01*
X3691Y-13521D01*
X3622Y-13591D01*
X3584Y-13681D01*
X3584Y-13780D01*
X3584Y-14567D01*
X3621Y-14658D01*
X3691Y-14727D01*
X3781Y-14765D01*
X3880Y-14765D01*
X4667Y-14765D01*
X4667Y-14765D01*
X7107Y-14765D01*
X7066Y-14780D01*
X6977Y-15020D01*
X6986Y-15276D01*
X7066Y-15469D01*
X7166Y-15506D01*
X7029Y-15533D01*
X6822Y-15672D01*
X6822Y-15672D01*
X6214Y-16280D01*
X6297Y-16054D01*
X6288Y-15798D01*
X6208Y-15605D01*
X6103Y-15566D01*
X6033Y-15637D01*
X6033Y-15496D01*
X5994Y-15391D01*
X5754Y-15302D01*
X5498Y-15311D01*
X5305Y-15391D01*
X5266Y-15496D01*
X5650Y-15879D01*
X6033Y-15496D01*
X6033Y-15637D01*
X5720Y-15950D01*
X5726Y-15955D01*
X5655Y-16026D01*
X5650Y-16020D01*
X5644Y-16026D01*
X5573Y-15955D01*
X5579Y-15950D01*
X5196Y-15566D01*
X5091Y-15605D01*
X5002Y-15845D01*
X5011Y-16101D01*
X5091Y-16294D01*
X5132Y-16309D01*
X3850Y-16309D01*
X3849Y-16309D01*
X3565Y-16309D01*
X2440Y-15184D01*
X2440Y-10215D01*
X3415Y-9240D01*
X5600Y-9240D01*
X5845Y-9191D01*
X6052Y-9052D01*
X8002Y-7102D01*
X8002Y-7102D01*
X8002Y-7102D01*
X8078Y-6990D01*
X8078Y-6990D01*
X10450Y-6990D01*
X10450Y-6990D01*
X10576Y-6990D01*
X10577Y-6990D01*
X12706Y-6990D01*
X12755Y-6990D01*
X13542Y-6990D01*
X13633Y-6953D01*
X13702Y-6883D01*
X13740Y-6793D01*
X13740Y-6694D01*
X13740Y-5907D01*
X13703Y-5816D01*
X13633Y-5747D01*
X13578Y-5724D01*
X13658Y-5694D01*
X13747Y-5454D01*
X13738Y-5198D01*
X13658Y-5005D01*
X13553Y-4966D01*
X13483Y-5037D01*
X13483Y-4896D01*
X13444Y-4791D01*
X13204Y-4702D01*
X12979Y-4710D01*
X12979Y-2775D01*
X12968Y-2567D01*
X12910Y-2427D01*
X12817Y-2402D01*
X12747Y-2473D01*
X12747Y-2332D01*
X12722Y-2239D01*
X12525Y-2170D01*
X12317Y-2181D01*
X12177Y-2239D01*
X12152Y-2332D01*
X12450Y-2629D01*
X12747Y-2332D01*
X12747Y-2473D01*
X12520Y-2700D01*
X12817Y-2997D01*
X12910Y-2972D01*
X12979Y-2775D01*
X12979Y-4710D01*
X12948Y-4711D01*
X12755Y-4791D01*
X12747Y-4814D01*
X12747Y-3067D01*
X12450Y-2770D01*
X12379Y-2841D01*
X12379Y-2700D01*
X12082Y-2402D01*
X11989Y-2427D01*
X11920Y-2624D01*
X11931Y-2832D01*
X11989Y-2972D01*
X12082Y-2997D01*
X12379Y-2700D01*
X12379Y-2841D01*
X12152Y-3067D01*
X12177Y-3160D01*
X12374Y-3229D01*
X12582Y-3218D01*
X12722Y-3160D01*
X12747Y-3067D01*
X12747Y-4814D01*
X12716Y-4896D01*
X13100Y-5279D01*
X13483Y-4896D01*
X13483Y-5037D01*
X13170Y-5350D01*
X13176Y-5355D01*
X13105Y-5426D01*
X13100Y-5420D01*
X13094Y-5426D01*
X13023Y-5355D01*
X13029Y-5350D01*
X12646Y-4966D01*
X12541Y-5005D01*
X12452Y-5245D01*
X12461Y-5501D01*
X12541Y-5694D01*
X12582Y-5709D01*
X11093Y-5709D01*
X11093Y-5694D01*
X11093Y-5462D01*
X11031Y-5400D01*
X10500Y-5400D01*
X10500Y-5407D01*
X10400Y-5407D01*
X10400Y-5400D01*
X9868Y-5400D01*
X9806Y-5462D01*
X9806Y-5694D01*
X9806Y-5709D01*
X8197Y-5709D01*
X8197Y-2454D01*
X8188Y-2198D01*
X8108Y-2005D01*
X8003Y-1966D01*
X7933Y-2037D01*
X7933Y-1896D01*
X7894Y-1791D01*
X7654Y-1702D01*
X7398Y-1711D01*
X7205Y-1791D01*
X7166Y-1896D01*
X7550Y-2279D01*
X7933Y-1896D01*
X7933Y-2037D01*
X7620Y-2350D01*
X8003Y-2733D01*
X8108Y-2694D01*
X8197Y-2454D01*
X8197Y-5709D01*
X7943Y-5709D01*
X7933Y-5709D01*
X7933Y-2803D01*
X7550Y-2420D01*
X7479Y-2491D01*
X7479Y-2350D01*
X7096Y-1966D01*
X6991Y-2005D01*
X6902Y-2245D01*
X6911Y-2501D01*
X6991Y-2694D01*
X7096Y-2733D01*
X7479Y-2350D01*
X7479Y-2491D01*
X7166Y-2803D01*
X7205Y-2908D01*
X7445Y-2997D01*
X7701Y-2988D01*
X7894Y-2908D01*
X7933Y-2803D01*
X7933Y-5709D01*
X7894Y-5709D01*
X7107Y-5709D01*
X7107Y-5709D01*
X6993Y-5709D01*
X6944Y-5709D01*
X6157Y-5709D01*
X6066Y-5746D01*
X5997Y-5816D01*
X5959Y-5906D01*
X5959Y-6005D01*
X5959Y-6792D01*
X5996Y-6883D01*
X6066Y-6952D01*
X6156Y-6990D01*
X6255Y-6990D01*
X6303Y-6990D01*
X5334Y-7959D01*
X4539Y-7959D01*
X4539Y-3217D01*
X4539Y-1740D01*
X4501Y-1648D01*
X4430Y-1578D01*
X4338Y-1540D01*
X4239Y-1539D01*
X3712Y-1540D01*
X3650Y-1602D01*
X3650Y-2429D01*
X4476Y-2429D01*
X4539Y-2366D01*
X4539Y-1740D01*
X4539Y-3217D01*
X4539Y-2591D01*
X4476Y-2529D01*
X3650Y-2529D01*
X3650Y-3355D01*
X3712Y-3418D01*
X4239Y-3418D01*
X4338Y-3417D01*
X4430Y-3379D01*
X4501Y-3309D01*
X4539Y-3217D01*
X4539Y-7959D01*
X4535Y-7959D01*
X4535Y-5481D01*
X4535Y-4103D01*
X4498Y-4012D01*
X4429Y-3942D01*
X4338Y-3905D01*
X4240Y-3905D01*
X3550Y-3905D01*
X3550Y-3355D01*
X3550Y-2529D01*
X3550Y-2429D01*
X3550Y-1602D01*
X3487Y-1540D01*
X2960Y-1539D01*
X2861Y-1540D01*
X2769Y-1578D01*
X2698Y-1648D01*
X2660Y-1740D01*
X2661Y-2366D01*
X2723Y-2429D01*
X3550Y-2429D01*
X3550Y-2529D01*
X2723Y-2529D01*
X2661Y-2591D01*
X2660Y-2853D01*
X2651Y-2829D01*
X2580Y-2759D01*
X2488Y-2721D01*
X2389Y-2720D01*
X1862Y-2721D01*
X1800Y-2783D01*
X1800Y-3610D01*
X2626Y-3610D01*
X2689Y-3547D01*
X2689Y-3285D01*
X2698Y-3309D01*
X2769Y-3379D01*
X2861Y-3417D01*
X2960Y-3418D01*
X3487Y-3418D01*
X3550Y-3355D01*
X3550Y-3905D01*
X2862Y-3905D01*
X2771Y-3942D01*
X2701Y-4011D01*
X2689Y-4042D01*
X2689Y-3772D01*
X2626Y-3710D01*
X1800Y-3710D01*
X1800Y-4536D01*
X1862Y-4599D01*
X2389Y-4599D01*
X2488Y-4598D01*
X2580Y-4560D01*
X2651Y-4490D01*
X2664Y-4458D01*
X2664Y-5578D01*
X2701Y-5669D01*
X2770Y-5739D01*
X2861Y-5776D01*
X2959Y-5776D01*
X2959Y-6350D01*
X2959Y-6350D01*
X2959Y-6476D01*
X3008Y-6595D01*
X3008Y-6595D01*
X3008Y-6595D01*
X3056Y-6712D01*
X3147Y-6802D01*
X3147Y-6802D01*
X3147Y-6802D01*
X3236Y-6892D01*
X3354Y-6941D01*
X3354Y-6941D01*
X3472Y-6990D01*
X3599Y-6990D01*
X3600Y-6990D01*
X3600Y-6990D01*
X3726Y-6990D01*
X3845Y-6941D01*
X3845Y-6941D01*
X3845Y-6941D01*
X3962Y-6893D01*
X4052Y-6802D01*
X4052Y-6802D01*
X4052Y-6802D01*
X4142Y-6713D01*
X4191Y-6595D01*
X4191Y-6595D01*
X4191Y-6595D01*
X4240Y-6477D01*
X4240Y-6350D01*
X4240Y-6350D01*
X4240Y-6349D01*
X4240Y-6223D01*
X4240Y-6222D01*
X4240Y-5776D01*
X4337Y-5776D01*
X4428Y-5739D01*
X4498Y-5670D01*
X4535Y-5579D01*
X4535Y-5481D01*
X4535Y-7959D01*
X3150Y-7959D01*
X2904Y-8008D01*
X2731Y-8124D01*
X2731Y-6756D01*
X2544Y-6303D01*
X2198Y-5956D01*
X1745Y-5769D01*
X1700Y-5769D01*
X1700Y-4536D01*
X1700Y-3710D01*
X1700Y-3610D01*
X1700Y-2783D01*
X1637Y-2721D01*
X1110Y-2720D01*
X1011Y-2721D01*
X919Y-2759D01*
X848Y-2829D01*
X810Y-2921D01*
X811Y-3547D01*
X873Y-3610D01*
X1700Y-3610D01*
X1700Y-3710D01*
X873Y-3710D01*
X811Y-3772D01*
X810Y-4398D01*
X848Y-4490D01*
X919Y-4560D01*
X1011Y-4598D01*
X1110Y-4599D01*
X1637Y-4599D01*
X1700Y-4536D01*
X1700Y-5769D01*
X1256Y-5768D01*
X803Y-5955D01*
X456Y-6301D01*
X269Y-6754D01*
X268Y-7243D01*
X455Y-7696D01*
X801Y-8043D01*
X1254Y-8230D01*
X1743Y-8231D01*
X2196Y-8044D01*
X2543Y-7698D01*
X2730Y-7245D01*
X2731Y-6756D01*
X2731Y-8124D01*
X2697Y-8147D01*
X1347Y-9497D01*
X1208Y-9704D01*
X1159Y-9950D01*
X1159Y-15450D01*
X1208Y-15695D01*
X1347Y-15902D01*
X2669Y-17224D01*
X1397Y-18497D01*
X1258Y-18704D01*
X1209Y-18950D01*
X1209Y-23650D01*
X1258Y-23895D01*
X1397Y-24102D01*
X1563Y-24268D01*
X1256Y-24268D01*
X803Y-24455D01*
X456Y-24801D01*
X269Y-25254D01*
X268Y-25743D01*
X455Y-26196D01*
X801Y-26543D01*
X1254Y-26730D01*
X1743Y-26731D01*
X2196Y-26544D01*
X2543Y-26198D01*
X2730Y-25745D01*
X2731Y-25437D01*
X3397Y-26102D01*
X3397Y-26102D01*
X3604Y-26241D01*
X3604Y-26241D01*
X3801Y-26280D01*
X3849Y-26290D01*
X3849Y-26290D01*
X3850Y-26290D01*
X5256Y-26290D01*
X5305Y-26290D01*
X6092Y-26290D01*
X6092Y-26290D01*
X6750Y-26290D01*
X6995Y-26241D01*
X7202Y-26102D01*
X7817Y-25488D01*
X7870Y-25466D01*
X7870Y-25466D01*
X7870Y-25466D01*
X7987Y-25418D01*
X8077Y-25327D01*
X8077Y-25327D01*
X8077Y-25327D01*
X8167Y-25238D01*
X8216Y-25120D01*
X8216Y-25120D01*
X8216Y-25120D01*
X8265Y-25002D01*
X8265Y-24875D01*
X8265Y-24875D01*
X8265Y-24874D01*
X8265Y-24748D01*
X8216Y-24629D01*
X8216Y-24629D01*
X8216Y-24629D01*
X8168Y-24512D01*
X8077Y-24422D01*
X8077Y-24422D01*
X8077Y-24422D01*
X8001Y-24345D01*
X8008Y-24328D01*
X7625Y-23945D01*
X7554Y-24016D01*
X7289Y-24281D01*
X7279Y-24283D01*
X7072Y-24422D01*
X7072Y-24422D01*
X6484Y-25009D01*
X6167Y-25009D01*
X6208Y-24994D01*
X6297Y-24754D01*
X6288Y-24498D01*
X6208Y-24305D01*
X6103Y-24266D01*
X6033Y-24337D01*
X6033Y-24196D01*
X5994Y-24091D01*
X5754Y-24002D01*
X5498Y-24011D01*
X5305Y-24091D01*
X5266Y-24196D01*
X5650Y-24579D01*
X6033Y-24196D01*
X6033Y-24337D01*
X5720Y-24650D01*
X5726Y-24655D01*
X5655Y-24726D01*
X5650Y-24720D01*
X5644Y-24726D01*
X5573Y-24655D01*
X5579Y-24650D01*
X5196Y-24266D01*
X5091Y-24305D01*
X5002Y-24545D01*
X5011Y-24801D01*
X5091Y-24994D01*
X5132Y-25009D01*
X4115Y-25009D01*
X2490Y-23384D01*
X2490Y-19215D01*
X4115Y-17590D01*
X5256Y-17590D01*
X5305Y-17590D01*
X6092Y-17590D01*
X6092Y-17590D01*
X6450Y-17590D01*
X6695Y-17541D01*
X6902Y-17402D01*
X7540Y-16765D01*
X7625Y-16765D01*
X7625Y-16765D01*
X7751Y-16765D01*
X7870Y-16716D01*
X7870Y-16716D01*
X7870Y-16716D01*
X7987Y-16668D01*
X8077Y-16577D01*
X8077Y-16577D01*
X8077Y-16577D01*
X8167Y-16488D01*
X8216Y-16370D01*
X8216Y-16370D01*
X8216Y-16370D01*
X8265Y-16252D01*
X8265Y-16125D01*
X8265Y-16125D01*
X8265Y-16124D01*
X8265Y-15998D01*
X8216Y-15879D01*
X8216Y-15879D01*
X8216Y-15879D01*
X8168Y-15762D01*
X8077Y-15672D01*
X8077Y-15672D01*
X8077Y-15672D01*
X8001Y-15595D01*
X8008Y-15578D01*
X7625Y-15195D01*
X7619Y-15201D01*
X7548Y-15130D01*
X7554Y-15125D01*
X7548Y-15119D01*
X7619Y-15048D01*
X7625Y-15054D01*
X8008Y-14671D01*
X8001Y-14654D01*
X8077Y-14577D01*
X8077Y-14577D01*
X8077Y-14577D01*
X8167Y-14488D01*
X8216Y-14370D01*
X8216Y-14370D01*
X8216Y-14370D01*
X8265Y-14252D01*
X8265Y-14125D01*
X8265Y-14125D01*
X8265Y-14124D01*
X8265Y-13998D01*
X8216Y-13879D01*
X8216Y-13879D01*
X8216Y-13879D01*
X8168Y-13762D01*
X8077Y-13672D01*
X8077Y-13672D01*
X8077Y-13672D01*
X8030Y-13624D01*
X8077Y-13577D01*
X8077Y-13577D01*
X8077Y-13577D01*
X8167Y-13488D01*
X8216Y-13370D01*
X8216Y-13370D01*
X8216Y-13370D01*
X8265Y-13252D01*
X8265Y-13125D01*
X8265Y-13125D01*
X8265Y-13124D01*
X8265Y-12998D01*
X8216Y-12879D01*
X8216Y-12879D01*
X8216Y-12879D01*
X8168Y-12762D01*
X8077Y-12672D01*
X8077Y-12672D01*
X8077Y-12672D01*
X8030Y-12624D01*
X8077Y-12577D01*
X8077Y-12577D01*
X8077Y-12577D01*
X8167Y-12488D01*
X8216Y-12370D01*
X8216Y-12370D01*
X8216Y-12370D01*
X8265Y-12252D01*
X8265Y-12125D01*
X8265Y-12125D01*
X8265Y-12124D01*
X8265Y-11998D01*
X8216Y-11879D01*
X8216Y-11879D01*
X8216Y-11879D01*
X8168Y-11762D01*
X8077Y-11672D01*
X8077Y-11672D01*
X8077Y-11672D01*
X8030Y-11624D01*
X8077Y-11577D01*
X8077Y-11577D01*
X8077Y-11577D01*
X8167Y-11488D01*
X8216Y-11370D01*
X8216Y-11370D01*
X8216Y-11370D01*
X8265Y-11252D01*
X8265Y-11125D01*
X8265Y-11125D01*
X8265Y-11124D01*
X8265Y-10998D01*
X8216Y-10879D01*
X8216Y-10879D01*
X8216Y-10879D01*
X8168Y-10762D01*
X8077Y-10672D01*
X8077Y-10672D01*
X8077Y-10672D01*
X8030Y-10624D01*
X8062Y-10593D01*
X8566Y-10593D01*
X10022Y-12049D01*
X9036Y-13036D01*
X8940Y-13180D01*
X8906Y-13350D01*
X8906Y-17400D01*
X8940Y-17569D01*
X9036Y-17713D01*
X9728Y-18406D01*
X8272Y-18406D01*
X8272Y-17979D01*
X8272Y-15229D01*
X8263Y-14973D01*
X8183Y-14780D01*
X8078Y-14741D01*
X7695Y-15125D01*
X8078Y-15508D01*
X8183Y-15469D01*
X8272Y-15229D01*
X8272Y-17979D01*
X8263Y-17723D01*
X8183Y-17530D01*
X8078Y-17491D01*
X8008Y-17562D01*
X8008Y-17421D01*
X7969Y-17316D01*
X7729Y-17227D01*
X7473Y-17236D01*
X7280Y-17316D01*
X7241Y-17421D01*
X7625Y-17804D01*
X8008Y-17421D01*
X8008Y-17562D01*
X7695Y-17875D01*
X8078Y-18258D01*
X8183Y-18219D01*
X8272Y-17979D01*
X8272Y-18406D01*
X8062Y-18406D01*
X8001Y-18345D01*
X8008Y-18328D01*
X7625Y-17945D01*
X7554Y-18016D01*
X7554Y-17875D01*
X7171Y-17491D01*
X7066Y-17530D01*
X6977Y-17770D01*
X6986Y-18026D01*
X7066Y-18219D01*
X7171Y-18258D01*
X7554Y-17875D01*
X7554Y-18016D01*
X7241Y-18328D01*
X7248Y-18345D01*
X7082Y-18511D01*
X6984Y-18747D01*
X6984Y-19001D01*
X7070Y-19209D01*
X4200Y-19209D01*
X4199Y-19209D01*
X4073Y-19209D01*
X3954Y-19258D01*
X3954Y-19258D01*
X3954Y-19258D01*
X3837Y-19306D01*
X3747Y-19397D01*
X3747Y-19397D01*
X3747Y-19397D01*
X3657Y-19486D01*
X3608Y-19604D01*
X3608Y-19604D01*
X3608Y-19604D01*
X3559Y-19722D01*
X3559Y-19849D01*
X3559Y-19850D01*
X3559Y-19850D01*
X3559Y-19976D01*
X3608Y-20095D01*
X3608Y-20095D01*
X3608Y-20095D01*
X3656Y-20212D01*
X3747Y-20302D01*
X3747Y-20302D01*
X3747Y-20302D01*
X3794Y-20350D01*
X3747Y-20397D01*
X3747Y-20397D01*
X3747Y-20397D01*
X3657Y-20486D01*
X3608Y-20604D01*
X3608Y-20604D01*
X3608Y-20604D01*
X3559Y-20722D01*
X3559Y-20849D01*
X3559Y-20850D01*
X3559Y-20850D01*
X3559Y-20976D01*
X3608Y-21095D01*
X3608Y-21095D01*
X3608Y-21095D01*
X3656Y-21212D01*
X3747Y-21302D01*
X3747Y-21302D01*
X3747Y-21302D01*
X3794Y-21350D01*
X3747Y-21397D01*
X3747Y-21397D01*
X3747Y-21397D01*
X3657Y-21486D01*
X3608Y-21604D01*
X3608Y-21604D01*
X3608Y-21604D01*
X3559Y-21722D01*
X3559Y-21849D01*
X3559Y-21850D01*
X3559Y-21850D01*
X3559Y-21976D01*
X3608Y-22095D01*
X3608Y-22095D01*
X3608Y-22095D01*
X3656Y-22212D01*
X3683Y-22239D01*
X3666Y-22246D01*
X3597Y-22316D01*
X3559Y-22406D01*
X3559Y-22505D01*
X3559Y-23292D01*
X3596Y-23383D01*
X3666Y-23452D01*
X3756Y-23490D01*
X3855Y-23490D01*
X4642Y-23490D01*
X4642Y-23490D01*
X7169Y-23490D01*
X7171Y-23491D01*
X7066Y-23530D01*
X6977Y-23770D01*
X6986Y-24026D01*
X7066Y-24219D01*
X7171Y-24258D01*
X7554Y-23875D01*
X7548Y-23869D01*
X7619Y-23798D01*
X7625Y-23804D01*
X8008Y-23421D01*
X8001Y-23404D01*
X8077Y-23327D01*
X8167Y-23238D01*
X8216Y-23120D01*
X8216Y-23120D01*
X8216Y-23120D01*
X8265Y-23002D01*
X8265Y-22875D01*
X8265Y-22875D01*
X8265Y-22874D01*
X8265Y-22748D01*
X8216Y-22629D01*
X8216Y-22629D01*
X8216Y-22629D01*
X8168Y-22512D01*
X8077Y-22422D01*
X8030Y-22374D01*
X8077Y-22327D01*
X8167Y-22238D01*
X8216Y-22120D01*
X8216Y-22120D01*
X8216Y-22120D01*
X8265Y-22002D01*
X8265Y-21875D01*
X8265Y-21875D01*
X8265Y-21874D01*
X8265Y-21748D01*
X8216Y-21629D01*
X8216Y-21629D01*
X8216Y-21629D01*
X8168Y-21512D01*
X8077Y-21422D01*
X8030Y-21374D01*
X8077Y-21327D01*
X8167Y-21238D01*
X8216Y-21120D01*
X8216Y-21120D01*
X8216Y-21120D01*
X8265Y-21002D01*
X8265Y-20875D01*
X8265Y-20875D01*
X8265Y-20874D01*
X8265Y-20748D01*
X8216Y-20629D01*
X8216Y-20629D01*
X8216Y-20629D01*
X8168Y-20512D01*
X8077Y-20422D01*
X8030Y-20374D01*
X8077Y-20327D01*
X8167Y-20238D01*
X8216Y-20120D01*
X8216Y-20120D01*
X8216Y-20120D01*
X8265Y-20002D01*
X8265Y-19875D01*
X8265Y-19875D01*
X8265Y-19874D01*
X8265Y-19748D01*
X8216Y-19629D01*
X8216Y-19629D01*
X8216Y-19629D01*
X8168Y-19512D01*
X8077Y-19422D01*
X8030Y-19374D01*
X8112Y-19293D01*
X10434Y-19293D01*
X10475Y-19334D01*
X10685Y-19421D01*
X10913Y-19421D01*
X11123Y-19335D01*
X11284Y-19174D01*
X11371Y-18964D01*
X11371Y-18736D01*
X11285Y-18526D01*
X11124Y-18365D01*
X10914Y-18278D01*
X10855Y-18278D01*
X9793Y-17216D01*
X9793Y-13533D01*
X10630Y-12696D01*
X10838Y-12696D01*
X11048Y-12610D01*
X11209Y-12449D01*
X11296Y-12239D01*
X11296Y-12011D01*
X11210Y-11801D01*
X11168Y-11760D01*
X11168Y-9508D01*
X11983Y-8693D01*
X12150Y-8693D01*
X12082Y-8761D01*
X11984Y-8997D01*
X11984Y-9251D01*
X12081Y-9487D01*
X12219Y-9625D01*
X12082Y-9761D01*
X11984Y-9997D01*
X11984Y-10251D01*
X12081Y-10487D01*
X12219Y-10625D01*
X12082Y-10761D01*
X11984Y-10997D01*
X11984Y-11251D01*
X12081Y-11487D01*
X12181Y-11587D01*
X12181Y-11662D01*
X12082Y-11761D01*
X11984Y-11997D01*
X11984Y-12251D01*
X12081Y-12487D01*
X12219Y-12625D01*
X12082Y-12761D01*
X11984Y-12997D01*
X11984Y-13251D01*
X12081Y-13487D01*
X12181Y-13587D01*
X12181Y-13662D01*
X12082Y-13761D01*
X11984Y-13997D01*
X11984Y-14251D01*
X12081Y-14487D01*
X12181Y-14587D01*
X12181Y-14662D01*
X12162Y-14681D01*
X11090Y-14681D01*
X11049Y-14640D01*
X10839Y-14553D01*
X10611Y-14553D01*
X10401Y-14639D01*
X10240Y-14800D01*
X10153Y-15010D01*
X10153Y-15238D01*
X10239Y-15448D01*
X10400Y-15609D01*
X10610Y-15696D01*
X10838Y-15696D01*
X11048Y-15610D01*
X11089Y-15568D01*
X12162Y-15568D01*
X12219Y-15625D01*
X12082Y-15761D01*
X11984Y-15997D01*
X11984Y-16251D01*
X12081Y-16487D01*
X12261Y-16667D01*
X12497Y-16765D01*
X12638Y-16765D01*
X13086Y-17213D01*
X13086Y-17213D01*
X13230Y-17309D01*
X13230Y-17309D01*
X13258Y-17315D01*
X13400Y-17343D01*
X14537Y-17343D01*
X14594Y-17400D01*
X14537Y-17456D01*
X13112Y-17456D01*
X12988Y-17332D01*
X12752Y-17234D01*
X12498Y-17234D01*
X12262Y-17331D01*
X12082Y-17511D01*
X11984Y-17747D01*
X11984Y-18001D01*
X12081Y-18237D01*
X12219Y-18375D01*
X12082Y-18511D01*
X11984Y-18747D01*
X11984Y-19001D01*
X12081Y-19237D01*
X12219Y-19375D01*
X12082Y-19511D01*
X11984Y-19747D01*
X11984Y-20001D01*
X12081Y-20237D01*
X12181Y-20337D01*
X12181Y-20412D01*
X12082Y-20511D01*
X11984Y-20747D01*
X11984Y-21001D01*
X12081Y-21237D01*
X12219Y-21375D01*
X12162Y-21431D01*
X11190Y-21431D01*
X11124Y-21365D01*
X10914Y-21278D01*
X10686Y-21278D01*
X10476Y-21364D01*
X10315Y-21525D01*
X10228Y-21735D01*
X10228Y-21963D01*
X10314Y-22173D01*
X10475Y-22334D01*
X10685Y-22421D01*
X10913Y-22421D01*
X11123Y-22335D01*
X11139Y-22318D01*
X12162Y-22318D01*
X12181Y-22337D01*
X12181Y-22412D01*
X12082Y-22511D01*
X11984Y-22747D01*
X11984Y-23001D01*
X12081Y-23237D01*
X12181Y-23337D01*
X12181Y-23412D01*
X12082Y-23511D01*
X11984Y-23747D01*
X11984Y-24001D01*
X12081Y-24237D01*
X12219Y-24375D01*
X12082Y-24511D01*
X11984Y-24747D01*
X11984Y-25001D01*
X12081Y-25237D01*
X12261Y-25417D01*
X12497Y-25515D01*
X12751Y-25515D01*
X12987Y-25418D01*
X13102Y-25303D01*
X13194Y-25284D01*
X13338Y-25188D01*
X13963Y-24563D01*
X14059Y-24419D01*
X14093Y-24250D01*
X14093Y-24250D01*
X14093Y-21033D01*
X14670Y-20456D01*
X14872Y-20540D01*
X15126Y-20540D01*
X15362Y-20443D01*
X15542Y-20263D01*
X15640Y-20027D01*
X15640Y-19773D01*
X15543Y-19537D01*
X15405Y-19399D01*
X15542Y-19263D01*
X15640Y-19027D01*
X15640Y-18773D01*
X15543Y-18537D01*
X15405Y-18399D01*
X15542Y-18263D01*
X15640Y-18027D01*
X15640Y-17773D01*
X15543Y-17537D01*
X15405Y-17399D01*
X15542Y-17263D01*
X15640Y-17027D01*
X15640Y-16773D01*
X15543Y-16537D01*
X15405Y-16399D01*
X15542Y-16263D01*
X15640Y-16027D01*
X15640Y-15773D01*
X15543Y-15537D01*
X15405Y-15399D01*
X15542Y-15263D01*
X15640Y-15027D01*
X15640Y-14773D01*
X15543Y-14537D01*
X15405Y-14399D01*
X15542Y-14263D01*
X15640Y-14027D01*
X15640Y-13773D01*
X15543Y-13537D01*
X15405Y-13399D01*
X15542Y-13263D01*
X15640Y-13027D01*
X15640Y-12773D01*
X15543Y-12537D01*
X15376Y-12370D01*
X15383Y-12353D01*
X15000Y-11970D01*
X14616Y-12353D01*
X14623Y-12370D01*
X14493Y-12500D01*
X14493Y-12263D01*
X14546Y-12283D01*
X14929Y-11900D01*
X14546Y-11516D01*
X14493Y-11536D01*
X14493Y-11299D01*
X14623Y-11429D01*
X14616Y-11446D01*
X15000Y-11829D01*
X15383Y-11446D01*
X15376Y-11429D01*
X15542Y-11263D01*
X15640Y-11027D01*
X15640Y-10773D01*
X15543Y-10537D01*
X15405Y-10399D01*
X15542Y-10263D01*
X15640Y-10027D01*
X15640Y-9773D01*
X15543Y-9537D01*
X15405Y-9399D01*
X15542Y-9263D01*
X15640Y-9027D01*
X15640Y-8773D01*
X15543Y-8537D01*
X15363Y-8357D01*
X15127Y-8259D01*
X14873Y-8259D01*
X14637Y-8356D01*
X14457Y-8536D01*
X14359Y-8772D01*
X14359Y-9026D01*
X14456Y-9262D01*
X14594Y-9400D01*
X14457Y-9536D01*
X14359Y-9772D01*
X14359Y-9832D01*
X13338Y-8811D01*
X13194Y-8715D01*
X13102Y-8696D01*
X13099Y-8693D01*
X13850Y-8693D01*
X14019Y-8659D01*
X14163Y-8563D01*
X15413Y-7313D01*
X15509Y-7169D01*
X15543Y-7000D01*
X15543Y-7000D01*
X15543Y-3650D01*
X15543Y-3649D01*
X15509Y-3480D01*
X15509Y-3480D01*
X15478Y-3432D01*
X15413Y-3336D01*
X15413Y-3336D01*
X14171Y-2093D01*
X14216Y-2093D01*
X16256Y-4133D01*
X16256Y-7950D01*
X16290Y-8119D01*
X16386Y-8263D01*
X20336Y-12213D01*
X20336Y-12213D01*
X20432Y-12278D01*
X20480Y-12309D01*
X20480Y-12309D01*
X20510Y-12315D01*
X20594Y-12400D01*
X20537Y-12456D01*
X17165Y-12456D01*
X17124Y-12415D01*
X16914Y-12328D01*
X16686Y-12328D01*
X16476Y-12414D01*
X16315Y-12575D01*
X16228Y-12785D01*
X16228Y-13013D01*
X16314Y-13223D01*
X16475Y-13384D01*
X16685Y-13471D01*
X16913Y-13471D01*
X17123Y-13385D01*
X17164Y-13343D01*
X20537Y-13343D01*
X20594Y-13400D01*
X20457Y-13536D01*
X20359Y-13772D01*
X20359Y-14026D01*
X20456Y-14262D01*
X20594Y-14400D01*
X20537Y-14456D01*
X20300Y-14456D01*
X20130Y-14490D01*
X20082Y-14521D01*
X19986Y-14586D01*
X17243Y-17328D01*
X17243Y-16265D01*
X17284Y-16224D01*
X17371Y-16014D01*
X17371Y-15786D01*
X17285Y-15576D01*
X17124Y-15415D01*
X16914Y-15328D01*
X16686Y-15328D01*
X16476Y-15414D01*
X16315Y-15575D01*
X16228Y-15785D01*
X16228Y-16013D01*
X16314Y-16223D01*
X16356Y-16264D01*
X16356Y-20466D01*
X15647Y-21174D01*
X15647Y-12004D01*
X15638Y-11748D01*
X15558Y-11555D01*
X15453Y-11516D01*
X15070Y-11900D01*
X15453Y-12283D01*
X15558Y-12244D01*
X15647Y-12004D01*
X15647Y-21174D01*
X15236Y-21586D01*
X15140Y-21730D01*
X15106Y-21900D01*
X15106Y-22127D01*
X15061Y-22172D01*
X14973Y-22384D01*
X14973Y-22614D01*
X15060Y-22826D01*
X15222Y-22988D01*
X15243Y-22997D01*
X15213Y-23092D01*
X15550Y-23429D01*
X15886Y-23092D01*
X15856Y-22997D01*
X15876Y-22989D01*
X16038Y-22827D01*
X16126Y-22615D01*
X16126Y-22385D01*
X16039Y-22173D01*
X15993Y-22127D01*
X15993Y-22083D01*
X17056Y-21021D01*
X17056Y-21859D01*
X16966Y-21896D01*
X16897Y-21966D01*
X16859Y-22056D01*
X16859Y-22155D01*
X16859Y-22942D01*
X16896Y-23033D01*
X16966Y-23102D01*
X17056Y-23140D01*
X17155Y-23140D01*
X17942Y-23140D01*
X18033Y-23103D01*
X18102Y-23033D01*
X18125Y-22978D01*
X18155Y-23058D01*
X18395Y-23147D01*
X18651Y-23138D01*
X18844Y-23058D01*
X18883Y-22953D01*
X18500Y-22570D01*
X18494Y-22576D01*
X18423Y-22505D01*
X18429Y-22500D01*
X18423Y-22494D01*
X18494Y-22423D01*
X18500Y-22429D01*
X18883Y-22046D01*
X18844Y-21941D01*
X18604Y-21852D01*
X18348Y-21861D01*
X18155Y-21941D01*
X18125Y-22021D01*
X18103Y-21966D01*
X18033Y-21897D01*
X17943Y-21859D01*
X17943Y-17883D01*
X20483Y-15343D01*
X20537Y-15343D01*
X20594Y-15400D01*
X20522Y-15471D01*
X20430Y-15490D01*
X20382Y-15521D01*
X20286Y-15586D01*
X19586Y-16286D01*
X19490Y-16430D01*
X19456Y-16600D01*
X19456Y-21907D01*
X19397Y-21966D01*
X19359Y-22056D01*
X19359Y-22155D01*
X19359Y-22942D01*
X19396Y-23033D01*
X19466Y-23102D01*
X19556Y-23140D01*
X19655Y-23140D01*
X20442Y-23140D01*
X20533Y-23103D01*
X20602Y-23033D01*
X20625Y-22978D01*
X20655Y-23058D01*
X20895Y-23147D01*
X21151Y-23138D01*
X21344Y-23058D01*
X21383Y-22953D01*
X21000Y-22570D01*
X20994Y-22576D01*
X20923Y-22505D01*
X20929Y-22500D01*
X20923Y-22494D01*
X20994Y-22423D01*
X21000Y-22429D01*
X21383Y-22046D01*
X21344Y-21941D01*
X21104Y-21852D01*
X20848Y-21861D01*
X20655Y-21941D01*
X20625Y-22021D01*
X20603Y-21966D01*
X20533Y-21897D01*
X20443Y-21859D01*
X20344Y-21859D01*
X20343Y-21859D01*
X20343Y-16783D01*
X20362Y-16765D01*
X20359Y-16772D01*
X20359Y-17026D01*
X20456Y-17262D01*
X20594Y-17400D01*
X20457Y-17536D01*
X20359Y-17772D01*
X20359Y-18026D01*
X20456Y-18262D01*
X20594Y-18400D01*
X20457Y-18536D01*
X20359Y-18772D01*
X20359Y-19026D01*
X20456Y-19262D01*
X20594Y-19400D01*
X20457Y-19536D01*
X20359Y-19772D01*
X20359Y-20026D01*
X20456Y-20262D01*
X20636Y-20442D01*
X20872Y-20540D01*
X21126Y-20540D01*
X21362Y-20443D01*
X21542Y-20263D01*
X21640Y-20027D01*
X21640Y-19773D01*
X21543Y-19537D01*
X21405Y-19399D01*
X21542Y-19263D01*
X21640Y-19027D01*
X21640Y-18773D01*
X21543Y-18537D01*
X21405Y-18399D01*
X21542Y-18263D01*
X21640Y-18027D01*
X21640Y-17773D01*
X21543Y-17537D01*
X21405Y-17399D01*
X21542Y-17263D01*
X21640Y-17027D01*
X21640Y-16773D01*
X21543Y-16537D01*
X21405Y-16399D01*
X21542Y-16263D01*
X21640Y-16027D01*
X21640Y-15773D01*
X21543Y-15537D01*
X21405Y-15399D01*
X21542Y-15263D01*
X21640Y-15027D01*
X21640Y-14773D01*
X21543Y-14537D01*
X21405Y-14399D01*
X21462Y-14343D01*
X22300Y-14343D01*
X22469Y-14309D01*
X22613Y-14213D01*
X22681Y-14146D01*
X22696Y-14183D01*
X22766Y-14252D01*
X22856Y-14290D01*
X22955Y-14290D01*
X23742Y-14290D01*
X23833Y-14253D01*
X23902Y-14183D01*
X23940Y-14093D01*
X23940Y-13994D01*
X23940Y-13207D01*
X23903Y-13116D01*
X23833Y-13047D01*
X23816Y-13039D01*
X23842Y-13013D01*
X23940Y-12777D01*
X23940Y-12523D01*
X23940Y-24349D01*
X23745Y-24269D01*
X23256Y-24268D01*
X22803Y-24455D01*
X22456Y-24801D01*
X22269Y-25254D01*
X22268Y-25743D01*
X22455Y-26196D01*
X22801Y-26543D01*
X23254Y-26730D01*
X23743Y-26731D01*
X24196Y-26544D01*
X24543Y-26198D01*
X24730Y-25745D01*
X24731Y-25256D01*
X24731Y-26950D01*
X22231Y-26950D01*
X22231Y-24512D01*
X21647Y-24512D01*
X21647Y-22604D01*
X21638Y-22348D01*
X21558Y-22155D01*
X21453Y-22116D01*
X21070Y-22500D01*
X21453Y-22883D01*
X21558Y-22844D01*
X21647Y-22604D01*
X21647Y-24512D01*
X19147Y-24512D01*
X19147Y-22604D01*
X19138Y-22348D01*
X19058Y-22155D01*
X18953Y-22116D01*
X18570Y-22500D01*
X18953Y-22883D01*
X19058Y-22844D01*
X19147Y-22604D01*
X19147Y-24512D01*
X16134Y-24512D01*
X16134Y-23588D01*
X16124Y-23358D01*
X16056Y-23194D01*
X15957Y-23163D01*
X15620Y-23500D01*
X15957Y-23836D01*
X16056Y-23805D01*
X16134Y-23588D01*
X16134Y-24512D01*
X15886Y-24512D01*
X15886Y-23907D01*
X15550Y-23570D01*
X15479Y-23641D01*
X15479Y-23500D01*
X15142Y-23163D01*
X15043Y-23194D01*
X14965Y-23411D01*
X14975Y-23641D01*
X15043Y-23805D01*
X15142Y-23836D01*
X15479Y-23500D01*
X15479Y-23641D01*
X15213Y-23907D01*
X15244Y-24006D01*
X15461Y-24084D01*
X15691Y-24074D01*
X15855Y-24006D01*
X15886Y-23907D01*
X15886Y-24512D01*
X14768Y-24512D01*
X14768Y-26950D01*
X8272Y-26950D01*
X8272Y-23979D01*
X8263Y-23723D01*
X8183Y-23530D01*
X8078Y-23491D01*
X7695Y-23875D01*
X8078Y-24258D01*
X8183Y-24219D01*
X8272Y-23979D01*
X8272Y-26950D01*
X50Y-26950D01*
X50Y-50D01*
X18570Y-50D01*
X16730Y-1889D01*
X23110Y-8269D01*
X24950Y-6429D01*
X24950Y-26950D01*
X24950Y-26950D01*
G37*
G54D22*
X24950Y-26950D02*
X24731Y-26950D01*
X24731Y-25256D01*
X24544Y-24803D01*
X24198Y-24456D01*
X23947Y-24353D01*
X23947Y-11754D01*
X23938Y-11498D01*
X23858Y-11305D01*
X23753Y-11266D01*
X23683Y-11337D01*
X23683Y-11196D01*
X23644Y-11091D01*
X23404Y-11002D01*
X23148Y-11011D01*
X22955Y-11091D01*
X22916Y-11196D01*
X23300Y-11579D01*
X23683Y-11196D01*
X23683Y-11337D01*
X23370Y-11650D01*
X23753Y-12033D01*
X23858Y-11994D01*
X23947Y-11754D01*
X23947Y-24353D01*
X23940Y-24349D01*
X23940Y-12523D01*
X23843Y-12287D01*
X23676Y-12120D01*
X23683Y-12103D01*
X23300Y-11720D01*
X23229Y-11791D01*
X23229Y-11650D01*
X22846Y-11266D01*
X22741Y-11305D01*
X22652Y-11545D01*
X22661Y-11801D01*
X22741Y-11994D01*
X22846Y-12033D01*
X23229Y-11650D01*
X23229Y-11791D01*
X22916Y-12103D01*
X22923Y-12120D01*
X22837Y-12206D01*
X22783Y-12206D01*
X22163Y-11586D01*
X22019Y-11490D01*
X21850Y-11456D01*
X21647Y-11456D01*
X21647Y-10004D01*
X21640Y-9805D01*
X21640Y-8773D01*
X21543Y-8537D01*
X21363Y-8357D01*
X21127Y-8259D01*
X20873Y-8259D01*
X20637Y-8356D01*
X20457Y-8536D01*
X20359Y-8772D01*
X20359Y-9026D01*
X20456Y-9262D01*
X20623Y-9429D01*
X20616Y-9446D01*
X21000Y-9829D01*
X21383Y-9446D01*
X21376Y-9429D01*
X21542Y-9263D01*
X21640Y-9027D01*
X21640Y-8773D01*
X21640Y-9805D01*
X21638Y-9748D01*
X21558Y-9555D01*
X21453Y-9516D01*
X21070Y-9900D01*
X21453Y-10283D01*
X21558Y-10244D01*
X21647Y-10004D01*
X21647Y-11456D01*
X21462Y-11456D01*
X21405Y-11399D01*
X21542Y-11263D01*
X21640Y-11027D01*
X21640Y-10773D01*
X21543Y-10537D01*
X21376Y-10370D01*
X21383Y-10353D01*
X21000Y-9970D01*
X20929Y-10041D01*
X20929Y-9900D01*
X20546Y-9516D01*
X20441Y-9555D01*
X20352Y-9795D01*
X20361Y-10051D01*
X20441Y-10244D01*
X20546Y-10283D01*
X20929Y-9900D01*
X20929Y-10041D01*
X20616Y-10353D01*
X20623Y-10370D01*
X20457Y-10536D01*
X20359Y-10772D01*
X20359Y-10981D01*
X17143Y-7766D01*
X17143Y-3950D01*
X17109Y-3780D01*
X17109Y-3780D01*
X17078Y-3732D01*
X17013Y-3636D01*
X17013Y-3636D01*
X14713Y-1336D01*
X14569Y-1240D01*
X14400Y-1206D01*
X13100Y-1206D01*
X12450Y-1206D01*
X11000Y-1206D01*
X10830Y-1240D01*
X10686Y-1336D01*
X10136Y-1886D01*
X10040Y-2030D01*
X10006Y-2200D01*
X10006Y-2240D01*
X9997Y-2247D01*
X9858Y-2454D01*
X9809Y-2700D01*
X9809Y-4350D01*
X9809Y-4350D01*
X9809Y-4476D01*
X9858Y-4595D01*
X9858Y-4595D01*
X9858Y-4595D01*
X9906Y-4712D01*
X9931Y-4737D01*
X9914Y-4744D01*
X9844Y-4814D01*
X9806Y-4906D01*
X9806Y-5005D01*
X9806Y-5237D01*
X9868Y-5300D01*
X10400Y-5300D01*
X10400Y-5292D01*
X10500Y-5292D01*
X10500Y-5300D01*
X11031Y-5300D01*
X11093Y-5237D01*
X11093Y-5005D01*
X11093Y-4906D01*
X11055Y-4814D01*
X10985Y-4744D01*
X10968Y-4737D01*
X10992Y-4713D01*
X11041Y-4595D01*
X11041Y-4595D01*
X11041Y-4595D01*
X11090Y-4477D01*
X11090Y-4350D01*
X11090Y-4350D01*
X11090Y-4349D01*
X11090Y-4223D01*
X11090Y-4222D01*
X11090Y-2700D01*
X11041Y-2454D01*
X10954Y-2323D01*
X11183Y-2093D01*
X12450Y-2093D01*
X12916Y-2093D01*
X14656Y-3833D01*
X14656Y-6816D01*
X13666Y-7806D01*
X11800Y-7806D01*
X11630Y-7840D01*
X11486Y-7936D01*
X10411Y-9011D01*
X10315Y-9155D01*
X10281Y-9325D01*
X10281Y-11053D01*
X9063Y-9836D01*
X8919Y-9740D01*
X8750Y-9706D01*
X8272Y-9706D01*
X8272Y-9229D01*
X8263Y-8973D01*
X8183Y-8780D01*
X8078Y-8741D01*
X8008Y-8812D01*
X8008Y-8671D01*
X7969Y-8566D01*
X7729Y-8477D01*
X7473Y-8486D01*
X7280Y-8566D01*
X7241Y-8671D01*
X7625Y-9054D01*
X8008Y-8671D01*
X8008Y-8812D01*
X7695Y-9125D01*
X8078Y-9508D01*
X8183Y-9469D01*
X8272Y-9229D01*
X8272Y-9706D01*
X8112Y-9706D01*
X8001Y-9595D01*
X8008Y-9578D01*
X7625Y-9195D01*
X7554Y-9266D01*
X7554Y-9125D01*
X7171Y-8741D01*
X7066Y-8780D01*
X6977Y-9020D01*
X6986Y-9276D01*
X7066Y-9469D01*
X7171Y-9508D01*
X7554Y-9125D01*
X7554Y-9266D01*
X7241Y-9578D01*
X7248Y-9595D01*
X7082Y-9761D01*
X6984Y-9997D01*
X6984Y-10251D01*
X7080Y-10484D01*
X4225Y-10484D01*
X4224Y-10484D01*
X4098Y-10484D01*
X3979Y-10533D01*
X3979Y-10533D01*
X3979Y-10533D01*
X3862Y-10581D01*
X3772Y-10672D01*
X3772Y-10672D01*
X3772Y-10672D01*
X3682Y-10761D01*
X3633Y-10879D01*
X3633Y-10879D01*
X3633Y-10879D01*
X3584Y-10997D01*
X3584Y-11124D01*
X3584Y-11125D01*
X3584Y-11125D01*
X3584Y-11251D01*
X3633Y-11370D01*
X3633Y-11370D01*
X3633Y-11370D01*
X3681Y-11487D01*
X3772Y-11577D01*
X3772Y-11577D01*
X3772Y-11577D01*
X3819Y-11625D01*
X3772Y-11672D01*
X3772Y-11672D01*
X3772Y-11672D01*
X3682Y-11761D01*
X3633Y-11879D01*
X3633Y-11879D01*
X3633Y-11879D01*
X3584Y-11997D01*
X3584Y-12124D01*
X3584Y-12125D01*
X3584Y-12125D01*
X3584Y-12251D01*
X3633Y-12370D01*
X3633Y-12370D01*
X3633Y-12370D01*
X3681Y-12487D01*
X3772Y-12577D01*
X3772Y-12577D01*
X3772Y-12577D01*
X3819Y-12625D01*
X3772Y-12672D01*
X3772Y-12672D01*
X3772Y-12672D01*
X3682Y-12761D01*
X3633Y-12879D01*
X3633Y-12879D01*
X3633Y-12879D01*
X3584Y-12997D01*
X3584Y-13124D01*
X3584Y-13125D01*
X3584Y-13125D01*
X3584Y-13251D01*
X3633Y-13370D01*
X3633Y-13370D01*
X3633Y-13370D01*
X3681Y-13487D01*
X3708Y-13514D01*
X3691Y-13521D01*
X3622Y-13591D01*
X3584Y-13681D01*
X3584Y-13780D01*
X3584Y-14567D01*
X3621Y-14658D01*
X3691Y-14727D01*
X3781Y-14765D01*
X3880Y-14765D01*
X4667Y-14765D01*
X4667Y-14765D01*
X7107Y-14765D01*
X7066Y-14780D01*
X6977Y-15020D01*
X6986Y-15276D01*
X7066Y-15469D01*
X7166Y-15506D01*
X7029Y-15533D01*
X6822Y-15672D01*
X6822Y-15672D01*
X6214Y-16280D01*
X6297Y-16054D01*
X6288Y-15798D01*
X6208Y-15605D01*
X6103Y-15566D01*
X6033Y-15637D01*
X6033Y-15496D01*
X5994Y-15391D01*
X5754Y-15302D01*
X5498Y-15311D01*
X5305Y-15391D01*
X5266Y-15496D01*
X5650Y-15879D01*
X6033Y-15496D01*
X6033Y-15637D01*
X5720Y-15950D01*
X5726Y-15955D01*
X5655Y-16026D01*
X5650Y-16020D01*
X5644Y-16026D01*
X5573Y-15955D01*
X5579Y-15950D01*
X5196Y-15566D01*
X5091Y-15605D01*
X5002Y-15845D01*
X5011Y-16101D01*
X5091Y-16294D01*
X5132Y-16309D01*
X3850Y-16309D01*
X3849Y-16309D01*
X3565Y-16309D01*
X2440Y-15184D01*
X2440Y-10215D01*
X3415Y-9240D01*
X5600Y-9240D01*
X5845Y-9191D01*
X6052Y-9052D01*
X8002Y-7102D01*
X8002Y-7102D01*
X8002Y-7102D01*
X8078Y-6990D01*
X8078Y-6990D01*
X10450Y-6990D01*
X10450Y-6990D01*
X10576Y-6990D01*
X10577Y-6990D01*
X12706Y-6990D01*
X12755Y-6990D01*
X13542Y-6990D01*
X13633Y-6953D01*
X13702Y-6883D01*
X13740Y-6793D01*
X13740Y-6694D01*
X13740Y-5907D01*
X13703Y-5816D01*
X13633Y-5747D01*
X13578Y-5724D01*
X13658Y-5694D01*
X13747Y-5454D01*
X13738Y-5198D01*
X13658Y-5005D01*
X13553Y-4966D01*
X13483Y-5037D01*
X13483Y-4896D01*
X13444Y-4791D01*
X13204Y-4702D01*
X12979Y-4710D01*
X12979Y-2775D01*
X12968Y-2567D01*
X12910Y-2427D01*
X12817Y-2402D01*
X12747Y-2473D01*
X12747Y-2332D01*
X12722Y-2239D01*
X12525Y-2170D01*
X12317Y-2181D01*
X12177Y-2239D01*
X12152Y-2332D01*
X12450Y-2629D01*
X12747Y-2332D01*
X12747Y-2473D01*
X12520Y-2700D01*
X12817Y-2997D01*
X12910Y-2972D01*
X12979Y-2775D01*
X12979Y-4710D01*
X12948Y-4711D01*
X12755Y-4791D01*
X12747Y-4814D01*
X12747Y-3067D01*
X12450Y-2770D01*
X12379Y-2841D01*
X12379Y-2700D01*
X12082Y-2402D01*
X11989Y-2427D01*
X11920Y-2624D01*
X11931Y-2832D01*
X11989Y-2972D01*
X12082Y-2997D01*
X12379Y-2700D01*
X12379Y-2841D01*
X12152Y-3067D01*
X12177Y-3160D01*
X12374Y-3229D01*
X12582Y-3218D01*
X12722Y-3160D01*
X12747Y-3067D01*
X12747Y-4814D01*
X12716Y-4896D01*
X13100Y-5279D01*
X13483Y-4896D01*
X13483Y-5037D01*
X13170Y-5350D01*
X13176Y-5355D01*
X13105Y-5426D01*
X13100Y-5420D01*
X13094Y-5426D01*
X13023Y-5355D01*
X13029Y-5350D01*
X12646Y-4966D01*
X12541Y-5005D01*
X12452Y-5245D01*
X12461Y-5501D01*
X12541Y-5694D01*
X12582Y-5709D01*
X11093Y-5709D01*
X11093Y-5694D01*
X11093Y-5462D01*
X11031Y-5400D01*
X10500Y-5400D01*
X10500Y-5407D01*
X10400Y-5407D01*
X10400Y-5400D01*
X9868Y-5400D01*
X9806Y-5462D01*
X9806Y-5694D01*
X9806Y-5709D01*
X8197Y-5709D01*
X8197Y-2454D01*
X8188Y-2198D01*
X8108Y-2005D01*
X8003Y-1966D01*
X7933Y-2037D01*
X7933Y-1896D01*
X7894Y-1791D01*
X7654Y-1702D01*
X7398Y-1711D01*
X7205Y-1791D01*
X7166Y-1896D01*
X7550Y-2279D01*
X7933Y-1896D01*
X7933Y-2037D01*
X7620Y-2350D01*
X8003Y-2733D01*
X8108Y-2694D01*
X8197Y-2454D01*
X8197Y-5709D01*
X7943Y-5709D01*
X7933Y-5709D01*
X7933Y-2803D01*
X7550Y-2420D01*
X7479Y-2491D01*
X7479Y-2350D01*
X7096Y-1966D01*
X6991Y-2005D01*
X6902Y-2245D01*
X6911Y-2501D01*
X6991Y-2694D01*
X7096Y-2733D01*
X7479Y-2350D01*
X7479Y-2491D01*
X7166Y-2803D01*
X7205Y-2908D01*
X7445Y-2997D01*
X7701Y-2988D01*
X7894Y-2908D01*
X7933Y-2803D01*
X7933Y-5709D01*
X7894Y-5709D01*
X7107Y-5709D01*
X7107Y-5709D01*
X6993Y-5709D01*
X6944Y-5709D01*
X6157Y-5709D01*
X6066Y-5746D01*
X5997Y-5816D01*
X5959Y-5906D01*
X5959Y-6005D01*
X5959Y-6792D01*
X5996Y-6883D01*
X6066Y-6952D01*
X6156Y-6990D01*
X6255Y-6990D01*
X6303Y-6990D01*
X5334Y-7959D01*
X4539Y-7959D01*
X4539Y-3217D01*
X4539Y-1740D01*
X4501Y-1648D01*
X4430Y-1578D01*
X4338Y-1540D01*
X4239Y-1539D01*
X3712Y-1540D01*
X3650Y-1602D01*
X3650Y-2429D01*
X4476Y-2429D01*
X4539Y-2366D01*
X4539Y-1740D01*
X4539Y-3217D01*
X4539Y-2591D01*
X4476Y-2529D01*
X3650Y-2529D01*
X3650Y-3355D01*
X3712Y-3418D01*
X4239Y-3418D01*
X4338Y-3417D01*
X4430Y-3379D01*
X4501Y-3309D01*
X4539Y-3217D01*
X4539Y-7959D01*
X4535Y-7959D01*
X4535Y-5481D01*
X4535Y-4103D01*
X4498Y-4012D01*
X4429Y-3942D01*
X4338Y-3905D01*
X4240Y-3905D01*
X3550Y-3905D01*
X3550Y-3355D01*
X3550Y-2529D01*
X3550Y-2429D01*
X3550Y-1602D01*
X3487Y-1540D01*
X2960Y-1539D01*
X2861Y-1540D01*
X2769Y-1578D01*
X2698Y-1648D01*
X2660Y-1740D01*
X2661Y-2366D01*
X2723Y-2429D01*
X3550Y-2429D01*
X3550Y-2529D01*
X2723Y-2529D01*
X2661Y-2591D01*
X2660Y-2853D01*
X2651Y-2829D01*
X2580Y-2759D01*
X2488Y-2721D01*
X2389Y-2720D01*
X1862Y-2721D01*
X1800Y-2783D01*
X1800Y-3610D01*
X2626Y-3610D01*
X2689Y-3547D01*
X2689Y-3285D01*
X2698Y-3309D01*
X2769Y-3379D01*
X2861Y-3417D01*
X2960Y-3418D01*
X3487Y-3418D01*
X3550Y-3355D01*
X3550Y-3905D01*
X2862Y-3905D01*
X2771Y-3942D01*
X2701Y-4011D01*
X2689Y-4042D01*
X2689Y-3772D01*
X2626Y-3710D01*
X1800Y-3710D01*
X1800Y-4536D01*
X1862Y-4599D01*
X2389Y-4599D01*
X2488Y-4598D01*
X2580Y-4560D01*
X2651Y-4490D01*
X2664Y-4458D01*
X2664Y-5578D01*
X2701Y-5669D01*
X2770Y-5739D01*
X2861Y-5776D01*
X2959Y-5776D01*
X2959Y-6350D01*
X2959Y-6350D01*
X2959Y-6476D01*
X3008Y-6595D01*
X3008Y-6595D01*
X3008Y-6595D01*
X3056Y-6712D01*
X3147Y-6802D01*
X3147Y-6802D01*
X3147Y-6802D01*
X3236Y-6892D01*
X3354Y-6941D01*
X3354Y-6941D01*
X3472Y-6990D01*
X3599Y-6990D01*
X3600Y-6990D01*
X3600Y-6990D01*
X3726Y-6990D01*
X3845Y-6941D01*
X3845Y-6941D01*
X3845Y-6941D01*
X3962Y-6893D01*
X4052Y-6802D01*
X4052Y-6802D01*
X4052Y-6802D01*
X4142Y-6713D01*
X4191Y-6595D01*
X4191Y-6595D01*
X4191Y-6595D01*
X4240Y-6477D01*
X4240Y-6350D01*
X4240Y-6350D01*
X4240Y-6349D01*
X4240Y-6223D01*
X4240Y-6222D01*
X4240Y-5776D01*
X4337Y-5776D01*
X4428Y-5739D01*
X4498Y-5670D01*
X4535Y-5579D01*
X4535Y-5481D01*
X4535Y-7959D01*
X3150Y-7959D01*
X2904Y-8008D01*
X2731Y-8124D01*
X2731Y-6756D01*
X2544Y-6303D01*
X2198Y-5956D01*
X1745Y-5769D01*
X1700Y-5769D01*
X1700Y-4536D01*
X1700Y-3710D01*
X1700Y-3610D01*
X1700Y-2783D01*
X1637Y-2721D01*
X1110Y-2720D01*
X1011Y-2721D01*
X919Y-2759D01*
X848Y-2829D01*
X810Y-2921D01*
X811Y-3547D01*
X873Y-3610D01*
X1700Y-3610D01*
X1700Y-3710D01*
X873Y-3710D01*
X811Y-3772D01*
X810Y-4398D01*
X848Y-4490D01*
X919Y-4560D01*
X1011Y-4598D01*
X1110Y-4599D01*
X1637Y-4599D01*
X1700Y-4536D01*
X1700Y-5769D01*
X1256Y-5768D01*
X803Y-5955D01*
X456Y-6301D01*
X269Y-6754D01*
X268Y-7243D01*
X455Y-7696D01*
X801Y-8043D01*
X1254Y-8230D01*
X1743Y-8231D01*
X2196Y-8044D01*
X2543Y-7698D01*
X2730Y-7245D01*
X2731Y-6756D01*
X2731Y-8124D01*
X2697Y-8147D01*
X1347Y-9497D01*
X1208Y-9704D01*
X1159Y-9950D01*
X1159Y-15450D01*
X1208Y-15695D01*
X1347Y-15902D01*
X2669Y-17224D01*
X1397Y-18497D01*
X1258Y-18704D01*
X1209Y-18950D01*
X1209Y-23650D01*
X1258Y-23895D01*
X1397Y-24102D01*
X1563Y-24268D01*
X1256Y-24268D01*
X803Y-24455D01*
X456Y-24801D01*
X269Y-25254D01*
X268Y-25743D01*
X455Y-26196D01*
X801Y-26543D01*
X1254Y-26730D01*
X1743Y-26731D01*
X2196Y-26544D01*
X2543Y-26198D01*
X2730Y-25745D01*
X2731Y-25437D01*
X3397Y-26102D01*
X3397Y-26102D01*
X3604Y-26241D01*
X3604Y-26241D01*
X3801Y-26280D01*
X3849Y-26290D01*
X3849Y-26290D01*
X3850Y-26290D01*
X5256Y-26290D01*
X5305Y-26290D01*
X6092Y-26290D01*
X6092Y-26290D01*
X6750Y-26290D01*
X6995Y-26241D01*
X7202Y-26102D01*
X7817Y-25488D01*
X7870Y-25466D01*
X7870Y-25466D01*
X7870Y-25466D01*
X7987Y-25418D01*
X8077Y-25327D01*
X8077Y-25327D01*
X8077Y-25327D01*
X8167Y-25238D01*
X8216Y-25120D01*
X8216Y-25120D01*
X8216Y-25120D01*
X8265Y-25002D01*
X8265Y-24875D01*
X8265Y-24875D01*
X8265Y-24874D01*
X8265Y-24748D01*
X8216Y-24629D01*
X8216Y-24629D01*
X8216Y-24629D01*
X8168Y-24512D01*
X8077Y-24422D01*
X8077Y-24422D01*
X8077Y-24422D01*
X8001Y-24345D01*
X8008Y-24328D01*
X7625Y-23945D01*
X7554Y-24016D01*
X7289Y-24281D01*
X7279Y-24283D01*
X7072Y-24422D01*
X7072Y-24422D01*
X6484Y-25009D01*
X6167Y-25009D01*
X6208Y-24994D01*
X6297Y-24754D01*
X6288Y-24498D01*
X6208Y-24305D01*
X6103Y-24266D01*
X6033Y-24337D01*
X6033Y-24196D01*
X5994Y-24091D01*
X5754Y-24002D01*
X5498Y-24011D01*
X5305Y-24091D01*
X5266Y-24196D01*
X5650Y-24579D01*
X6033Y-24196D01*
X6033Y-24337D01*
X5720Y-24650D01*
X5726Y-24655D01*
X5655Y-24726D01*
X5650Y-24720D01*
X5644Y-24726D01*
X5573Y-24655D01*
X5579Y-24650D01*
X5196Y-24266D01*
X5091Y-24305D01*
X5002Y-24545D01*
X5011Y-24801D01*
X5091Y-24994D01*
X5132Y-25009D01*
X4115Y-25009D01*
X2490Y-23384D01*
X2490Y-19215D01*
X4115Y-17590D01*
X5256Y-17590D01*
X5305Y-17590D01*
X6092Y-17590D01*
X6092Y-17590D01*
X6450Y-17590D01*
X6695Y-17541D01*
X6902Y-17402D01*
X7540Y-16765D01*
X7625Y-16765D01*
X7625Y-16765D01*
X7751Y-16765D01*
X7870Y-16716D01*
X7870Y-16716D01*
X7870Y-16716D01*
X7987Y-16668D01*
X8077Y-16577D01*
X8077Y-16577D01*
X8077Y-16577D01*
X8167Y-16488D01*
X8216Y-16370D01*
X8216Y-16370D01*
X8216Y-16370D01*
X8265Y-16252D01*
X8265Y-16125D01*
X8265Y-16125D01*
X8265Y-16124D01*
X8265Y-15998D01*
X8216Y-15879D01*
X8216Y-15879D01*
X8216Y-15879D01*
X8168Y-15762D01*
X8077Y-15672D01*
X8077Y-15672D01*
X8077Y-15672D01*
X8001Y-15595D01*
X8008Y-15578D01*
X7625Y-15195D01*
X7619Y-15201D01*
X7548Y-15130D01*
X7554Y-15125D01*
X7548Y-15119D01*
X7619Y-15048D01*
X7625Y-15054D01*
X8008Y-14671D01*
X8001Y-14654D01*
X8077Y-14577D01*
X8077Y-14577D01*
X8077Y-14577D01*
X8167Y-14488D01*
X8216Y-14370D01*
X8216Y-14370D01*
X8216Y-14370D01*
X8265Y-14252D01*
X8265Y-14125D01*
X8265Y-14125D01*
X8265Y-14124D01*
X8265Y-13998D01*
X8216Y-13879D01*
X8216Y-13879D01*
X8216Y-13879D01*
X8168Y-13762D01*
X8077Y-13672D01*
X8077Y-13672D01*
X8077Y-13672D01*
X8030Y-13624D01*
X8077Y-13577D01*
X8077Y-13577D01*
X8077Y-13577D01*
X8167Y-13488D01*
X8216Y-13370D01*
X8216Y-13370D01*
X8216Y-13370D01*
X8265Y-13252D01*
X8265Y-13125D01*
X8265Y-13125D01*
X8265Y-13124D01*
X8265Y-12998D01*
X8216Y-12879D01*
X8216Y-12879D01*
X8216Y-12879D01*
X8168Y-12762D01*
X8077Y-12672D01*
X8077Y-12672D01*
X8077Y-12672D01*
X8030Y-12624D01*
X8077Y-12577D01*
X8077Y-12577D01*
X8077Y-12577D01*
X8167Y-12488D01*
X8216Y-12370D01*
X8216Y-12370D01*
X8216Y-12370D01*
X8265Y-12252D01*
X8265Y-12125D01*
X8265Y-12125D01*
X8265Y-12124D01*
X8265Y-11998D01*
X8216Y-11879D01*
X8216Y-11879D01*
X8216Y-11879D01*
X8168Y-11762D01*
X8077Y-11672D01*
X8077Y-11672D01*
X8077Y-11672D01*
X8030Y-11624D01*
X8077Y-11577D01*
X8077Y-11577D01*
X8077Y-11577D01*
X8167Y-11488D01*
X8216Y-11370D01*
X8216Y-11370D01*
X8216Y-11370D01*
X8265Y-11252D01*
X8265Y-11125D01*
X8265Y-11125D01*
X8265Y-11124D01*
X8265Y-10998D01*
X8216Y-10879D01*
X8216Y-10879D01*
X8216Y-10879D01*
X8168Y-10762D01*
X8077Y-10672D01*
X8077Y-10672D01*
X8077Y-10672D01*
X8030Y-10624D01*
X8062Y-10593D01*
X8566Y-10593D01*
X10022Y-12049D01*
X9036Y-13036D01*
X8940Y-13180D01*
X8906Y-13350D01*
X8906Y-17400D01*
X8940Y-17569D01*
X9036Y-17713D01*
X9728Y-18406D01*
X8272Y-18406D01*
X8272Y-17979D01*
X8272Y-15229D01*
X8263Y-14973D01*
X8183Y-14780D01*
X8078Y-14741D01*
X7695Y-15125D01*
X8078Y-15508D01*
X8183Y-15469D01*
X8272Y-15229D01*
X8272Y-17979D01*
X8263Y-17723D01*
X8183Y-17530D01*
X8078Y-17491D01*
X8008Y-17562D01*
X8008Y-17421D01*
X7969Y-17316D01*
X7729Y-17227D01*
X7473Y-17236D01*
X7280Y-17316D01*
X7241Y-17421D01*
X7625Y-17804D01*
X8008Y-17421D01*
X8008Y-17562D01*
X7695Y-17875D01*
X8078Y-18258D01*
X8183Y-18219D01*
X8272Y-17979D01*
X8272Y-18406D01*
X8062Y-18406D01*
X8001Y-18345D01*
X8008Y-18328D01*
X7625Y-17945D01*
X7554Y-18016D01*
X7554Y-17875D01*
X7171Y-17491D01*
X7066Y-17530D01*
X6977Y-17770D01*
X6986Y-18026D01*
X7066Y-18219D01*
X7171Y-18258D01*
X7554Y-17875D01*
X7554Y-18016D01*
X7241Y-18328D01*
X7248Y-18345D01*
X7082Y-18511D01*
X6984Y-18747D01*
X6984Y-19001D01*
X7070Y-19209D01*
X4200Y-19209D01*
X4199Y-19209D01*
X4073Y-19209D01*
X3954Y-19258D01*
X3954Y-19258D01*
X3954Y-19258D01*
X3837Y-19306D01*
X3747Y-19397D01*
X3747Y-19397D01*
X3747Y-19397D01*
X3657Y-19486D01*
X3608Y-19604D01*
X3608Y-19604D01*
X3608Y-19604D01*
X3559Y-19722D01*
X3559Y-19849D01*
X3559Y-19850D01*
X3559Y-19850D01*
X3559Y-19976D01*
X3608Y-20095D01*
X3608Y-20095D01*
X3608Y-20095D01*
X3656Y-20212D01*
X3747Y-20302D01*
X3747Y-20302D01*
X3747Y-20302D01*
X3794Y-20350D01*
X3747Y-20397D01*
X3747Y-20397D01*
X3747Y-20397D01*
X3657Y-20486D01*
X3608Y-20604D01*
X3608Y-20604D01*
X3608Y-20604D01*
X3559Y-20722D01*
X3559Y-20849D01*
X3559Y-20850D01*
X3559Y-20850D01*
X3559Y-20976D01*
X3608Y-21095D01*
X3608Y-21095D01*
X3608Y-21095D01*
X3656Y-21212D01*
X3747Y-21302D01*
X3747Y-21302D01*
X3747Y-21302D01*
X3794Y-21350D01*
X3747Y-21397D01*
X3747Y-21397D01*
X3747Y-21397D01*
X3657Y-21486D01*
X3608Y-21604D01*
X3608Y-21604D01*
X3608Y-21604D01*
X3559Y-21722D01*
X3559Y-21849D01*
X3559Y-21850D01*
X3559Y-21850D01*
X3559Y-21976D01*
X3608Y-22095D01*
X3608Y-22095D01*
X3608Y-22095D01*
X3656Y-22212D01*
X3683Y-22239D01*
X3666Y-22246D01*
X3597Y-22316D01*
X3559Y-22406D01*
X3559Y-22505D01*
X3559Y-23292D01*
X3596Y-23383D01*
X3666Y-23452D01*
X3756Y-23490D01*
X3855Y-23490D01*
X4642Y-23490D01*
X4642Y-23490D01*
X7169Y-23490D01*
X7171Y-23491D01*
X7066Y-23530D01*
X6977Y-23770D01*
X6986Y-24026D01*
X7066Y-24219D01*
X7171Y-24258D01*
X7554Y-23875D01*
X7548Y-23869D01*
X7619Y-23798D01*
X7625Y-23804D01*
X8008Y-23421D01*
X8001Y-23404D01*
X8077Y-23327D01*
X8167Y-23238D01*
X8216Y-23120D01*
X8216Y-23120D01*
X8216Y-23120D01*
X8265Y-23002D01*
X8265Y-22875D01*
X8265Y-22875D01*
X8265Y-22874D01*
X8265Y-22748D01*
X8216Y-22629D01*
X8216Y-22629D01*
X8216Y-22629D01*
X8168Y-22512D01*
X8077Y-22422D01*
X8030Y-22374D01*
X8077Y-22327D01*
X8167Y-22238D01*
X8216Y-22120D01*
X8216Y-22120D01*
X8216Y-22120D01*
X8265Y-22002D01*
X8265Y-21875D01*
X8265Y-21875D01*
X8265Y-21874D01*
X8265Y-21748D01*
X8216Y-21629D01*
X8216Y-21629D01*
X8216Y-21629D01*
X8168Y-21512D01*
X8077Y-21422D01*
X8030Y-21374D01*
X8077Y-21327D01*
X8167Y-21238D01*
X8216Y-21120D01*
X8216Y-21120D01*
X8216Y-21120D01*
X8265Y-21002D01*
X8265Y-20875D01*
X8265Y-20875D01*
X8265Y-20874D01*
X8265Y-20748D01*
X8216Y-20629D01*
X8216Y-20629D01*
X8216Y-20629D01*
X8168Y-20512D01*
X8077Y-20422D01*
X8030Y-20374D01*
X8077Y-20327D01*
X8167Y-20238D01*
X8216Y-20120D01*
X8216Y-20120D01*
X8216Y-20120D01*
X8265Y-20002D01*
X8265Y-19875D01*
X8265Y-19875D01*
X8265Y-19874D01*
X8265Y-19748D01*
X8216Y-19629D01*
X8216Y-19629D01*
X8216Y-19629D01*
X8168Y-19512D01*
X8077Y-19422D01*
X8030Y-19374D01*
X8112Y-19293D01*
X10434Y-19293D01*
X10475Y-19334D01*
X10685Y-19421D01*
X10913Y-19421D01*
X11123Y-19335D01*
X11284Y-19174D01*
X11371Y-18964D01*
X11371Y-18736D01*
X11285Y-18526D01*
X11124Y-18365D01*
X10914Y-18278D01*
X10855Y-18278D01*
X9793Y-17216D01*
X9793Y-13533D01*
X10630Y-12696D01*
X10838Y-12696D01*
X11048Y-12610D01*
X11209Y-12449D01*
X11296Y-12239D01*
X11296Y-12011D01*
X11210Y-11801D01*
X11168Y-11760D01*
X11168Y-9508D01*
X11983Y-8693D01*
X12150Y-8693D01*
X12082Y-8761D01*
X11984Y-8997D01*
X11984Y-9251D01*
X12081Y-9487D01*
X12219Y-9625D01*
X12082Y-9761D01*
X11984Y-9997D01*
X11984Y-10251D01*
X12081Y-10487D01*
X12219Y-10625D01*
X12082Y-10761D01*
X11984Y-10997D01*
X11984Y-11251D01*
X12081Y-11487D01*
X12181Y-11587D01*
X12181Y-11662D01*
X12082Y-11761D01*
X11984Y-11997D01*
X11984Y-12251D01*
X12081Y-12487D01*
X12219Y-12625D01*
X12082Y-12761D01*
X11984Y-12997D01*
X11984Y-13251D01*
X12081Y-13487D01*
X12181Y-13587D01*
X12181Y-13662D01*
X12082Y-13761D01*
X11984Y-13997D01*
X11984Y-14251D01*
X12081Y-14487D01*
X12181Y-14587D01*
X12181Y-14662D01*
X12162Y-14681D01*
X11090Y-14681D01*
X11049Y-14640D01*
X10839Y-14553D01*
X10611Y-14553D01*
X10401Y-14639D01*
X10240Y-14800D01*
X10153Y-15010D01*
X10153Y-15238D01*
X10239Y-15448D01*
X10400Y-15609D01*
X10610Y-15696D01*
X10838Y-15696D01*
X11048Y-15610D01*
X11089Y-15568D01*
X12162Y-15568D01*
X12219Y-15625D01*
X12082Y-15761D01*
X11984Y-15997D01*
X11984Y-16251D01*
X12081Y-16487D01*
X12261Y-16667D01*
X12497Y-16765D01*
X12638Y-16765D01*
X13086Y-17213D01*
X13086Y-17213D01*
X13230Y-17309D01*
X13230Y-17309D01*
X13258Y-17315D01*
X13400Y-17343D01*
X14537Y-17343D01*
X14594Y-17400D01*
X14537Y-17456D01*
X13112Y-17456D01*
X12988Y-17332D01*
X12752Y-17234D01*
X12498Y-17234D01*
X12262Y-17331D01*
X12082Y-17511D01*
X11984Y-17747D01*
X11984Y-18001D01*
X12081Y-18237D01*
X12219Y-18375D01*
X12082Y-18511D01*
X11984Y-18747D01*
X11984Y-19001D01*
X12081Y-19237D01*
X12219Y-19375D01*
X12082Y-19511D01*
X11984Y-19747D01*
X11984Y-20001D01*
X12081Y-20237D01*
X12181Y-20337D01*
X12181Y-20412D01*
X12082Y-20511D01*
X11984Y-20747D01*
X11984Y-21001D01*
X12081Y-21237D01*
X12219Y-21375D01*
X12162Y-21431D01*
X11190Y-21431D01*
X11124Y-21365D01*
X10914Y-21278D01*
X10686Y-21278D01*
X10476Y-21364D01*
X10315Y-21525D01*
X10228Y-21735D01*
X10228Y-21963D01*
X10314Y-22173D01*
X10475Y-22334D01*
X10685Y-22421D01*
X10913Y-22421D01*
X11123Y-22335D01*
X11139Y-22318D01*
X12162Y-22318D01*
X12181Y-22337D01*
X12181Y-22412D01*
X12082Y-22511D01*
X11984Y-22747D01*
X11984Y-23001D01*
X12081Y-23237D01*
X12181Y-23337D01*
X12181Y-23412D01*
X12082Y-23511D01*
X11984Y-23747D01*
X11984Y-24001D01*
X12081Y-24237D01*
X12219Y-24375D01*
X12082Y-24511D01*
X11984Y-24747D01*
X11984Y-25001D01*
X12081Y-25237D01*
X12261Y-25417D01*
X12497Y-25515D01*
X12751Y-25515D01*
X12987Y-25418D01*
X13102Y-25303D01*
X13194Y-25284D01*
X13338Y-25188D01*
X13963Y-24563D01*
X14059Y-24419D01*
X14093Y-24250D01*
X14093Y-24250D01*
X14093Y-21033D01*
X14670Y-20456D01*
X14872Y-20540D01*
X15126Y-20540D01*
X15362Y-20443D01*
X15542Y-20263D01*
X15640Y-20027D01*
X15640Y-19773D01*
X15543Y-19537D01*
X15405Y-19399D01*
X15542Y-19263D01*
X15640Y-19027D01*
X15640Y-18773D01*
X15543Y-18537D01*
X15405Y-18399D01*
X15542Y-18263D01*
X15640Y-18027D01*
X15640Y-17773D01*
X15543Y-17537D01*
X15405Y-17399D01*
X15542Y-17263D01*
X15640Y-17027D01*
X15640Y-16773D01*
X15543Y-16537D01*
X15405Y-16399D01*
X15542Y-16263D01*
X15640Y-16027D01*
X15640Y-15773D01*
X15543Y-15537D01*
X15405Y-15399D01*
X15542Y-15263D01*
X15640Y-15027D01*
X15640Y-14773D01*
X15543Y-14537D01*
X15405Y-14399D01*
X15542Y-14263D01*
X15640Y-14027D01*
X15640Y-13773D01*
X15543Y-13537D01*
X15405Y-13399D01*
X15542Y-13263D01*
X15640Y-13027D01*
X15640Y-12773D01*
X15543Y-12537D01*
X15376Y-12370D01*
X15383Y-12353D01*
X15000Y-11970D01*
X14616Y-12353D01*
X14623Y-12370D01*
X14493Y-12500D01*
X14493Y-12263D01*
X14546Y-12283D01*
X14929Y-11900D01*
X14546Y-11516D01*
X14493Y-11536D01*
X14493Y-11299D01*
X14623Y-11429D01*
X14616Y-11446D01*
X15000Y-11829D01*
X15383Y-11446D01*
X15376Y-11429D01*
X15542Y-11263D01*
X15640Y-11027D01*
X15640Y-10773D01*
X15543Y-10537D01*
X15405Y-10399D01*
X15542Y-10263D01*
X15640Y-10027D01*
X15640Y-9773D01*
X15543Y-9537D01*
X15405Y-9399D01*
X15542Y-9263D01*
X15640Y-9027D01*
X15640Y-8773D01*
X15543Y-8537D01*
X15363Y-8357D01*
X15127Y-8259D01*
X14873Y-8259D01*
X14637Y-8356D01*
X14457Y-8536D01*
X14359Y-8772D01*
X14359Y-9026D01*
X14456Y-9262D01*
X14594Y-9400D01*
X14457Y-9536D01*
X14359Y-9772D01*
X14359Y-9832D01*
X13338Y-8811D01*
X13194Y-8715D01*
X13102Y-8696D01*
X13099Y-8693D01*
X13850Y-8693D01*
X14019Y-8659D01*
X14163Y-8563D01*
X15413Y-7313D01*
X15509Y-7169D01*
X15543Y-7000D01*
X15543Y-7000D01*
X15543Y-3650D01*
X15543Y-3649D01*
X15509Y-3480D01*
X15509Y-3480D01*
X15478Y-3432D01*
X15413Y-3336D01*
X15413Y-3336D01*
X14171Y-2093D01*
X14216Y-2093D01*
X16256Y-4133D01*
X16256Y-7950D01*
X16290Y-8119D01*
X16386Y-8263D01*
X20336Y-12213D01*
X20336Y-12213D01*
X20432Y-12278D01*
X20480Y-12309D01*
X20480Y-12309D01*
X20510Y-12315D01*
X20594Y-12400D01*
X20537Y-12456D01*
X17165Y-12456D01*
X17124Y-12415D01*
X16914Y-12328D01*
X16686Y-12328D01*
X16476Y-12414D01*
X16315Y-12575D01*
X16228Y-12785D01*
X16228Y-13013D01*
X16314Y-13223D01*
X16475Y-13384D01*
X16685Y-13471D01*
X16913Y-13471D01*
X17123Y-13385D01*
X17164Y-13343D01*
X20537Y-13343D01*
X20594Y-13400D01*
X20457Y-13536D01*
X20359Y-13772D01*
X20359Y-14026D01*
X20456Y-14262D01*
X20594Y-14400D01*
X20537Y-14456D01*
X20300Y-14456D01*
X20130Y-14490D01*
X20082Y-14521D01*
X19986Y-14586D01*
X17243Y-17328D01*
X17243Y-16265D01*
X17284Y-16224D01*
X17371Y-16014D01*
X17371Y-15786D01*
X17285Y-15576D01*
X17124Y-15415D01*
X16914Y-15328D01*
X16686Y-15328D01*
X16476Y-15414D01*
X16315Y-15575D01*
X16228Y-15785D01*
X16228Y-16013D01*
X16314Y-16223D01*
X16356Y-16264D01*
X16356Y-20466D01*
X15647Y-21174D01*
X15647Y-12004D01*
X15638Y-11748D01*
X15558Y-11555D01*
X15453Y-11516D01*
X15070Y-11900D01*
X15453Y-12283D01*
X15558Y-12244D01*
X15647Y-12004D01*
X15647Y-21174D01*
X15236Y-21586D01*
X15140Y-21730D01*
X15106Y-21900D01*
X15106Y-22127D01*
X15061Y-22172D01*
X14973Y-22384D01*
X14973Y-22614D01*
X15060Y-22826D01*
X15222Y-22988D01*
X15243Y-22997D01*
X15213Y-23092D01*
X15550Y-23429D01*
X15886Y-23092D01*
X15856Y-22997D01*
X15876Y-22989D01*
X16038Y-22827D01*
X16126Y-22615D01*
X16126Y-22385D01*
X16039Y-22173D01*
X15993Y-22127D01*
X15993Y-22083D01*
X17056Y-21021D01*
X17056Y-21859D01*
X16966Y-21896D01*
X16897Y-21966D01*
X16859Y-22056D01*
X16859Y-22155D01*
X16859Y-22942D01*
X16896Y-23033D01*
X16966Y-23102D01*
X17056Y-23140D01*
X17155Y-23140D01*
X17942Y-23140D01*
X18033Y-23103D01*
X18102Y-23033D01*
X18125Y-22978D01*
X18155Y-23058D01*
X18395Y-23147D01*
X18651Y-23138D01*
X18844Y-23058D01*
X18883Y-22953D01*
X18500Y-22570D01*
X18494Y-22576D01*
X18423Y-22505D01*
X18429Y-22500D01*
X18423Y-22494D01*
X18494Y-22423D01*
X18500Y-22429D01*
X18883Y-22046D01*
X18844Y-21941D01*
X18604Y-21852D01*
X18348Y-21861D01*
X18155Y-21941D01*
X18125Y-22021D01*
X18103Y-21966D01*
X18033Y-21897D01*
X17943Y-21859D01*
X17943Y-17883D01*
X20483Y-15343D01*
X20537Y-15343D01*
X20594Y-15400D01*
X20522Y-15471D01*
X20430Y-15490D01*
X20382Y-15521D01*
X20286Y-15586D01*
X19586Y-16286D01*
X19490Y-16430D01*
X19456Y-16600D01*
X19456Y-21907D01*
X19397Y-21966D01*
X19359Y-22056D01*
X19359Y-22155D01*
X19359Y-22942D01*
X19396Y-23033D01*
X19466Y-23102D01*
X19556Y-23140D01*
X19655Y-23140D01*
X20442Y-23140D01*
X20533Y-23103D01*
X20602Y-23033D01*
X20625Y-22978D01*
X20655Y-23058D01*
X20895Y-23147D01*
X21151Y-23138D01*
X21344Y-23058D01*
X21383Y-22953D01*
X21000Y-22570D01*
X20994Y-22576D01*
X20923Y-22505D01*
X20929Y-22500D01*
X20923Y-22494D01*
X20994Y-22423D01*
X21000Y-22429D01*
X21383Y-22046D01*
X21344Y-21941D01*
X21104Y-21852D01*
X20848Y-21861D01*
X20655Y-21941D01*
X20625Y-22021D01*
X20603Y-21966D01*
X20533Y-21897D01*
X20443Y-21859D01*
X20344Y-21859D01*
X20343Y-21859D01*
X20343Y-16783D01*
X20362Y-16765D01*
X20359Y-16772D01*
X20359Y-17026D01*
X20456Y-17262D01*
X20594Y-17400D01*
X20457Y-17536D01*
X20359Y-17772D01*
X20359Y-18026D01*
X20456Y-18262D01*
X20594Y-18400D01*
X20457Y-18536D01*
X20359Y-18772D01*
X20359Y-19026D01*
X20456Y-19262D01*
X20594Y-19400D01*
X20457Y-19536D01*
X20359Y-19772D01*
X20359Y-20026D01*
X20456Y-20262D01*
X20636Y-20442D01*
X20872Y-20540D01*
X21126Y-20540D01*
X21362Y-20443D01*
X21542Y-20263D01*
X21640Y-20027D01*
X21640Y-19773D01*
X21543Y-19537D01*
X21405Y-19399D01*
X21542Y-19263D01*
X21640Y-19027D01*
X21640Y-18773D01*
X21543Y-18537D01*
X21405Y-18399D01*
X21542Y-18263D01*
X21640Y-18027D01*
X21640Y-17773D01*
X21543Y-17537D01*
X21405Y-17399D01*
X21542Y-17263D01*
X21640Y-17027D01*
X21640Y-16773D01*
X21543Y-16537D01*
X21405Y-16399D01*
X21542Y-16263D01*
X21640Y-16027D01*
X21640Y-15773D01*
X21543Y-15537D01*
X21405Y-15399D01*
X21542Y-15263D01*
X21640Y-15027D01*
X21640Y-14773D01*
X21543Y-14537D01*
X21405Y-14399D01*
X21462Y-14343D01*
X22300Y-14343D01*
X22469Y-14309D01*
X22613Y-14213D01*
X22681Y-14146D01*
X22696Y-14183D01*
X22766Y-14252D01*
X22856Y-14290D01*
X22955Y-14290D01*
X23742Y-14290D01*
X23833Y-14253D01*
X23902Y-14183D01*
X23940Y-14093D01*
X23940Y-13994D01*
X23940Y-13207D01*
X23903Y-13116D01*
X23833Y-13047D01*
X23816Y-13039D01*
X23842Y-13013D01*
X23940Y-12777D01*
X23940Y-12523D01*
X23940Y-24349D01*
X23745Y-24269D01*
X23256Y-24268D01*
X22803Y-24455D01*
X22456Y-24801D01*
X22269Y-25254D01*
X22268Y-25743D01*
X22455Y-26196D01*
X22801Y-26543D01*
X23254Y-26730D01*
X23743Y-26731D01*
X24196Y-26544D01*
X24543Y-26198D01*
X24730Y-25745D01*
X24731Y-25256D01*
X24731Y-26950D01*
X22231Y-26950D01*
X22231Y-24512D01*
X21647Y-24512D01*
X21647Y-22604D01*
X21638Y-22348D01*
X21558Y-22155D01*
X21453Y-22116D01*
X21070Y-22500D01*
X21453Y-22883D01*
X21558Y-22844D01*
X21647Y-22604D01*
X21647Y-24512D01*
X19147Y-24512D01*
X19147Y-22604D01*
X19138Y-22348D01*
X19058Y-22155D01*
X18953Y-22116D01*
X18570Y-22500D01*
X18953Y-22883D01*
X19058Y-22844D01*
X19147Y-22604D01*
X19147Y-24512D01*
X16134Y-24512D01*
X16134Y-23588D01*
X16124Y-23358D01*
X16056Y-23194D01*
X15957Y-23163D01*
X15620Y-23500D01*
X15957Y-23836D01*
X16056Y-23805D01*
X16134Y-23588D01*
X16134Y-24512D01*
X15886Y-24512D01*
X15886Y-23907D01*
X15550Y-23570D01*
X15479Y-23641D01*
X15479Y-23500D01*
X15142Y-23163D01*
X15043Y-23194D01*
X14965Y-23411D01*
X14975Y-23641D01*
X15043Y-23805D01*
X15142Y-23836D01*
X15479Y-23500D01*
X15479Y-23641D01*
X15213Y-23907D01*
X15244Y-24006D01*
X15461Y-24084D01*
X15691Y-24074D01*
X15855Y-24006D01*
X15886Y-23907D01*
X15886Y-24512D01*
X14768Y-24512D01*
X14768Y-26950D01*
X8272Y-26950D01*
X8272Y-23979D01*
X8263Y-23723D01*
X8183Y-23530D01*
X8078Y-23491D01*
X7695Y-23875D01*
X8078Y-24258D01*
X8183Y-24219D01*
X8272Y-23979D01*
X8272Y-26950D01*
X50Y-26950D01*
X50Y-50D01*
X18570Y-50D01*
X16730Y-1889D01*
X23110Y-8269D01*
X24950Y-6429D01*
X24950Y-26950D01*
M02*
