M48
;DRILL file {Pcbnew (2013-may-18)-stable} date Thu 03 Apr 2014 02:12:59 PM EEST
;FORMAT={-:-/ absolute / metric / decimal}
FMAT,2
METRIC,TZ
T1C0.800
T2C0.813
T3C1.000
T4C1.001
T5C3.000
%
G90
G05
M71
T1
X9.144Y-16.129
X14.351Y-40.513
X14.351Y-43.053
X14.351Y-62.611
X14.351Y-65.151
X16.764Y-16.129
X33.274Y-13.589
X33.274Y-16.129
T2
X26.543Y-6.858
X27.241Y-30.797
X27.241Y-38.417
X27.432Y-47.879
X27.432Y-55.499
X31.623Y-6.858
X39.497Y-57.15
X39.497Y-59.69
X42.672Y-32.766
X42.672Y-40.386
T3
X10.668Y-50.419
X10.668Y-52.959
X10.668Y-55.499
X10.668Y-58.039
X10.731Y-28.258
X10.731Y-30.797
X10.731Y-33.337
X10.731Y-35.877
X19.177Y-5.969
X19.177Y-16.129
X19.367Y-23.177
X19.367Y-25.717
X19.367Y-28.258
X19.367Y-30.797
X19.367Y-33.337
X19.367Y-35.877
X19.367Y-38.417
X19.367Y-40.957
X19.367Y-45.402
X19.367Y-47.942
X19.367Y-50.482
X19.367Y-53.023
X19.367Y-55.562
X19.367Y-58.102
X19.367Y-60.642
X19.367Y-63.182
X26.543Y-11.049
X26.543Y-13.589
X26.543Y-16.129
X32.067Y-23.177
X32.067Y-25.717
X32.067Y-28.258
X32.067Y-30.797
X32.067Y-33.337
X32.067Y-35.877
X32.067Y-38.417
X32.067Y-40.957
X32.067Y-45.402
X32.067Y-47.942
X32.067Y-50.482
X32.067Y-53.023
X32.067Y-55.562
X32.067Y-58.102
X32.067Y-60.642
X32.067Y-63.182
X38.1Y-22.606
X38.1Y-25.146
X38.1Y-27.686
X38.1Y-30.226
X38.1Y-32.766
X38.1Y-35.306
X38.1Y-37.846
X38.1Y-40.386
X38.1Y-42.926
X38.1Y-45.466
X38.1Y-48.006
X38.1Y-50.546
X44.45Y-57.15
X46.99Y-57.15
X50.8Y-57.15
X53.34Y-22.606
X53.34Y-25.146
X53.34Y-27.686
X53.34Y-30.226
X53.34Y-32.766
X53.34Y-35.306
X53.34Y-37.846
X53.34Y-40.386
X53.34Y-42.926
X53.34Y-45.466
X53.34Y-48.006
X53.34Y-50.546
X53.34Y-57.15
X59.182Y-29.591
X59.182Y-32.131
X59.182Y-34.671
T5
X3.81Y-17.78
X3.81Y-64.77
X59.69Y-3.81
X59.69Y-64.77
T4
X4.445Y-8.297G85X4.445Y-10.296
G05
X10.143Y-6.297G85X8.145Y-6.297
G05
X10.143Y-12.296G85X8.145Y-12.296
G05
T0
M30
