solid Egg Cup Drive
facet normal 0.5 -0.866025403784439 0.0
outer loop
vertex 3.0 -5.19615242270663 37.0
vertex 1.55291427061513 -5.79555495773441 31.0
vertex 3.0 -5.19615242270663 31.0
endloop
endfacet
facet normal 0.258819045102521 -0.965925826289068 0.0
outer loop
vertex 1.55291427061513 -5.79555495773441 31.0
vertex 3.0 -5.19615242270663 37.0
vertex 1.55291427061513 -5.79555495773441 37.0
endloop
endfacet
facet normal 0.258819045102521 -0.965925826289068 0.0
outer loop
vertex 1.55291427061513 -5.79555495773441 37.0
vertex 1.40998324127395e-015 -6.0 31.0
vertex 1.55291427061513 -5.79555495773441 31.0
endloop
endfacet
facet normal 1.24755538539057e-016 -1.0 0.0
outer loop
vertex 1.40998324127395e-015 -6.0 31.0
vertex 1.55291427061513 -5.79555495773441 37.0
vertex 1.40998324127395e-015 -6.0 37.0
endloop
endfacet
facet normal 1.24755538539057e-016 -1.0 0.0
outer loop
vertex 1.40998324127395e-015 -6.0 37.0
vertex -1.55291427061512 -5.79555495773441 31.0
vertex 1.40998324127395e-015 -6.0 31.0
endloop
endfacet
facet normal -0.25881904510252 -0.965925826289068 0.0
outer loop
vertex -1.55291427061512 -5.79555495773441 31.0
vertex 1.40998324127395e-015 -6.0 37.0
vertex -1.55291427061512 -5.79555495773441 37.0
endloop
endfacet
facet normal -0.25881904510252 -0.965925826289068 0.0
outer loop
vertex -1.55291427061512 -5.79555495773441 37.0
vertex -3.0 -5.19615242270663 31.0
vertex -1.55291427061512 -5.79555495773441 31.0
endloop
endfacet
facet normal -0.499999999999999 -0.866025403784439 0.0
outer loop
vertex -3.0 -5.19615242270663 31.0
vertex -1.55291427061512 -5.79555495773441 37.0
vertex -3.0 -5.19615242270663 37.0
endloop
endfacet
facet normal -0.499999999999999 -0.866025403784439 0.0
outer loop
vertex -3.0 -5.19615242270663 37.0
vertex -4.24264068711928 -4.24264068711929 31.0
vertex -3.0 -5.19615242270663 31.0
endloop
endfacet
facet normal -0.707106781186547 -0.707106781186548 0.0
outer loop
vertex -4.24264068711928 -4.24264068711929 31.0
vertex -3.0 -5.19615242270663 37.0
vertex -4.24264068711928 -4.24264068711929 37.0
endloop
endfacet
facet normal 0.707106781186548 -0.707106781186547 0.0
outer loop
vertex -2.12132034355964 2.12132034355964 30.0
vertex -2.59807621135332 1.5 37.0
vertex -2.59807621135332 1.5 30.0
endloop
endfacet
facet normal 0.866025403784439 -0.499999999999999 0.0
outer loop
vertex -2.59807621135332 1.5 37.0
vertex -2.12132034355964 2.12132034355964 30.0
vertex -2.12132034355964 2.12132034355964 37.0
endloop
endfacet
facet normal -1.33666648434704e-016 -1.0 0.0
outer loop
vertex 0.0 3.0 37.0
vertex -0.776457135307564 2.89777747886721 30.0
vertex 0.0 3.0 30.0
endloop
endfacet
facet normal 0.258819045102521 -0.965925826289068 0.0
outer loop
vertex -0.776457135307564 2.89777747886721 30.0
vertex 0.0 3.0 37.0
vertex -0.776457135307564 2.89777747886721 37.0
endloop
endfacet
facet normal 0.258819045102521 -0.965925826289068 0.0
outer loop
vertex -0.776457135307564 2.89777747886721 37.0
vertex -1.5 2.59807621135331 30.0
vertex -0.776457135307564 2.89777747886721 30.0
endloop
endfacet
facet normal 0.5 -0.866025403784439 0.0
outer loop
vertex -1.5 2.59807621135331 30.0
vertex -0.776457135307564 2.89777747886721 37.0
vertex -1.5 2.59807621135331 37.0
endloop
endfacet
facet normal 0.258819045102521 0.965925826289068 0.0
outer loop
vertex 1.55291427061512 5.79555495773441 37.0
vertex 3.0 5.19615242270663 31.0
vertex 1.55291427061512 5.79555495773441 31.0
endloop
endfacet
facet normal 0.5 0.866025403784439 0.0
outer loop
vertex 3.0 5.19615242270663 31.0
vertex 1.55291427061512 5.79555495773441 37.0
vertex 3.0 5.19615242270663 37.0
endloop
endfacet
facet normal 0.5 0.866025403784439 0.0
outer loop
vertex 3.0 5.19615242270663 37.0
vertex 4.24264068711929 4.24264068711928 31.0
vertex 3.0 5.19615242270663 31.0
endloop
endfacet
facet normal 0.707106781186548 0.707106781186547 0.0
outer loop
vertex 4.24264068711929 4.24264068711928 31.0
vertex 3.0 5.19615242270663 37.0
vertex 4.24264068711929 4.24264068711928 37.0
endloop
endfacet
facet normal -0.707106781186548 0.707106781186547 0.0
outer loop
vertex -4.24264068711929 4.24264068711928 37.0
vertex -5.19615242270663 3.0 31.0
vertex -5.19615242270663 3.0 37.0
endloop
endfacet
facet normal -0.866025403784439 0.499999999999999 0.0
outer loop
vertex -5.19615242270663 3.0 31.0
vertex -4.24264068711929 4.24264068711928 37.0
vertex -4.24264068711929 4.24264068711928 31.0
endloop
endfacet
facet normal -0.866025403784438 -0.500000000000001 0.0
outer loop
vertex -5.19615242270663 -3.0 37.0
vertex -4.24264068711928 -4.24264068711929 31.0
vertex -4.24264068711928 -4.24264068711929 37.0
endloop
endfacet
facet normal -0.707106781186547 -0.707106781186548 0.0
outer loop
vertex -4.24264068711928 -4.24264068711929 31.0
vertex -5.19615242270663 -3.0 37.0
vertex -5.19615242270663 -3.0 31.0
endloop
endfacet
facet normal 0.5 -0.866025403784439 0.0
outer loop
vertex -1.5 2.59807621135331 37.0
vertex -2.12132034355964 2.12132034355964 30.0
vertex -1.5 2.59807621135331 30.0
endloop
endfacet
facet normal 0.707106781186548 -0.707106781186547 0.0
outer loop
vertex -2.12132034355964 2.12132034355964 30.0
vertex -1.5 2.59807621135331 37.0
vertex -2.12132034355964 2.12132034355964 37.0
endloop
endfacet
facet normal -1.0 1.1584442864341e-016 0.0
outer loop
vertex 3.0 0.0 37.0
vertex 2.89777747886721 -0.776457135307561 30.0
vertex 2.89777747886721 -0.776457135307561 37.0
endloop
endfacet
facet normal -0.965925826289068 0.258819045102521 0.0
outer loop
vertex 2.89777747886721 -0.776457135307561 30.0
vertex 3.0 0.0 37.0
vertex 3.0 0.0 30.0
endloop
endfacet
facet normal -0.965925826289068 0.258819045102521 0.0
outer loop
vertex 2.89777747886721 -0.776457135307561 37.0
vertex 2.59807621135332 -1.5 30.0
vertex 2.59807621135332 -1.5 37.0
endloop
endfacet
facet normal -0.866025403784439 0.499999999999999 0.0
outer loop
vertex 2.59807621135332 -1.5 30.0
vertex 2.89777747886721 -0.776457135307561 37.0
vertex 2.89777747886721 -0.776457135307561 30.0
endloop
endfacet
facet normal -0.866025403784439 0.499999999999999 0.0
outer loop
vertex 2.59807621135332 -1.5 37.0
vertex 2.12132034355964 -2.12132034355964 30.0
vertex 2.12132034355964 -2.12132034355964 37.0
endloop
endfacet
facet normal -0.707106781186548 0.707106781186547 -6.4932168292403e-032
outer loop
vertex 2.12132034355964 -2.12132034355964 30.0
vertex 2.59807621135332 -1.5 37.0
vertex 2.59807621135332 -1.5 30.0
endloop
endfacet
facet normal -0.5 0.866025403784439 -6.4932168292403e-032
outer loop
vertex 1.5 -2.59807621135332 37.0
vertex 2.12132034355964 -2.12132034355964 30.0
vertex 1.5 -2.59807621135332 30.0
endloop
endfacet
facet normal -0.707106781186548 0.707106781186547 -6.4932168292403e-032
outer loop
vertex 2.12132034355964 -2.12132034355964 30.0
vertex 1.5 -2.59807621135332 37.0
vertex 2.12132034355964 -2.12132034355964 37.0
endloop
endfacet
facet normal -0.258819045102521 -0.965925826289068 0.0
outer loop
vertex 0.776457135307563 2.89777747886721 37.0
vertex 0.0 3.0 30.0
vertex 0.776457135307563 2.89777747886721 30.0
endloop
endfacet
facet normal -1.33666648434704e-016 -1.0 0.0
outer loop
vertex 0.0 3.0 30.0
vertex 0.776457135307563 2.89777747886721 37.0
vertex 0.0 3.0 37.0
endloop
endfacet
facet normal -0.5 -0.866025403784438 0.0
outer loop
vertex 1.5 2.59807621135332 37.0
vertex 0.776457135307563 2.89777747886721 30.0
vertex 1.5 2.59807621135332 30.0
endloop
endfacet
facet normal -0.258819045102521 -0.965925826289068 0.0
outer loop
vertex 0.776457135307563 2.89777747886721 30.0
vertex 1.5 2.59807621135332 37.0
vertex 0.776457135307563 2.89777747886721 37.0
endloop
endfacet
facet normal -0.707106781186548 -0.707106781186548 0.0
outer loop
vertex 2.12132034355964 2.12132034355964 37.0
vertex 1.5 2.59807621135332 30.0
vertex 2.12132034355964 2.12132034355964 30.0
endloop
endfacet
facet normal -0.5 -0.866025403784438 0.0
outer loop
vertex 1.5 2.59807621135332 30.0
vertex 2.12132034355964 2.12132034355964 37.0
vertex 1.5 2.59807621135332 37.0
endloop
endfacet
facet normal -0.707106781186548 -0.707106781186548 0.0
outer loop
vertex 2.12132034355964 2.12132034355964 37.0
vertex 2.59807621135332 1.5 30.0
vertex 2.59807621135332 1.5 37.0
endloop
endfacet
facet normal -0.866025403784438 -0.5 0.0
outer loop
vertex 2.59807621135332 1.5 30.0
vertex 2.12132034355964 2.12132034355964 37.0
vertex 2.12132034355964 2.12132034355964 30.0
endloop
endfacet
facet normal -0.866025403784438 -0.5 0.0
outer loop
vertex 2.59807621135332 1.5 37.0
vertex 2.89777747886721 0.776457135307563 30.0
vertex 2.89777747886721 0.776457135307563 37.0
endloop
endfacet
facet normal -0.965925826289068 -0.258819045102521 0.0
outer loop
vertex 2.89777747886721 0.776457135307563 30.0
vertex 2.59807621135332 1.5 37.0
vertex 2.59807621135332 1.5 30.0
endloop
endfacet
facet normal 0.866025403784438 0.500000000000001 0.0
outer loop
vertex -2.59807621135332 -1.5 30.0
vertex -2.12132034355964 -2.12132034355964 37.0
vertex -2.12132034355964 -2.12132034355964 30.0
endloop
endfacet
facet normal 0.707106781186547 0.707106781186548 0.0
outer loop
vertex -2.12132034355964 -2.12132034355964 37.0
vertex -2.59807621135332 -1.5 30.0
vertex -2.59807621135332 -1.5 37.0
endloop
endfacet
facet normal 0.965925826289068 0.258819045102521 0.0
outer loop
vertex -2.89777747886721 -0.776457135307564 30.0
vertex -2.59807621135332 -1.5 37.0
vertex -2.59807621135332 -1.5 30.0
endloop
endfacet
facet normal 0.866025403784438 0.500000000000001 0.0
outer loop
vertex -2.59807621135332 -1.5 37.0
vertex -2.89777747886721 -0.776457135307564 30.0
vertex -2.89777747886721 -0.776457135307564 37.0
endloop
endfacet
facet normal -6.59422132277871e-016 1.0 0.0
outer loop
vertex 0.0 6.0 37.0
vertex 1.55291427061512 5.79555495773441 31.0
vertex 0.0 6.0 31.0
endloop
endfacet
facet normal 0.258819045102521 0.965925826289068 0.0
outer loop
vertex 1.55291427061512 5.79555495773441 31.0
vertex 0.0 6.0 37.0
vertex 1.55291427061512 5.79555495773441 37.0
endloop
endfacet
facet normal -0.707106781186548 0.707106781186547 0.0
outer loop
vertex -4.24264068711929 4.24264068711928 37.0
vertex -3.0 5.19615242270663 31.0
vertex -4.24264068711929 4.24264068711928 31.0
endloop
endfacet
facet normal -0.5 0.866025403784439 0.0
outer loop
vertex -3.0 5.19615242270663 31.0
vertex -4.24264068711929 4.24264068711928 37.0
vertex -3.0 5.19615242270663 37.0
endloop
endfacet
facet normal 1.0 -2.49511077078113e-016 0.0
outer loop
vertex -3.0 0.0 30.0
vertex -2.89777747886721 -0.776457135307564 37.0
vertex -2.89777747886721 -0.776457135307564 30.0
endloop
endfacet
facet normal 0.965925826289068 0.258819045102521 0.0
outer loop
vertex -2.89777747886721 -0.776457135307564 37.0
vertex -3.0 0.0 30.0
vertex -3.0 0.0 37.0
endloop
endfacet
facet normal 0.965925826289068 -0.25881904510252 0.0
outer loop
vertex -2.89777747886721 0.776457135307561 30.0
vertex -3.0 0.0 37.0
vertex -3.0 0.0 30.0
endloop
endfacet
facet normal 1.0 -2.49511077078113e-016 0.0
outer loop
vertex -3.0 0.0 37.0
vertex -2.89777747886721 0.776457135307561 30.0
vertex -2.89777747886721 0.776457135307561 37.0
endloop
endfacet
facet normal 0.866025403784439 -0.499999999999999 0.0
outer loop
vertex -2.59807621135332 1.5 30.0
vertex -2.89777747886721 0.776457135307561 37.0
vertex -2.89777747886721 0.776457135307561 30.0
endloop
endfacet
facet normal 0.965925826289068 -0.25881904510252 0.0
outer loop
vertex -2.89777747886721 0.776457135307561 37.0
vertex -2.59807621135332 1.5 30.0
vertex -2.59807621135332 1.5 37.0
endloop
endfacet
facet normal -0.258819045102521 0.965925826289068 0.0
outer loop
vertex 0.776457135307563 -2.89777747886721 37.0
vertex 1.5 -2.59807621135332 30.0
vertex 0.776457135307563 -2.89777747886721 30.0
endloop
endfacet
facet normal -0.5 0.866025403784439 -6.4932168292403e-032
outer loop
vertex 1.5 -2.59807621135332 30.0
vertex 0.776457135307563 -2.89777747886721 37.0
vertex 1.5 -2.59807621135332 37.0
endloop
endfacet
facet normal 1.1584442864341e-016 1.0 0.0
outer loop
vertex 0.0 -3.0 37.0
vertex 0.776457135307563 -2.89777747886721 30.0
vertex 0.0 -3.0 30.0
endloop
endfacet
facet normal -0.258819045102521 0.965925826289068 0.0
outer loop
vertex 0.776457135307563 -2.89777747886721 30.0
vertex 0.0 -3.0 37.0
vertex 0.776457135307563 -2.89777747886721 37.0
endloop
endfacet
facet normal 0.258819045102521 0.965925826289068 0.0
outer loop
vertex -0.776457135307561 -2.89777747886721 37.0
vertex 0.0 -3.0 30.0
vertex -0.776457135307561 -2.89777747886721 30.0
endloop
endfacet
facet normal 1.1584442864341e-016 1.0 0.0
outer loop
vertex 0.0 -3.0 30.0
vertex -0.776457135307561 -2.89777747886721 37.0
vertex 0.0 -3.0 37.0
endloop
endfacet
facet normal 0.5 0.866025403784439 0.0
outer loop
vertex -1.5 -2.59807621135332 37.0
vertex -0.776457135307561 -2.89777747886721 30.0
vertex -1.5 -2.59807621135332 30.0
endloop
endfacet
facet normal 0.258819045102521 0.965925826289068 0.0
outer loop
vertex -0.776457135307561 -2.89777747886721 30.0
vertex -1.5 -2.59807621135332 37.0
vertex -0.776457135307561 -2.89777747886721 37.0
endloop
endfacet
facet normal 0.707106781186547 0.707106781186548 0.0
outer loop
vertex -2.12132034355964 -2.12132034355964 37.0
vertex -1.5 -2.59807621135332 30.0
vertex -2.12132034355964 -2.12132034355964 30.0
endloop
endfacet
facet normal 0.5 0.866025403784439 0.0
outer loop
vertex -1.5 -2.59807621135332 30.0
vertex -2.12132034355964 -2.12132034355964 37.0
vertex -1.5 -2.59807621135332 37.0
endloop
endfacet
facet normal 0.866025403784439 0.5 0.0
outer loop
vertex 5.19615242270663 3.0 31.0
vertex 5.79555495773441 1.55291427061513 37.0
vertex 5.79555495773441 1.55291427061513 31.0
endloop
endfacet
facet normal 0.965925826289068 0.258819045102521 0.0
outer loop
vertex 5.79555495773441 1.55291427061513 37.0
vertex 5.19615242270663 3.0 31.0
vertex 5.19615242270663 3.0 37.0
endloop
endfacet
facet normal 0.707106781186548 0.707106781186547 0.0
outer loop
vertex 4.24264068711929 4.24264068711928 31.0
vertex 5.19615242270663 3.0 37.0
vertex 5.19615242270663 3.0 31.0
endloop
endfacet
facet normal 0.866025403784439 0.5 0.0
outer loop
vertex 5.19615242270663 3.0 37.0
vertex 4.24264068711929 4.24264068711928 31.0
vertex 4.24264068711929 4.24264068711928 37.0
endloop
endfacet
facet normal 0.0 0.0 1.0
outer loop
vertex -2.89777747886721 -0.776457135307564 30.0
vertex -2.89777747886721 0.776457135307561 30.0
vertex -3.0 0.0 30.0
endloop
endfacet
facet normal 0.0 0.0 1.0
outer loop
vertex -2.89777747886721 0.776457135307561 30.0
vertex -2.89777747886721 -0.776457135307564 30.0
vertex -2.59807621135332 -1.5 30.0
endloop
endfacet
facet normal 0.0 0.0 1.0
outer loop
vertex -2.89777747886721 0.776457135307561 30.0
vertex -2.59807621135332 -1.5 30.0
vertex -2.59807621135332 1.5 30.0
endloop
endfacet
facet normal 0.0 0.0 1.0
outer loop
vertex -2.59807621135332 1.5 30.0
vertex -2.59807621135332 -1.5 30.0
vertex -2.12132034355964 2.12132034355964 30.0
endloop
endfacet
facet normal 0.0 0.0 1.0
outer loop
vertex -2.12132034355964 2.12132034355964 30.0
vertex -2.59807621135332 -1.5 30.0
vertex -2.12132034355964 -2.12132034355964 30.0
endloop
endfacet
facet normal 0.0 0.0 1.0
outer loop
vertex -2.12132034355964 2.12132034355964 30.0
vertex -2.12132034355964 -2.12132034355964 30.0
vertex -1.5 2.59807621135331 30.0
endloop
endfacet
facet normal 0.0 0.0 1.0
outer loop
vertex -1.5 2.59807621135331 30.0
vertex -2.12132034355964 -2.12132034355964 30.0
vertex -1.5 -2.59807621135332 30.0
endloop
endfacet
facet normal 0.0 0.0 1.0
outer loop
vertex -1.5 2.59807621135331 30.0
vertex -1.5 -2.59807621135332 30.0
vertex -0.776457135307564 2.89777747886721 30.0
endloop
endfacet
facet normal 0.0 0.0 1.0
outer loop
vertex -0.776457135307564 2.89777747886721 30.0
vertex -1.5 -2.59807621135332 30.0
vertex -0.776457135307561 -2.89777747886721 30.0
endloop
endfacet
facet normal 0.0 0.0 1.0
outer loop
vertex -0.776457135307564 2.89777747886721 30.0
vertex -0.776457135307561 -2.89777747886721 30.0
vertex 0.0 3.0 30.0
endloop
endfacet
facet normal 0.0 0.0 1.0
outer loop
vertex 0.0 3.0 30.0
vertex -0.776457135307561 -2.89777747886721 30.0
vertex 0.0 -3.0 30.0
endloop
endfacet
facet normal 0.0 0.0 1.0
outer loop
vertex 0.0 3.0 30.0
vertex 0.0 -3.0 30.0
vertex 0.776457135307563 -2.89777747886721 30.0
endloop
endfacet
facet normal 0.0 0.0 1.0
outer loop
vertex 0.0 3.0 30.0
vertex 0.776457135307563 -2.89777747886721 30.0
vertex 0.776457135307563 2.89777747886721 30.0
endloop
endfacet
facet normal 0.0 0.0 1.0
outer loop
vertex 0.776457135307563 2.89777747886721 30.0
vertex 0.776457135307563 -2.89777747886721 30.0
vertex 1.5 -2.59807621135332 30.0
endloop
endfacet
facet normal 0.0 0.0 1.0
outer loop
vertex 0.776457135307563 2.89777747886721 30.0
vertex 1.5 -2.59807621135332 30.0
vertex 1.5 2.59807621135332 30.0
endloop
endfacet
facet normal 0.0 0.0 1.0
outer loop
vertex 1.5 2.59807621135332 30.0
vertex 1.5 -2.59807621135332 30.0
vertex 2.12132034355964 2.12132034355964 30.0
endloop
endfacet
facet normal 0.0 0.0 1.0
outer loop
vertex 2.12132034355964 2.12132034355964 30.0
vertex 1.5 -2.59807621135332 30.0
vertex 2.12132034355964 -2.12132034355964 30.0
endloop
endfacet
facet normal 0.0 0.0 1.0
outer loop
vertex 2.12132034355964 2.12132034355964 30.0
vertex 2.12132034355964 -2.12132034355964 30.0
vertex 2.59807621135332 1.5 30.0
endloop
endfacet
facet normal 0.0 0.0 1.0
outer loop
vertex 2.59807621135332 1.5 30.0
vertex 2.12132034355964 -2.12132034355964 30.0
vertex 2.59807621135332 -1.5 30.0
endloop
endfacet
facet normal 0.0 0.0 1.0
outer loop
vertex 2.59807621135332 1.5 30.0
vertex 2.59807621135332 -1.5 30.0
vertex 2.89777747886721 -0.776457135307561 30.0
endloop
endfacet
facet normal 0.0 0.0 1.0
outer loop
vertex 2.59807621135332 1.5 30.0
vertex 2.89777747886721 -0.776457135307561 30.0
vertex 2.89777747886721 0.776457135307563 30.0
endloop
endfacet
facet normal 0.0 0.0 1.0
outer loop
vertex 2.89777747886721 0.776457135307563 30.0
vertex 2.89777747886721 -0.776457135307561 30.0
vertex 3.0 0.0 30.0
endloop
endfacet
facet normal -0.965925826289068 -0.258819045102521 0.0
outer loop
vertex 2.89777747886721 0.776457135307563 37.0
vertex 3.0 0.0 30.0
vertex 3.0 0.0 37.0
endloop
endfacet
facet normal -1.0 1.1584442864341e-016 0.0
outer loop
vertex 3.0 0.0 30.0
vertex 2.89777747886721 0.776457135307563 37.0
vertex 2.89777747886721 0.776457135307563 30.0
endloop
endfacet
facet normal 0.707106781186548 -0.707106781186547 0.0
outer loop
vertex 4.24264068711929 -4.24264068711928 37.0
vertex 3.0 -5.19615242270663 31.0
vertex 4.24264068711929 -4.24264068711928 31.0
endloop
endfacet
facet normal 0.5 -0.866025403784439 0.0
outer loop
vertex 3.0 -5.19615242270663 31.0
vertex 4.24264068711929 -4.24264068711928 37.0
vertex 3.0 -5.19615242270663 37.0
endloop
endfacet
facet normal 0.866025403784439 -0.5 0.0
outer loop
vertex 5.19615242270663 -3.0 31.0
vertex 4.24264068711929 -4.24264068711928 37.0
vertex 4.24264068711929 -4.24264068711928 31.0
endloop
endfacet
facet normal 0.707106781186548 -0.707106781186547 0.0
outer loop
vertex 4.24264068711929 -4.24264068711928 37.0
vertex 5.19615242270663 -3.0 31.0
vertex 5.19615242270663 -3.0 37.0
endloop
endfacet
facet normal -0.5 0.866025403784439 0.0
outer loop
vertex -3.0 5.19615242270663 37.0
vertex -1.55291427061513 5.79555495773441 31.0
vertex -3.0 5.19615242270663 31.0
endloop
endfacet
facet normal -0.258819045102522 0.965925826289068 0.0
outer loop
vertex -1.55291427061513 5.79555495773441 31.0
vertex -3.0 5.19615242270663 37.0
vertex -1.55291427061513 5.79555495773441 37.0
endloop
endfacet
facet normal -0.965925826289068 0.258819045102521 0.0
outer loop
vertex 2.51140714835158 -0.672929517266556 21.0
vertex 2.25166604983954 -1.3 0.0
vertex 2.25166604983954 -1.3 21.0
endloop
endfacet
facet normal -0.866025403784438 0.500000000000001 0.0
outer loop
vertex 2.25166604983954 -1.3 0.0
vertex 2.51140714835158 -0.672929517266556 21.0
vertex 2.51140714835158 -0.672929517266556 0.0
endloop
endfacet
facet normal 1.0 8.46555440086456e-016 0.0
outer loop
vertex 6.0 0.0 31.0
vertex 5.79555495773441 -1.55291427061512 37.0
vertex 5.79555495773441 -1.55291427061512 31.0
endloop
endfacet
facet normal 0.965925826289069 -0.25881904510252 0.0
outer loop
vertex 5.79555495773441 -1.55291427061512 37.0
vertex 6.0 0.0 31.0
vertex 6.0 0.0 37.0
endloop
endfacet
facet normal 0.0 0.0 1.0
outer loop
vertex -5.79555495773441 -1.55291427061513 37.0
vertex -5.79555495773441 1.55291427061512 37.0
vertex -6.0 -1.40998324127395e-015 37.0
endloop
endfacet
facet normal 0.0 0.0 1.0
outer loop
vertex -5.79555495773441 1.55291427061512 37.0
vertex -5.79555495773441 -1.55291427061513 37.0
vertex -5.19615242270663 3.0 37.0
endloop
endfacet
facet normal 0.0 0.0 1.0
outer loop
vertex -5.19615242270663 3.0 37.0
vertex -5.79555495773441 -1.55291427061513 37.0
vertex -5.19615242270663 -3.0 37.0
endloop
endfacet
facet normal 0.0 0.0 1.0
outer loop
vertex -5.19615242270663 3.0 37.0
vertex -5.19615242270663 -3.0 37.0
vertex -4.24264068711929 4.24264068711928 37.0
endloop
endfacet
facet normal 0.0 0.0 1.0
outer loop
vertex -4.24264068711929 4.24264068711928 37.0
vertex -5.19615242270663 -3.0 37.0
vertex -4.24264068711928 -4.24264068711929 37.0
endloop
endfacet
facet normal 0.0 0.0 1.0
outer loop
vertex -4.24264068711929 4.24264068711928 37.0
vertex -4.24264068711928 -4.24264068711929 37.0
vertex -3.0 5.19615242270663 37.0
endloop
endfacet
facet normal 0.0 0.0 1.0
outer loop
vertex -3.0 5.19615242270663 37.0
vertex -4.24264068711928 -4.24264068711929 37.0
vertex -3.0 -5.19615242270663 37.0
endloop
endfacet
facet normal 0.0 0.0 1.0
outer loop
vertex -3.0 5.19615242270663 37.0
vertex -3.0 -5.19615242270663 37.0
vertex -3.0 0.0 37.0
endloop
endfacet
facet normal 0.0 0.0 1.0
outer loop
vertex -3.0 0.0 37.0
vertex -3.0 -5.19615242270663 37.0
vertex -2.89777747886721 -0.776457135307564 37.0
endloop
endfacet
facet normal 0.0 0.0 1.0
outer loop
vertex -2.89777747886721 -0.776457135307564 37.0
vertex -3.0 -5.19615242270663 37.0
vertex -1.55291427061512 -5.79555495773441 37.0
endloop
endfacet
facet normal 0.0 0.0 1.0
outer loop
vertex -2.89777747886721 -0.776457135307564 37.0
vertex -1.55291427061512 -5.79555495773441 37.0
vertex -2.59807621135332 -1.5 37.0
endloop
endfacet
facet normal 0.0 0.0 1.0
outer loop
vertex -2.59807621135332 -1.5 37.0
vertex -1.55291427061512 -5.79555495773441 37.0
vertex -2.12132034355964 -2.12132034355964 37.0
endloop
endfacet
facet normal 0.0 0.0 1.0
outer loop
vertex -2.12132034355964 -2.12132034355964 37.0
vertex -1.55291427061512 -5.79555495773441 37.0
vertex -1.5 -2.59807621135332 37.0
endloop
endfacet
facet normal 0.0 0.0 1.0
outer loop
vertex -1.5 -2.59807621135332 37.0
vertex -1.55291427061512 -5.79555495773441 37.0
vertex 1.40998324127395e-015 -6.0 37.0
endloop
endfacet
facet normal 0.0 0.0 1.0
outer loop
vertex -1.5 -2.59807621135332 37.0
vertex 1.40998324127395e-015 -6.0 37.0
vertex -0.776457135307561 -2.89777747886721 37.0
endloop
endfacet
facet normal 0.0 0.0 1.0
outer loop
vertex -0.776457135307561 -2.89777747886721 37.0
vertex 1.40998324127395e-015 -6.0 37.0
vertex 0.0 -3.0 37.0
endloop
endfacet
facet normal 0.0 0.0 1.0
outer loop
vertex 0.0 -3.0 37.0
vertex 1.40998324127395e-015 -6.0 37.0
vertex 0.776457135307563 -2.89777747886721 37.0
endloop
endfacet
facet normal 0.0 0.0 1.0
outer loop
vertex 0.776457135307563 -2.89777747886721 37.0
vertex 1.40998324127395e-015 -6.0 37.0
vertex 1.55291427061513 -5.79555495773441 37.0
endloop
endfacet
facet normal 0.0 0.0 1.0
outer loop
vertex 0.776457135307563 -2.89777747886721 37.0
vertex 1.55291427061513 -5.79555495773441 37.0
vertex 1.5 -2.59807621135332 37.0
endloop
endfacet
facet normal 0.0 0.0 1.0
outer loop
vertex 1.5 -2.59807621135332 37.0
vertex 1.55291427061513 -5.79555495773441 37.0
vertex 2.12132034355964 -2.12132034355964 37.0
endloop
endfacet
facet normal 0.0 0.0 1.0
outer loop
vertex 2.12132034355964 -2.12132034355964 37.0
vertex 1.55291427061513 -5.79555495773441 37.0
vertex 3.0 -5.19615242270663 37.0
endloop
endfacet
facet normal 0.0 0.0 1.0
outer loop
vertex 2.12132034355964 -2.12132034355964 37.0
vertex 3.0 -5.19615242270663 37.0
vertex 2.59807621135332 -1.5 37.0
endloop
endfacet
facet normal 0.0 0.0 1.0
outer loop
vertex 2.59807621135332 -1.5 37.0
vertex 3.0 -5.19615242270663 37.0
vertex 2.89777747886721 -0.776457135307561 37.0
endloop
endfacet
facet normal 0.0 0.0 1.0
outer loop
vertex 2.89777747886721 -0.776457135307561 37.0
vertex 3.0 -5.19615242270663 37.0
vertex 3.0 0.0 37.0
endloop
endfacet
facet normal 0.0 0.0 1.0
outer loop
vertex -3.0 5.19615242270663 37.0
vertex -2.89777747886721 0.776457135307561 37.0
vertex -1.55291427061513 5.79555495773441 37.0
endloop
endfacet
facet normal 0.0 0.0 1.0
outer loop
vertex -2.89777747886721 0.776457135307561 37.0
vertex -3.0 5.19615242270663 37.0
vertex -3.0 0.0 37.0
endloop
endfacet
facet normal 0.0 0.0 1.0
outer loop
vertex -1.55291427061513 5.79555495773441 37.0
vertex -2.89777747886721 0.776457135307561 37.0
vertex -2.59807621135332 1.5 37.0
endloop
endfacet
facet normal 0.0 0.0 1.0
outer loop
vertex -1.55291427061513 5.79555495773441 37.0
vertex -2.59807621135332 1.5 37.0
vertex -2.12132034355964 2.12132034355964 37.0
endloop
endfacet
facet normal 0.0 0.0 1.0
outer loop
vertex -1.55291427061513 5.79555495773441 37.0
vertex -2.12132034355964 2.12132034355964 37.0
vertex -1.5 2.59807621135331 37.0
endloop
endfacet
facet normal 0.0 0.0 1.0
outer loop
vertex -1.55291427061513 5.79555495773441 37.0
vertex -1.5 2.59807621135331 37.0
vertex 0.0 6.0 37.0
endloop
endfacet
facet normal 0.0 0.0 1.0
outer loop
vertex 0.0 6.0 37.0
vertex -1.5 2.59807621135331 37.0
vertex -0.776457135307564 2.89777747886721 37.0
endloop
endfacet
facet normal 0.0 0.0 1.0
outer loop
vertex 0.0 6.0 37.0
vertex -0.776457135307564 2.89777747886721 37.0
vertex 0.0 3.0 37.0
endloop
endfacet
facet normal 0.0 0.0 1.0
outer loop
vertex 0.0 6.0 37.0
vertex 0.0 3.0 37.0
vertex 0.776457135307563 2.89777747886721 37.0
endloop
endfacet
facet normal 0.0 0.0 1.0
outer loop
vertex 0.0 6.0 37.0
vertex 0.776457135307563 2.89777747886721 37.0
vertex 1.55291427061512 5.79555495773441 37.0
endloop
endfacet
facet normal 0.0 0.0 1.0
outer loop
vertex 1.55291427061512 5.79555495773441 37.0
vertex 0.776457135307563 2.89777747886721 37.0
vertex 1.5 2.59807621135332 37.0
endloop
endfacet
facet normal 0.0 0.0 1.0
outer loop
vertex 1.55291427061512 5.79555495773441 37.0
vertex 1.5 2.59807621135332 37.0
vertex 2.12132034355964 2.12132034355964 37.0
endloop
endfacet
facet normal 0.0 0.0 1.0
outer loop
vertex 1.55291427061512 5.79555495773441 37.0
vertex 2.12132034355964 2.12132034355964 37.0
vertex 3.0 5.19615242270663 37.0
endloop
endfacet
facet normal 0.0 0.0 1.0
outer loop
vertex 3.0 5.19615242270663 37.0
vertex 2.12132034355964 2.12132034355964 37.0
vertex 2.59807621135332 1.5 37.0
endloop
endfacet
facet normal 0.0 0.0 1.0
outer loop
vertex 3.0 5.19615242270663 37.0
vertex 2.59807621135332 1.5 37.0
vertex 2.89777747886721 0.776457135307563 37.0
endloop
endfacet
facet normal 0.0 0.0 1.0
outer loop
vertex 3.0 5.19615242270663 37.0
vertex 2.89777747886721 0.776457135307563 37.0
vertex 3.0 0.0 37.0
endloop
endfacet
facet normal 0.0 0.0 1.0
outer loop
vertex 3.0 5.19615242270663 37.0
vertex 3.0 0.0 37.0
vertex 4.24264068711929 4.24264068711928 37.0
endloop
endfacet
facet normal 0.0 0.0 1.0
outer loop
vertex 4.24264068711929 4.24264068711928 37.0
vertex 3.0 0.0 37.0
vertex 3.0 -5.19615242270663 37.0
endloop
endfacet
facet normal 0.0 0.0 1.0
outer loop
vertex 4.24264068711929 4.24264068711928 37.0
vertex 3.0 -5.19615242270663 37.0
vertex 4.24264068711929 -4.24264068711928 37.0
endloop
endfacet
facet normal 0.0 0.0 1.0
outer loop
vertex 4.24264068711929 4.24264068711928 37.0
vertex 4.24264068711929 -4.24264068711928 37.0
vertex 5.19615242270663 -3.0 37.0
endloop
endfacet
facet normal 0.0 0.0 1.0
outer loop
vertex 4.24264068711929 4.24264068711928 37.0
vertex 5.19615242270663 -3.0 37.0
vertex 5.19615242270663 3.0 37.0
endloop
endfacet
facet normal 0.0 0.0 1.0
outer loop
vertex 5.19615242270663 3.0 37.0
vertex 5.19615242270663 -3.0 37.0
vertex 5.79555495773441 1.55291427061513 37.0
endloop
endfacet
facet normal 0.0 0.0 1.0
outer loop
vertex 5.79555495773441 1.55291427061513 37.0
vertex 5.19615242270663 -3.0 37.0
vertex 5.79555495773441 -1.55291427061512 37.0
endloop
endfacet
facet normal 0.0 0.0 1.0
outer loop
vertex 5.79555495773441 1.55291427061513 37.0
vertex 5.79555495773441 -1.55291427061512 37.0
vertex 6.0 0.0 37.0
endloop
endfacet
facet normal 0.965925826289068 0.258819045102521 0.0
outer loop
vertex 5.79555495773441 1.55291427061513 31.0
vertex 6.0 0.0 37.0
vertex 6.0 0.0 31.0
endloop
endfacet
facet normal 1.0 8.46555440086456e-016 0.0
outer loop
vertex 6.0 0.0 37.0
vertex 5.79555495773441 1.55291427061513 31.0
vertex 5.79555495773441 1.55291427061513 37.0
endloop
endfacet
facet normal 0.965925826289069 -0.25881904510252 0.0
outer loop
vertex 5.79555495773441 -1.55291427061512 31.0
vertex 5.19615242270663 -3.0 37.0
vertex 5.19615242270663 -3.0 31.0
endloop
endfacet
facet normal 0.866025403784439 -0.5 0.0
outer loop
vertex 5.19615242270663 -3.0 37.0
vertex 5.79555495773441 -1.55291427061512 31.0
vertex 5.79555495773441 -1.55291427061512 37.0
endloop
endfacet
facet normal -0.258819045102522 0.965925826289068 0.0
outer loop
vertex -1.55291427061513 5.79555495773441 37.0
vertex 0.0 6.0 31.0
vertex -1.55291427061513 5.79555495773441 31.0
endloop
endfacet
facet normal -6.59422132277871e-016 1.0 0.0
outer loop
vertex 0.0 6.0 31.0
vertex -1.55291427061513 5.79555495773441 37.0
vertex 0.0 6.0 37.0
endloop
endfacet
facet normal -0.965925826289068 0.25881904510252 0.0
outer loop
vertex -5.79555495773441 1.55291427061512 37.0
vertex -6.0 -1.40998324127395e-015 31.0
vertex -6.0 -1.40998324127395e-015 37.0
endloop
endfacet
facet normal -1.0 -2.22777747391173e-016 0.0
outer loop
vertex -6.0 -1.40998324127395e-015 31.0
vertex -5.79555495773441 1.55291427061512 37.0
vertex -5.79555495773441 1.55291427061512 31.0
endloop
endfacet
facet normal -0.965925826289068 -0.258819045102521 0.0
outer loop
vertex -5.79555495773441 -1.55291427061513 37.0
vertex -5.19615242270663 -3.0 31.0
vertex -5.19615242270663 -3.0 37.0
endloop
endfacet
facet normal -0.866025403784438 -0.500000000000001 0.0
outer loop
vertex -5.19615242270663 -3.0 31.0
vertex -5.79555495773441 -1.55291427061513 37.0
vertex -5.79555495773441 -1.55291427061513 31.0
endloop
endfacet
facet normal -1.0 -2.22777747391173e-016 0.0
outer loop
vertex -6.0 -1.40998324127395e-015 37.0
vertex -5.79555495773441 -1.55291427061513 31.0
vertex -5.79555495773441 -1.55291427061513 37.0
endloop
endfacet
facet normal -0.965925826289068 -0.258819045102521 0.0
outer loop
vertex -5.79555495773441 -1.55291427061513 31.0
vertex -6.0 -1.40998324127395e-015 37.0
vertex -6.0 -1.40998324127395e-015 31.0
endloop
endfacet
facet normal -0.866025403784439 0.499999999999999 0.0
outer loop
vertex -5.19615242270663 3.0 37.0
vertex -5.79555495773441 1.55291427061512 31.0
vertex -5.79555495773441 1.55291427061512 37.0
endloop
endfacet
facet normal -0.965925826289068 0.25881904510252 0.0
outer loop
vertex -5.79555495773441 1.55291427061512 31.0
vertex -5.19615242270663 3.0 37.0
vertex -5.19615242270663 3.0 31.0
endloop
endfacet
facet normal -0.866025403784438 0.500000000000001 0.0
outer loop
vertex 2.25166604983954 -1.3 21.0
vertex 1.83847763108502 -1.83847763108502 0.0
vertex 1.83847763108502 -1.83847763108502 21.0
endloop
endfacet
facet normal -0.707106781186547 0.707106781186548 0.0
outer loop
vertex 1.83847763108502 -1.83847763108502 0.0
vertex 2.25166604983954 -1.3 21.0
vertex 2.25166604983954 -1.3 0.0
endloop
endfacet
facet normal -0.5 0.866025403784439 0.0
outer loop
vertex 1.3 -2.25166604983954 21.0
vertex 1.83847763108502 -1.83847763108502 0.0
vertex 1.3 -2.25166604983954 0.0
endloop
endfacet
facet normal -0.707106781186547 0.707106781186548 0.0
outer loop
vertex 1.83847763108502 -1.83847763108502 0.0
vertex 1.3 -2.25166604983954 21.0
vertex 1.83847763108502 -1.83847763108502 21.0
endloop
endfacet
facet normal -0.866025403784439 -0.5 0.0
outer loop
vertex -6.92820323027551 -4.0 31.0
vertex -5.65685424949238 -5.65685424949238 0.0
vertex -5.65685424949238 -5.65685424949238 31.0
endloop
endfacet
facet normal -0.707106781186548 -0.707106781186547 0.0
outer loop
vertex -5.65685424949238 -5.65685424949238 0.0
vertex -6.92820323027551 -4.0 31.0
vertex -6.92820323027551 -4.0 0.0
endloop
endfacet
facet normal 0.707106781186548 0.707106781186547 0.0
outer loop
vertex 5.65685424949238 5.65685424949238 0.0
vertex 6.92820323027551 4.0 31.0
vertex 6.92820323027551 4.0 0.0
endloop
endfacet
facet normal 0.866025403784439 0.5 0.0
outer loop
vertex 6.92820323027551 4.0 31.0
vertex 5.65685424949238 5.65685424949238 0.0
vertex 5.65685424949238 5.65685424949238 31.0
endloop
endfacet
facet normal 0.866025403784439 0.5 0.0
outer loop
vertex 6.92820323027551 4.0 0.0
vertex 7.72740661031254 2.07055236082017 31.0
vertex 7.72740661031254 2.07055236082017 0.0
endloop
endfacet
facet normal 0.965925826289068 0.258819045102521 0.0
outer loop
vertex 7.72740661031254 2.07055236082017 31.0
vertex 6.92820323027551 4.0 0.0
vertex 6.92820323027551 4.0 31.0
endloop
endfacet
facet normal -0.965925826289068 -0.25881904510252 0.0
outer loop
vertex -7.72740661031255 -2.07055236082016 31.0
vertex -6.92820323027551 -4.0 0.0
vertex -6.92820323027551 -4.0 31.0
endloop
endfacet
facet normal -0.866025403784439 -0.5 0.0
outer loop
vertex -6.92820323027551 -4.0 0.0
vertex -7.72740661031255 -2.07055236082016 31.0
vertex -7.72740661031255 -2.07055236082016 0.0
endloop
endfacet
facet normal 0.258819045102521 0.965925826289068 0.0
outer loop
vertex 2.07055236082017 7.72740661031255 31.0
vertex 4.0 6.92820323027551 0.0
vertex 2.07055236082017 7.72740661031255 0.0
endloop
endfacet
facet normal 0.5 0.866025403784439 0.0
outer loop
vertex 4.0 6.92820323027551 0.0
vertex 2.07055236082017 7.72740661031255 31.0
vertex 4.0 6.92820323027551 31.0
endloop
endfacet
facet normal -1.0 2.3168885728682e-016 0.0
outer loop
vertex -8.0 1.40998324127395e-015 31.0
vertex -7.72740661031255 -2.07055236082016 0.0
vertex -7.72740661031255 -2.07055236082016 31.0
endloop
endfacet
facet normal -0.965925826289068 -0.25881904510252 0.0
outer loop
vertex -7.72740661031255 -2.07055236082016 0.0
vertex -8.0 1.40998324127395e-015 31.0
vertex -8.0 1.40998324127395e-015 0.0
endloop
endfacet
facet normal -7.12888791651753e-017 1.0 0.0
outer loop
vertex 0.0 8.0 31.0
vertex 2.07055236082017 7.72740661031255 0.0
vertex 0.0 8.0 0.0
endloop
endfacet
facet normal 0.258819045102521 0.965925826289068 0.0
outer loop
vertex 2.07055236082017 7.72740661031255 0.0
vertex 0.0 8.0 31.0
vertex 2.07055236082017 7.72740661031255 31.0
endloop
endfacet
facet normal 0.5 0.866025403784439 0.0
outer loop
vertex 4.0 6.92820323027551 31.0
vertex 5.65685424949238 5.65685424949238 0.0
vertex 4.0 6.92820323027551 0.0
endloop
endfacet
facet normal 0.707106781186548 0.707106781186547 0.0
outer loop
vertex 5.65685424949238 5.65685424949238 0.0
vertex 4.0 6.92820323027551 31.0
vertex 5.65685424949238 5.65685424949238 31.0
endloop
endfacet
facet normal -4.27733274991051e-016 -1.0 0.0
outer loop
vertex -1.40998324127395e-015 -8.0 31.0
vertex -2.07055236082017 -7.72740661031254 0.0
vertex -1.40998324127395e-015 -8.0 0.0
endloop
endfacet
facet normal -0.258819045102521 -0.965925826289068 0.0
outer loop
vertex -2.07055236082017 -7.72740661031254 0.0
vertex -1.40998324127395e-015 -8.0 31.0
vertex -2.07055236082017 -7.72740661031254 31.0
endloop
endfacet
facet normal 0.25881904510252 -0.965925826289068 0.0
outer loop
vertex 2.07055236082016 -7.72740661031255 31.0
vertex -1.40998324127395e-015 -8.0 0.0
vertex 2.07055236082016 -7.72740661031255 0.0
endloop
endfacet
facet normal -4.27733274991051e-016 -1.0 0.0
outer loop
vertex -1.40998324127395e-015 -8.0 0.0
vertex 2.07055236082016 -7.72740661031255 31.0
vertex -1.40998324127395e-015 -8.0 31.0
endloop
endfacet
facet normal 0.5 -0.866025403784439 0.0
outer loop
vertex 3.99999999999999 -6.92820323027551 31.0
vertex 2.07055236082016 -7.72740661031255 0.0
vertex 3.99999999999999 -6.92820323027551 0.0
endloop
endfacet
facet normal 0.25881904510252 -0.965925826289068 0.0
outer loop
vertex 2.07055236082016 -7.72740661031255 0.0
vertex 3.99999999999999 -6.92820323027551 31.0
vertex 2.07055236082016 -7.72740661031255 31.0
endloop
endfacet
facet normal 0.707106781186547 -0.707106781186548 0.0
outer loop
vertex 5.65685424949238 -5.65685424949238 31.0
vertex 3.99999999999999 -6.92820323027551 0.0
vertex 5.65685424949238 -5.65685424949238 0.0
endloop
endfacet
facet normal 0.5 -0.866025403784439 0.0
outer loop
vertex 3.99999999999999 -6.92820323027551 0.0
vertex 5.65685424949238 -5.65685424949238 31.0
vertex 3.99999999999999 -6.92820323027551 31.0
endloop
endfacet
facet normal 0.866025403784438 -0.5 0.0
outer loop
vertex 6.92820323027551 -4.0 0.0
vertex 5.65685424949238 -5.65685424949238 31.0
vertex 5.65685424949238 -5.65685424949238 0.0
endloop
endfacet
facet normal 0.707106781186547 -0.707106781186548 0.0
outer loop
vertex 5.65685424949238 -5.65685424949238 31.0
vertex 6.92820323027551 -4.0 0.0
vertex 6.92820323027551 -4.0 31.0
endloop
endfacet
facet normal -0.5 -0.866025403784438 0.0
outer loop
vertex -4.0 -6.92820323027551 31.0
vertex -5.65685424949238 -5.65685424949238 0.0
vertex -4.0 -6.92820323027551 0.0
endloop
endfacet
facet normal -0.707106781186548 -0.707106781186547 0.0
outer loop
vertex -5.65685424949238 -5.65685424949238 0.0
vertex -4.0 -6.92820323027551 31.0
vertex -5.65685424949238 -5.65685424949238 31.0
endloop
endfacet
facet normal -0.258819045102521 -0.965925826289068 0.0
outer loop
vertex -2.07055236082017 -7.72740661031254 31.0
vertex -4.0 -6.92820323027551 0.0
vertex -2.07055236082017 -7.72740661031254 0.0
endloop
endfacet
facet normal -0.5 -0.866025403784438 0.0
outer loop
vertex -4.0 -6.92820323027551 0.0
vertex -2.07055236082017 -7.72740661031254 31.0
vertex -4.0 -6.92820323027551 31.0
endloop
endfacet
facet normal -0.5 0.866025403784439 0.0
outer loop
vertex -4.0 6.92820323027551 31.0
vertex -2.07055236082016 7.72740661031255 0.0
vertex -4.0 6.92820323027551 0.0
endloop
endfacet
facet normal -0.258819045102521 0.965925826289068 0.0
outer loop
vertex -2.07055236082016 7.72740661031255 0.0
vertex -4.0 6.92820323027551 31.0
vertex -2.07055236082016 7.72740661031255 31.0
endloop
endfacet
facet normal -0.707106781186548 0.707106781186548 0.0
outer loop
vertex -5.65685424949238 5.65685424949238 31.0
vertex -4.0 6.92820323027551 0.0
vertex -5.65685424949238 5.65685424949238 0.0
endloop
endfacet
facet normal -0.5 0.866025403784439 0.0
outer loop
vertex -4.0 6.92820323027551 0.0
vertex -5.65685424949238 5.65685424949238 31.0
vertex -4.0 6.92820323027551 31.0
endloop
endfacet
facet normal -0.866025403784439 0.5 0.0
outer loop
vertex -6.92820323027551 4.0 31.0
vertex -7.72740661031254 2.07055236082017 0.0
vertex -7.72740661031254 2.07055236082017 31.0
endloop
endfacet
facet normal -0.965925826289068 0.258819045102521 0.0
outer loop
vertex -7.72740661031254 2.07055236082017 0.0
vertex -6.92820323027551 4.0 31.0
vertex -6.92820323027551 4.0 0.0
endloop
endfacet
facet normal 0.965925826289068 0.258819045102521 0.0
outer loop
vertex 7.72740661031254 2.07055236082017 0.0
vertex 8.0 0.0 31.0
vertex 8.0 0.0 0.0
endloop
endfacet
facet normal 1.0 -4.45555494782345e-016 0.0
outer loop
vertex 8.0 0.0 31.0
vertex 7.72740661031254 2.07055236082017 0.0
vertex 7.72740661031254 2.07055236082017 31.0
endloop
endfacet
facet normal -0.258819045102521 -0.965925826289068 0.0
outer loop
vertex 0.672929517266556 2.51140714835158 21.0
vertex 0.0 2.6 0.0
vertex 0.672929517266556 2.51140714835158 0.0
endloop
endfacet
facet normal -5.34666593738814e-017 -1.0 0.0
outer loop
vertex 0.0 2.6 0.0
vertex 0.672929517266556 2.51140714835158 21.0
vertex 0.0 2.6 21.0
endloop
endfacet
facet normal 0.0 0.0 -1.0
outer loop
vertex -1.83847763108502 1.83847763108502 21.0
vertex -2.0 -1.62797758163361 21.0
vertex -2.0 1.62797758163361 21.0
endloop
endfacet
facet normal 0.0 0.0 -1.0
outer loop
vertex -2.0 -1.62797758163361 21.0
vertex -1.83847763108502 1.83847763108502 21.0
vertex -1.83847763108502 -1.83847763108502 21.0
endloop
endfacet
facet normal 0.0 0.0 -1.0
outer loop
vertex -1.83847763108502 -1.83847763108502 21.0
vertex -1.83847763108502 1.83847763108502 21.0
vertex -1.3 2.25166604983954 21.0
endloop
endfacet
facet normal 0.0 0.0 -1.0
outer loop
vertex -1.83847763108502 -1.83847763108502 21.0
vertex -1.3 2.25166604983954 21.0
vertex -1.3 -2.25166604983954 21.0
endloop
endfacet
facet normal 0.0 0.0 -1.0
outer loop
vertex -1.3 -2.25166604983954 21.0
vertex -1.3 2.25166604983954 21.0
vertex -0.672929517266553 2.51140714835158 21.0
endloop
endfacet
facet normal 0.0 0.0 -1.0
outer loop
vertex -1.3 -2.25166604983954 21.0
vertex -0.672929517266553 2.51140714835158 21.0
vertex -0.672929517266555 -2.51140714835158 21.0
endloop
endfacet
facet normal 0.0 0.0 -1.0
outer loop
vertex -0.672929517266555 -2.51140714835158 21.0
vertex -0.672929517266553 2.51140714835158 21.0
vertex 0.0 -2.6 21.0
endloop
endfacet
facet normal 0.0 0.0 -1.0
outer loop
vertex 0.0 -2.6 21.0
vertex -0.672929517266553 2.51140714835158 21.0
vertex 0.0 2.6 21.0
endloop
endfacet
facet normal 0.0 0.0 -1.0
outer loop
vertex 0.0 -2.6 21.0
vertex 0.0 2.6 21.0
vertex 0.672929517266556 2.51140714835158 21.0
endloop
endfacet
facet normal 0.0 0.0 -1.0
outer loop
vertex 0.0 -2.6 21.0
vertex 0.672929517266556 2.51140714835158 21.0
vertex 0.672929517266553 -2.51140714835158 21.0
endloop
endfacet
facet normal 0.0 0.0 -1.0
outer loop
vertex 0.672929517266553 -2.51140714835158 21.0
vertex 0.672929517266556 2.51140714835158 21.0
vertex 1.3 -2.25166604983954 21.0
endloop
endfacet
facet normal 0.0 0.0 -1.0
outer loop
vertex 1.3 -2.25166604983954 21.0
vertex 0.672929517266556 2.51140714835158 21.0
vertex 1.3 2.25166604983954 21.0
endloop
endfacet
facet normal 0.0 0.0 -1.0
outer loop
vertex 1.3 -2.25166604983954 21.0
vertex 1.3 2.25166604983954 21.0
vertex 1.83847763108502 -1.83847763108502 21.0
endloop
endfacet
facet normal 0.0 0.0 -1.0
outer loop
vertex 1.83847763108502 -1.83847763108502 21.0
vertex 1.3 2.25166604983954 21.0
vertex 1.83847763108502 1.83847763108502 21.0
endloop
endfacet
facet normal 0.0 0.0 -1.0
outer loop
vertex 1.83847763108502 -1.83847763108502 21.0
vertex 1.83847763108502 1.83847763108502 21.0
vertex 2.25166604983954 1.3 21.0
endloop
endfacet
facet normal 0.0 0.0 -1.0
outer loop
vertex 1.83847763108502 -1.83847763108502 21.0
vertex 2.25166604983954 1.3 21.0
vertex 2.25166604983954 -1.3 21.0
endloop
endfacet
facet normal 0.0 0.0 -1.0
outer loop
vertex 2.25166604983954 -1.3 21.0
vertex 2.25166604983954 1.3 21.0
vertex 2.51140714835158 -0.672929517266556 21.0
endloop
endfacet
facet normal 0.0 0.0 -1.0
outer loop
vertex 2.51140714835158 -0.672929517266556 21.0
vertex 2.25166604983954 1.3 21.0
vertex 2.51140714835158 0.672929517266553 21.0
endloop
endfacet
facet normal 0.0 0.0 -1.0
outer loop
vertex 2.51140714835158 -0.672929517266556 21.0
vertex 2.51140714835158 0.672929517266553 21.0
vertex 2.6 0.0 21.0
endloop
endfacet
facet normal 1.0 -4.45555494782345e-016 0.0
outer loop
vertex 8.0 0.0 0.0
vertex 7.72740661031254 -2.07055236082017 31.0
vertex 7.72740661031254 -2.07055236082017 0.0
endloop
endfacet
facet normal 0.965925826289068 -0.258819045102521 0.0
outer loop
vertex 7.72740661031254 -2.07055236082017 31.0
vertex 8.0 0.0 0.0
vertex 8.0 0.0 31.0
endloop
endfacet
facet normal -0.965925826289068 0.258819045102521 0.0
outer loop
vertex -7.72740661031254 2.07055236082017 31.0
vertex -8.0 1.40998324127395e-015 0.0
vertex -8.0 1.40998324127395e-015 31.0
endloop
endfacet
facet normal -1.0 2.3168885728682e-016 0.0
outer loop
vertex -8.0 1.40998324127395e-015 0.0
vertex -7.72740661031254 2.07055236082017 31.0
vertex -7.72740661031254 2.07055236082017 0.0
endloop
endfacet
facet normal 0.965925826289068 -0.258819045102521 0.0
outer loop
vertex 7.72740661031254 -2.07055236082017 0.0
vertex 6.92820323027551 -4.0 31.0
vertex 6.92820323027551 -4.0 0.0
endloop
endfacet
facet normal 0.866025403784438 -0.5 0.0
outer loop
vertex 6.92820323027551 -4.0 31.0
vertex 7.72740661031254 -2.07055236082017 0.0
vertex 7.72740661031254 -2.07055236082017 31.0
endloop
endfacet
facet normal -0.707106781186548 0.707106781186548 0.0
outer loop
vertex -5.65685424949238 5.65685424949238 31.0
vertex -6.92820323027551 4.0 0.0
vertex -6.92820323027551 4.0 31.0
endloop
endfacet
facet normal -0.866025403784439 0.5 0.0
outer loop
vertex -6.92820323027551 4.0 0.0
vertex -5.65685424949238 5.65685424949238 31.0
vertex -5.65685424949238 5.65685424949238 0.0
endloop
endfacet
facet normal 0.0 0.0 -1.0
outer loop
vertex 0.0 8.0 0.0
vertex -2.0 1.62797758163361 0.0
vertex -2.07055236082016 7.72740661031255 0.0
endloop
endfacet
facet normal 0.0 0.0 -1.0
outer loop
vertex -2.0 1.62797758163361 0.0
vertex 0.0 8.0 0.0
vertex -1.83847763108502 1.83847763108502 0.0
endloop
endfacet
facet normal 0.0 0.0 -1.0
outer loop
vertex -1.83847763108502 1.83847763108502 0.0
vertex 0.0 8.0 0.0
vertex -1.3 2.25166604983954 0.0
endloop
endfacet
facet normal 0.0 0.0 -1.0
outer loop
vertex -1.3 2.25166604983954 0.0
vertex 0.0 8.0 0.0
vertex -0.672929517266553 2.51140714835158 0.0
endloop
endfacet
facet normal 0.0 0.0 -1.0
outer loop
vertex -0.672929517266553 2.51140714835158 0.0
vertex 0.0 8.0 0.0
vertex 0.0 2.6 0.0
endloop
endfacet
facet normal 0.0 0.0 -1.0
outer loop
vertex 0.0 2.6 0.0
vertex 0.0 8.0 0.0
vertex 2.07055236082017 7.72740661031255 0.0
endloop
endfacet
facet normal 0.0 0.0 -1.0
outer loop
vertex 0.0 2.6 0.0
vertex 2.07055236082017 7.72740661031255 0.0
vertex 0.672929517266556 2.51140714835158 0.0
endloop
endfacet
facet normal 0.0 0.0 -1.0
outer loop
vertex 0.672929517266556 2.51140714835158 0.0
vertex 2.07055236082017 7.72740661031255 0.0
vertex 1.3 2.25166604983954 0.0
endloop
endfacet
facet normal 0.0 0.0 -1.0
outer loop
vertex 1.3 2.25166604983954 0.0
vertex 2.07055236082017 7.72740661031255 0.0
vertex 1.83847763108502 1.83847763108502 0.0
endloop
endfacet
facet normal 0.0 0.0 -1.0
outer loop
vertex 1.83847763108502 1.83847763108502 0.0
vertex 2.07055236082017 7.72740661031255 0.0
vertex 2.25166604983954 1.3 0.0
endloop
endfacet
facet normal 0.0 0.0 -1.0
outer loop
vertex 2.25166604983954 1.3 0.0
vertex 2.07055236082017 7.72740661031255 0.0
vertex 4.0 6.92820323027551 0.0
endloop
endfacet
facet normal 0.0 0.0 -1.0
outer loop
vertex 2.25166604983954 1.3 0.0
vertex 4.0 6.92820323027551 0.0
vertex 2.51140714835158 0.672929517266553 0.0
endloop
endfacet
facet normal 0.0 0.0 -1.0
outer loop
vertex 2.51140714835158 0.672929517266553 0.0
vertex 4.0 6.92820323027551 0.0
vertex 2.6 0.0 0.0
endloop
endfacet
facet normal 0.0 0.0 -1.0
outer loop
vertex 2.6 0.0 0.0
vertex 4.0 6.92820323027551 0.0
vertex 3.99999999999999 -6.92820323027551 0.0
endloop
endfacet
facet normal 0.0 0.0 -1.0
outer loop
vertex 3.99999999999999 -6.92820323027551 0.0
vertex 4.0 6.92820323027551 0.0
vertex 5.65685424949238 -5.65685424949238 0.0
endloop
endfacet
facet normal 0.0 0.0 -1.0
outer loop
vertex 5.65685424949238 -5.65685424949238 0.0
vertex 4.0 6.92820323027551 0.0
vertex 5.65685424949238 5.65685424949238 0.0
endloop
endfacet
facet normal 0.0 0.0 -1.0
outer loop
vertex 5.65685424949238 -5.65685424949238 0.0
vertex 5.65685424949238 5.65685424949238 0.0
vertex 6.92820323027551 -4.0 0.0
endloop
endfacet
facet normal 0.0 0.0 -1.0
outer loop
vertex 6.92820323027551 -4.0 0.0
vertex 5.65685424949238 5.65685424949238 0.0
vertex 6.92820323027551 4.0 0.0
endloop
endfacet
facet normal 0.0 0.0 -1.0
outer loop
vertex 6.92820323027551 -4.0 0.0
vertex 6.92820323027551 4.0 0.0
vertex 7.72740661031254 2.07055236082017 0.0
endloop
endfacet
facet normal 0.0 0.0 -1.0
outer loop
vertex 6.92820323027551 -4.0 0.0
vertex 7.72740661031254 2.07055236082017 0.0
vertex 7.72740661031254 -2.07055236082017 0.0
endloop
endfacet
facet normal 0.0 0.0 -1.0
outer loop
vertex 7.72740661031254 -2.07055236082017 0.0
vertex 7.72740661031254 2.07055236082017 0.0
vertex 8.0 0.0 0.0
endloop
endfacet
facet normal 0.0 0.0 -1.0
outer loop
vertex -7.72740661031254 2.07055236082017 0.0
vertex -7.72740661031255 -2.07055236082016 0.0
vertex -8.0 1.40998324127395e-015 0.0
endloop
endfacet
facet normal 0.0 0.0 -1.0
outer loop
vertex -7.72740661031255 -2.07055236082016 0.0
vertex -7.72740661031254 2.07055236082017 0.0
vertex -6.92820323027551 -4.0 0.0
endloop
endfacet
facet normal 0.0 0.0 -1.0
outer loop
vertex -6.92820323027551 -4.0 0.0
vertex -7.72740661031254 2.07055236082017 0.0
vertex -6.92820323027551 4.0 0.0
endloop
endfacet
facet normal 0.0 0.0 -1.0
outer loop
vertex -6.92820323027551 -4.0 0.0
vertex -6.92820323027551 4.0 0.0
vertex -5.65685424949238 -5.65685424949238 0.0
endloop
endfacet
facet normal 0.0 0.0 -1.0
outer loop
vertex -5.65685424949238 -5.65685424949238 0.0
vertex -6.92820323027551 4.0 0.0
vertex -5.65685424949238 5.65685424949238 0.0
endloop
endfacet
facet normal 0.0 0.0 -1.0
outer loop
vertex -5.65685424949238 -5.65685424949238 0.0
vertex -5.65685424949238 5.65685424949238 0.0
vertex -4.0 -6.92820323027551 0.0
endloop
endfacet
facet normal 0.0 0.0 -1.0
outer loop
vertex -4.0 -6.92820323027551 0.0
vertex -5.65685424949238 5.65685424949238 0.0
vertex -4.0 6.92820323027551 0.0
endloop
endfacet
facet normal 0.0 0.0 -1.0
outer loop
vertex -4.0 -6.92820323027551 0.0
vertex -4.0 6.92820323027551 0.0
vertex -2.07055236082017 -7.72740661031254 0.0
endloop
endfacet
facet normal 0.0 0.0 -1.0
outer loop
vertex -2.07055236082017 -7.72740661031254 0.0
vertex -4.0 6.92820323027551 0.0
vertex -2.07055236082016 7.72740661031255 0.0
endloop
endfacet
facet normal 0.0 0.0 -1.0
outer loop
vertex -2.07055236082017 -7.72740661031254 0.0
vertex -2.07055236082016 7.72740661031255 0.0
vertex -2.0 -1.62797758163361 0.0
endloop
endfacet
facet normal 0.0 0.0 -1.0
outer loop
vertex -2.07055236082017 -7.72740661031254 0.0
vertex -2.0 -1.62797758163361 0.0
vertex -1.40998324127395e-015 -8.0 0.0
endloop
endfacet
facet normal 0.0 0.0 -1.0
outer loop
vertex -2.0 -1.62797758163361 0.0
vertex -2.07055236082016 7.72740661031255 0.0
vertex -2.0 1.62797758163361 0.0
endloop
endfacet
facet normal 0.0 0.0 -1.0
outer loop
vertex -1.40998324127395e-015 -8.0 0.0
vertex -2.0 -1.62797758163361 0.0
vertex -1.83847763108502 -1.83847763108502 0.0
endloop
endfacet
facet normal 0.0 0.0 -1.0
outer loop
vertex -1.40998324127395e-015 -8.0 0.0
vertex -1.83847763108502 -1.83847763108502 0.0
vertex -1.3 -2.25166604983954 0.0
endloop
endfacet
facet normal 0.0 0.0 -1.0
outer loop
vertex -1.40998324127395e-015 -8.0 0.0
vertex -1.3 -2.25166604983954 0.0
vertex -0.672929517266555 -2.51140714835158 0.0
endloop
endfacet
facet normal 0.0 0.0 -1.0
outer loop
vertex -1.40998324127395e-015 -8.0 0.0
vertex -0.672929517266555 -2.51140714835158 0.0
vertex 0.0 -2.6 0.0
endloop
endfacet
facet normal 0.0 0.0 -1.0
outer loop
vertex -1.40998324127395e-015 -8.0 0.0
vertex 0.0 -2.6 0.0
vertex 2.07055236082016 -7.72740661031255 0.0
endloop
endfacet
facet normal 0.0 0.0 -1.0
outer loop
vertex 2.07055236082016 -7.72740661031255 0.0
vertex 0.0 -2.6 0.0
vertex 0.672929517266553 -2.51140714835158 0.0
endloop
endfacet
facet normal 0.0 0.0 -1.0
outer loop
vertex 2.07055236082016 -7.72740661031255 0.0
vertex 0.672929517266553 -2.51140714835158 0.0
vertex 1.3 -2.25166604983954 0.0
endloop
endfacet
facet normal 0.0 0.0 -1.0
outer loop
vertex 2.07055236082016 -7.72740661031255 0.0
vertex 1.3 -2.25166604983954 0.0
vertex 1.83847763108502 -1.83847763108502 0.0
endloop
endfacet
facet normal 0.0 0.0 -1.0
outer loop
vertex 2.07055236082016 -7.72740661031255 0.0
vertex 1.83847763108502 -1.83847763108502 0.0
vertex 2.25166604983954 -1.3 0.0
endloop
endfacet
facet normal 0.0 0.0 -1.0
outer loop
vertex 2.07055236082016 -7.72740661031255 0.0
vertex 2.25166604983954 -1.3 0.0
vertex 3.99999999999999 -6.92820323027551 0.0
endloop
endfacet
facet normal 0.0 0.0 -1.0
outer loop
vertex 3.99999999999999 -6.92820323027551 0.0
vertex 2.25166604983954 -1.3 0.0
vertex 2.51140714835158 -0.672929517266556 0.0
endloop
endfacet
facet normal 0.0 0.0 -1.0
outer loop
vertex 3.99999999999999 -6.92820323027551 0.0
vertex 2.51140714835158 -0.672929517266556 0.0
vertex 2.6 0.0 0.0
endloop
endfacet
facet normal -1.0 2.94066626556348e-016 0.0
outer loop
vertex 2.6 0.0 21.0
vertex 2.51140714835158 -0.672929517266556 0.0
vertex 2.51140714835158 -0.672929517266556 21.0
endloop
endfacet
facet normal -0.965925826289068 0.258819045102521 0.0
outer loop
vertex 2.51140714835158 -0.672929517266556 0.0
vertex 2.6 0.0 21.0
vertex 2.6 0.0 0.0
endloop
endfacet
facet normal -0.965925826289068 -0.25881904510252 0.0
outer loop
vertex 2.51140714835158 0.672929517266553 21.0
vertex 2.6 0.0 0.0
vertex 2.6 0.0 21.0
endloop
endfacet
facet normal -1.0 2.94066626556348e-016 0.0
outer loop
vertex 2.6 0.0 0.0
vertex 2.51140714835158 0.672929517266553 21.0
vertex 2.51140714835158 0.672929517266553 0.0
endloop
endfacet
facet normal -0.866025403784439 -0.5 0.0
outer loop
vertex 2.25166604983954 1.3 21.0
vertex 2.51140714835158 0.672929517266553 0.0
vertex 2.51140714835158 0.672929517266553 21.0
endloop
endfacet
facet normal -0.965925826289068 -0.25881904510252 0.0
outer loop
vertex 2.51140714835158 0.672929517266553 0.0
vertex 2.25166604983954 1.3 21.0
vertex 2.25166604983954 1.3 0.0
endloop
endfacet
facet normal -0.707106781186548 -0.707106781186547 0.0
outer loop
vertex 1.83847763108502 1.83847763108502 21.0
vertex 2.25166604983954 1.3 0.0
vertex 2.25166604983954 1.3 21.0
endloop
endfacet
facet normal -0.866025403784439 -0.5 0.0
outer loop
vertex 2.25166604983954 1.3 0.0
vertex 1.83847763108502 1.83847763108502 21.0
vertex 1.83847763108502 1.83847763108502 0.0
endloop
endfacet
facet normal 0.0 0.0 1.0
outer loop
vertex -7.72740661031255 -2.07055236082016 31.0
vertex -7.72740661031254 2.07055236082017 31.0
vertex -8.0 1.40998324127395e-015 31.0
endloop
endfacet
facet normal 0.0 0.0 1.0
outer loop
vertex -7.72740661031254 2.07055236082017 31.0
vertex -7.72740661031255 -2.07055236082016 31.0
vertex -6.92820323027551 -4.0 31.0
endloop
endfacet
facet normal 0.0 0.0 1.0
outer loop
vertex -7.72740661031254 2.07055236082017 31.0
vertex -6.92820323027551 -4.0 31.0
vertex -6.92820323027551 4.0 31.0
endloop
endfacet
facet normal 0.0 0.0 1.0
outer loop
vertex -6.92820323027551 4.0 31.0
vertex -6.92820323027551 -4.0 31.0
vertex -5.65685424949238 -5.65685424949238 31.0
endloop
endfacet
facet normal 0.0 0.0 1.0
outer loop
vertex -6.92820323027551 4.0 31.0
vertex -5.65685424949238 -5.65685424949238 31.0
vertex -6.0 -1.40998324127395e-015 31.0
endloop
endfacet
facet normal 0.0 0.0 1.0
outer loop
vertex -6.0 -1.40998324127395e-015 31.0
vertex -5.65685424949238 -5.65685424949238 31.0
vertex -5.79555495773441 -1.55291427061513 31.0
endloop
endfacet
facet normal 0.0 0.0 1.0
outer loop
vertex -5.79555495773441 -1.55291427061513 31.0
vertex -5.65685424949238 -5.65685424949238 31.0
vertex -5.19615242270663 -3.0 31.0
endloop
endfacet
facet normal 0.0 0.0 1.0
outer loop
vertex -5.19615242270663 -3.0 31.0
vertex -5.65685424949238 -5.65685424949238 31.0
vertex -4.0 -6.92820323027551 31.0
endloop
endfacet
facet normal 0.0 0.0 1.0
outer loop
vertex -5.19615242270663 -3.0 31.0
vertex -4.0 -6.92820323027551 31.0
vertex -4.24264068711928 -4.24264068711929 31.0
endloop
endfacet
facet normal 0.0 0.0 1.0
outer loop
vertex -4.24264068711928 -4.24264068711929 31.0
vertex -4.0 -6.92820323027551 31.0
vertex -3.0 -5.19615242270663 31.0
endloop
endfacet
facet normal 0.0 0.0 1.0
outer loop
vertex -3.0 -5.19615242270663 31.0
vertex -4.0 -6.92820323027551 31.0
vertex -2.07055236082017 -7.72740661031254 31.0
endloop
endfacet
facet normal 0.0 0.0 1.0
outer loop
vertex -3.0 -5.19615242270663 31.0
vertex -2.07055236082017 -7.72740661031254 31.0
vertex -1.55291427061512 -5.79555495773441 31.0
endloop
endfacet
facet normal 0.0 0.0 1.0
outer loop
vertex -1.55291427061512 -5.79555495773441 31.0
vertex -2.07055236082017 -7.72740661031254 31.0
vertex -1.40998324127395e-015 -8.0 31.0
endloop
endfacet
facet normal 0.0 0.0 1.0
outer loop
vertex -1.55291427061512 -5.79555495773441 31.0
vertex -1.40998324127395e-015 -8.0 31.0
vertex 1.40998324127395e-015 -6.0 31.0
endloop
endfacet
facet normal 0.0 0.0 1.0
outer loop
vertex 1.40998324127395e-015 -6.0 31.0
vertex -1.40998324127395e-015 -8.0 31.0
vertex 2.07055236082016 -7.72740661031255 31.0
endloop
endfacet
facet normal 0.0 0.0 1.0
outer loop
vertex 1.40998324127395e-015 -6.0 31.0
vertex 2.07055236082016 -7.72740661031255 31.0
vertex 1.55291427061513 -5.79555495773441 31.0
endloop
endfacet
facet normal 0.0 0.0 1.0
outer loop
vertex 1.55291427061513 -5.79555495773441 31.0
vertex 2.07055236082016 -7.72740661031255 31.0
vertex 3.0 -5.19615242270663 31.0
endloop
endfacet
facet normal 0.0 0.0 1.0
outer loop
vertex 3.0 -5.19615242270663 31.0
vertex 2.07055236082016 -7.72740661031255 31.0
vertex 3.99999999999999 -6.92820323027551 31.0
endloop
endfacet
facet normal 0.0 0.0 1.0
outer loop
vertex 3.0 -5.19615242270663 31.0
vertex 3.99999999999999 -6.92820323027551 31.0
vertex 4.24264068711929 -4.24264068711928 31.0
endloop
endfacet
facet normal 0.0 0.0 1.0
outer loop
vertex 4.24264068711929 -4.24264068711928 31.0
vertex 3.99999999999999 -6.92820323027551 31.0
vertex 5.65685424949238 -5.65685424949238 31.0
endloop
endfacet
facet normal 0.0 0.0 1.0
outer loop
vertex 4.24264068711929 -4.24264068711928 31.0
vertex 5.65685424949238 -5.65685424949238 31.0
vertex 5.19615242270663 -3.0 31.0
endloop
endfacet
facet normal 0.0 0.0 1.0
outer loop
vertex 5.19615242270663 -3.0 31.0
vertex 5.65685424949238 -5.65685424949238 31.0
vertex 5.79555495773441 -1.55291427061512 31.0
endloop
endfacet
facet normal 0.0 0.0 1.0
outer loop
vertex 5.79555495773441 -1.55291427061512 31.0
vertex 5.65685424949238 -5.65685424949238 31.0
vertex 6.92820323027551 -4.0 31.0
endloop
endfacet
facet normal 0.0 0.0 1.0
outer loop
vertex 5.79555495773441 -1.55291427061512 31.0
vertex 6.92820323027551 -4.0 31.0
vertex 6.0 0.0 31.0
endloop
endfacet
facet normal 0.0 0.0 1.0
outer loop
vertex -6.0 -1.40998324127395e-015 31.0
vertex -5.65685424949238 5.65685424949238 31.0
vertex -6.92820323027551 4.0 31.0
endloop
endfacet
facet normal 0.0 0.0 1.0
outer loop
vertex -5.65685424949238 5.65685424949238 31.0
vertex -6.0 -1.40998324127395e-015 31.0
vertex -5.79555495773441 1.55291427061512 31.0
endloop
endfacet
facet normal 0.0 0.0 1.0
outer loop
vertex -5.65685424949238 5.65685424949238 31.0
vertex -5.79555495773441 1.55291427061512 31.0
vertex -5.19615242270663 3.0 31.0
endloop
endfacet
facet normal 0.0 0.0 1.0
outer loop
vertex -5.65685424949238 5.65685424949238 31.0
vertex -5.19615242270663 3.0 31.0
vertex -4.0 6.92820323027551 31.0
endloop
endfacet
facet normal 0.0 0.0 1.0
outer loop
vertex -4.0 6.92820323027551 31.0
vertex -5.19615242270663 3.0 31.0
vertex -4.24264068711929 4.24264068711928 31.0
endloop
endfacet
facet normal 0.0 0.0 1.0
outer loop
vertex -4.0 6.92820323027551 31.0
vertex -4.24264068711929 4.24264068711928 31.0
vertex -3.0 5.19615242270663 31.0
endloop
endfacet
facet normal 0.0 0.0 1.0
outer loop
vertex -4.0 6.92820323027551 31.0
vertex -3.0 5.19615242270663 31.0
vertex -2.07055236082016 7.72740661031255 31.0
endloop
endfacet
facet normal 0.0 0.0 1.0
outer loop
vertex -2.07055236082016 7.72740661031255 31.0
vertex -3.0 5.19615242270663 31.0
vertex -1.55291427061513 5.79555495773441 31.0
endloop
endfacet
facet normal 0.0 0.0 1.0
outer loop
vertex -2.07055236082016 7.72740661031255 31.0
vertex -1.55291427061513 5.79555495773441 31.0
vertex 0.0 8.0 31.0
endloop
endfacet
facet normal 0.0 0.0 1.0
outer loop
vertex 0.0 8.0 31.0
vertex -1.55291427061513 5.79555495773441 31.0
vertex 0.0 6.0 31.0
endloop
endfacet
facet normal 0.0 0.0 1.0
outer loop
vertex 0.0 8.0 31.0
vertex 0.0 6.0 31.0
vertex 1.55291427061512 5.79555495773441 31.0
endloop
endfacet
facet normal 0.0 0.0 1.0
outer loop
vertex 0.0 8.0 31.0
vertex 1.55291427061512 5.79555495773441 31.0
vertex 2.07055236082017 7.72740661031255 31.0
endloop
endfacet
facet normal 0.0 0.0 1.0
outer loop
vertex 2.07055236082017 7.72740661031255 31.0
vertex 1.55291427061512 5.79555495773441 31.0
vertex 3.0 5.19615242270663 31.0
endloop
endfacet
facet normal 0.0 0.0 1.0
outer loop
vertex 2.07055236082017 7.72740661031255 31.0
vertex 3.0 5.19615242270663 31.0
vertex 4.0 6.92820323027551 31.0
endloop
endfacet
facet normal 0.0 0.0 1.0
outer loop
vertex 4.0 6.92820323027551 31.0
vertex 3.0 5.19615242270663 31.0
vertex 4.24264068711929 4.24264068711928 31.0
endloop
endfacet
facet normal 0.0 0.0 1.0
outer loop
vertex 4.0 6.92820323027551 31.0
vertex 4.24264068711929 4.24264068711928 31.0
vertex 5.65685424949238 5.65685424949238 31.0
endloop
endfacet
facet normal 0.0 0.0 1.0
outer loop
vertex 5.65685424949238 5.65685424949238 31.0
vertex 4.24264068711929 4.24264068711928 31.0
vertex 5.19615242270663 3.0 31.0
endloop
endfacet
facet normal 0.0 0.0 1.0
outer loop
vertex 5.65685424949238 5.65685424949238 31.0
vertex 5.19615242270663 3.0 31.0
vertex 5.79555495773441 1.55291427061513 31.0
endloop
endfacet
facet normal 0.0 0.0 1.0
outer loop
vertex 5.65685424949238 5.65685424949238 31.0
vertex 5.79555495773441 1.55291427061513 31.0
vertex 6.92820323027551 4.0 31.0
endloop
endfacet
facet normal 0.0 0.0 1.0
outer loop
vertex 6.92820323027551 4.0 31.0
vertex 5.79555495773441 1.55291427061513 31.0
vertex 6.0 0.0 31.0
endloop
endfacet
facet normal 0.0 0.0 1.0
outer loop
vertex 6.92820323027551 4.0 31.0
vertex 6.0 0.0 31.0
vertex 6.92820323027551 -4.0 31.0
endloop
endfacet
facet normal 0.0 0.0 1.0
outer loop
vertex 6.92820323027551 4.0 31.0
vertex 6.92820323027551 -4.0 31.0
vertex 7.72740661031254 -2.07055236082017 31.0
endloop
endfacet
facet normal 0.0 0.0 1.0
outer loop
vertex 6.92820323027551 4.0 31.0
vertex 7.72740661031254 -2.07055236082017 31.0
vertex 7.72740661031254 2.07055236082017 31.0
endloop
endfacet
facet normal 0.0 0.0 1.0
outer loop
vertex 7.72740661031254 2.07055236082017 31.0
vertex 7.72740661031254 -2.07055236082017 31.0
vertex 8.0 0.0 31.0
endloop
endfacet
facet normal 0.5 -0.866025403784439 0.0
outer loop
vertex -1.3 2.25166604983954 21.0
vertex -1.83847763108502 1.83847763108502 0.0
vertex -1.3 2.25166604983954 0.0
endloop
endfacet
facet normal 0.707106781186548 -0.707106781186548 0.0
outer loop
vertex -1.83847763108502 1.83847763108502 0.0
vertex -1.3 2.25166604983954 21.0
vertex -1.83847763108502 1.83847763108502 21.0
endloop
endfacet
facet normal 0.707106781186548 -0.707106781186548 0.0
outer loop
vertex -1.83847763108502 1.83847763108502 0.0
vertex -2.0 1.62797758163361 21.0
vertex -2.0 1.62797758163361 0.0
endloop
endfacet
facet normal 0.793353340291235 -0.608761429008721 0.0
outer loop
vertex -2.0 1.62797758163361 21.0
vertex -1.83847763108502 1.83847763108502 0.0
vertex -1.83847763108502 1.83847763108502 21.0
endloop
endfacet
facet normal 1.0 0.0 0.0
outer loop
vertex -2.0 1.62797758163361 0.0
vertex -2.0 -1.62797758163361 21.0
vertex -2.0 -1.62797758163361 0.0
endloop
endfacet
facet normal 1.0 0.0 0.0
outer loop
vertex -2.0 -1.62797758163361 21.0
vertex -2.0 1.62797758163361 0.0
vertex -2.0 1.62797758163361 21.0
endloop
endfacet
facet normal 0.793353340291234 0.608761429008722 0.0
outer loop
vertex -2.0 -1.62797758163361 0.0
vertex -1.83847763108502 -1.83847763108502 21.0
vertex -1.83847763108502 -1.83847763108502 0.0
endloop
endfacet
facet normal 0.707106781186547 0.707106781186548 0.0
outer loop
vertex -1.83847763108502 -1.83847763108502 21.0
vertex -2.0 -1.62797758163361 0.0
vertex -2.0 -1.62797758163361 21.0
endloop
endfacet
facet normal 0.707106781186547 0.707106781186548 0.0
outer loop
vertex -1.83847763108502 -1.83847763108502 21.0
vertex -1.3 -2.25166604983954 0.0
vertex -1.83847763108502 -1.83847763108502 0.0
endloop
endfacet
facet normal 0.5 0.866025403784439 0.0
outer loop
vertex -1.3 -2.25166604983954 0.0
vertex -1.83847763108502 -1.83847763108502 21.0
vertex -1.3 -2.25166604983954 21.0
endloop
endfacet
facet normal 0.5 0.866025403784439 0.0
outer loop
vertex -1.3 -2.25166604983954 21.0
vertex -0.672929517266555 -2.51140714835158 0.0
vertex -1.3 -2.25166604983954 0.0
endloop
endfacet
facet normal 0.258819045102521 0.965925826289068 0.0
outer loop
vertex -0.672929517266555 -2.51140714835158 0.0
vertex -1.3 -2.25166604983954 21.0
vertex -0.672929517266555 -2.51140714835158 21.0
endloop
endfacet
facet normal -0.258819045102521 0.965925826289068 0.0
outer loop
vertex -2.07055236082016 7.72740661031255 31.0
vertex 0.0 8.0 0.0
vertex -2.07055236082016 7.72740661031255 0.0
endloop
endfacet
facet normal -7.12888791651753e-017 1.0 0.0
outer loop
vertex 0.0 8.0 0.0
vertex -2.07055236082016 7.72740661031255 31.0
vertex 0.0 8.0 31.0
endloop
endfacet
facet normal -0.25881904510252 0.965925826289068 0.0
outer loop
vertex 0.672929517266553 -2.51140714835158 21.0
vertex 1.3 -2.25166604983954 0.0
vertex 0.672929517266553 -2.51140714835158 0.0
endloop
endfacet
facet normal -0.5 0.866025403784439 0.0
outer loop
vertex 1.3 -2.25166604983954 0.0
vertex 0.672929517266553 -2.51140714835158 21.0
vertex 1.3 -2.25166604983954 21.0
endloop
endfacet
facet normal 0.258819045102521 0.965925826289068 0.0
outer loop
vertex -0.672929517266555 -2.51140714835158 21.0
vertex 0.0 -2.6 0.0
vertex -0.672929517266555 -2.51140714835158 0.0
endloop
endfacet
facet normal 4.18822165095404e-016 1.0 0.0
outer loop
vertex 0.0 -2.6 0.0
vertex -0.672929517266555 -2.51140714835158 21.0
vertex 0.0 -2.6 21.0
endloop
endfacet
facet normal 4.18822165095404e-016 1.0 0.0
outer loop
vertex 0.0 -2.6 21.0
vertex 0.672929517266553 -2.51140714835158 0.0
vertex 0.0 -2.6 0.0
endloop
endfacet
facet normal -0.25881904510252 0.965925826289068 0.0
outer loop
vertex 0.672929517266553 -2.51140714835158 0.0
vertex 0.0 -2.6 21.0
vertex 0.672929517266553 -2.51140714835158 21.0
endloop
endfacet
facet normal -0.500000000000001 -0.866025403784438 0.0
outer loop
vertex 1.3 2.25166604983954 21.0
vertex 0.672929517266556 2.51140714835158 0.0
vertex 1.3 2.25166604983954 0.0
endloop
endfacet
facet normal -0.258819045102521 -0.965925826289068 0.0
outer loop
vertex 0.672929517266556 2.51140714835158 0.0
vertex 1.3 2.25166604983954 21.0
vertex 0.672929517266556 2.51140714835158 21.0
endloop
endfacet
facet normal -0.707106781186548 -0.707106781186547 0.0
outer loop
vertex 1.83847763108502 1.83847763108502 21.0
vertex 1.3 2.25166604983954 0.0
vertex 1.83847763108502 1.83847763108502 0.0
endloop
endfacet
facet normal -0.500000000000001 -0.866025403784438 0.0
outer loop
vertex 1.3 2.25166604983954 0.0
vertex 1.83847763108502 1.83847763108502 21.0
vertex 1.3 2.25166604983954 21.0
endloop
endfacet
facet normal -5.34666593738814e-017 -1.0 0.0
outer loop
vertex 0.0 2.6 21.0
vertex -0.672929517266553 2.51140714835158 0.0
vertex 0.0 2.6 0.0
endloop
endfacet
facet normal 0.258819045102521 -0.965925826289068 0.0
outer loop
vertex -0.672929517266553 2.51140714835158 0.0
vertex 0.0 2.6 21.0
vertex -0.672929517266553 2.51140714835158 21.0
endloop
endfacet
facet normal 0.258819045102521 -0.965925826289068 0.0
outer loop
vertex -0.672929517266553 2.51140714835158 21.0
vertex -1.3 2.25166604983954 0.0
vertex -0.672929517266553 2.51140714835158 0.0
endloop
endfacet
facet normal 0.5 -0.866025403784439 0.0
outer loop
vertex -1.3 2.25166604983954 0.0
vertex -0.672929517266553 2.51140714835158 21.0
vertex -1.3 2.25166604983954 21.0
endloop
endfacet
endsolid Egg Cup Drive
