solid Egg Cup Idle
facet normal 0.965925826289068 0.258819045102521 0.0
outer loop
vertex -2.89777747886721 -0.776457135307564 19.0
vertex -2.59807621135332 -1.5 26.0
vertex -2.59807621135332 -1.5 19.0
endloop
endfacet
facet normal 0.866025403784438 0.500000000000001 0.0
outer loop
vertex -2.59807621135332 -1.5 26.0
vertex -2.89777747886721 -0.776457135307564 19.0
vertex -2.89777747886721 -0.776457135307564 26.0
endloop
endfacet
facet normal -0.5 -0.866025403784439 0.0
outer loop
vertex 1.5 2.59807621135331 26.0
vertex 0.776457135307563 2.89777747886721 19.0
vertex 1.5 2.59807621135331 19.0
endloop
endfacet
facet normal -0.258819045102522 -0.965925826289068 0.0
outer loop
vertex 0.776457135307563 2.89777747886721 19.0
vertex 1.5 2.59807621135331 26.0
vertex 0.776457135307563 2.89777747886721 26.0
endloop
endfacet
facet normal -0.258819045102522 -0.965925826289068 0.0
outer loop
vertex 0.776457135307563 2.89777747886721 26.0
vertex 1.40998324127395e-015 3.0 19.0
vertex 0.776457135307563 2.89777747886721 19.0
endloop
endfacet
facet normal -1.24755538539057e-016 -1.0 0.0
outer loop
vertex 1.40998324127395e-015 3.0 19.0
vertex 0.776457135307563 2.89777747886721 26.0
vertex 1.40998324127395e-015 3.0 26.0
endloop
endfacet
facet normal -1.24755538539057e-016 -1.0 0.0
outer loop
vertex 1.40998324127395e-015 3.0 26.0
vertex -0.776457135307561 2.89777747886721 19.0
vertex 1.40998324127395e-015 3.0 19.0
endloop
endfacet
facet normal 0.258819045102521 -0.965925826289068 0.0
outer loop
vertex -0.776457135307561 2.89777747886721 19.0
vertex 1.40998324127395e-015 3.0 26.0
vertex -0.776457135307561 2.89777747886721 26.0
endloop
endfacet
facet normal 0.258819045102521 -0.965925826289068 0.0
outer loop
vertex -0.776457135307561 2.89777747886721 26.0
vertex -1.5 2.59807621135332 19.0
vertex -0.776457135307561 2.89777747886721 19.0
endloop
endfacet
facet normal 0.499999999999999 -0.866025403784439 0.0
outer loop
vertex -1.5 2.59807621135332 19.0
vertex -0.776457135307561 2.89777747886721 26.0
vertex -1.5 2.59807621135332 26.0
endloop
endfacet
facet normal 0.499999999999999 -0.866025403784439 0.0
outer loop
vertex -1.5 2.59807621135332 26.0
vertex -2.12132034355964 2.12132034355964 19.0
vertex -1.5 2.59807621135332 19.0
endloop
endfacet
facet normal 0.707106781186547 -0.707106781186548 0.0
outer loop
vertex -2.12132034355964 2.12132034355964 19.0
vertex -1.5 2.59807621135332 26.0
vertex -2.12132034355964 2.12132034355964 26.0
endloop
endfacet
facet normal -0.258819045102521 0.965925826289068 0.0
outer loop
vertex 0.776457135307564 -2.89777747886721 26.0
vertex 1.5 -2.59807621135332 19.0
vertex 0.776457135307564 -2.89777747886721 19.0
endloop
endfacet
facet normal -0.5 0.866025403784439 0.0
outer loop
vertex 1.5 -2.59807621135332 19.0
vertex 0.776457135307564 -2.89777747886721 26.0
vertex 1.5 -2.59807621135332 26.0
endloop
endfacet
facet normal -0.5 0.866025403784439 0.0
outer loop
vertex 1.5 -2.59807621135332 26.0
vertex 2.12132034355964 -2.12132034355964 19.0
vertex 1.5 -2.59807621135332 19.0
endloop
endfacet
facet normal -0.707106781186548 0.707106781186547 0.0
outer loop
vertex 2.12132034355964 -2.12132034355964 19.0
vertex 1.5 -2.59807621135332 26.0
vertex 2.12132034355964 -2.12132034355964 26.0
endloop
endfacet
facet normal -0.866025403784439 0.5 0.0
outer loop
vertex 2.59807621135332 -1.5 26.0
vertex 2.12132034355964 -2.12132034355964 19.0
vertex 2.12132034355964 -2.12132034355964 26.0
endloop
endfacet
facet normal -0.707106781186548 0.707106781186547 0.0
outer loop
vertex 2.12132034355964 -2.12132034355964 19.0
vertex 2.59807621135332 -1.5 26.0
vertex 2.59807621135332 -1.5 19.0
endloop
endfacet
facet normal -0.965925826289068 0.258819045102521 0.0
outer loop
vertex 2.89777747886721 -0.776457135307563 26.0
vertex 2.59807621135332 -1.5 19.0
vertex 2.59807621135332 -1.5 26.0
endloop
endfacet
facet normal -0.866025403784439 0.5 0.0
outer loop
vertex 2.59807621135332 -1.5 19.0
vertex 2.89777747886721 -0.776457135307563 26.0
vertex 2.89777747886721 -0.776457135307563 19.0
endloop
endfacet
facet normal -1.0 2.49511077078113e-016 0.0
outer loop
vertex 3.0 -1.40998324127395e-015 26.0
vertex 2.89777747886721 -0.776457135307563 19.0
vertex 2.89777747886721 -0.776457135307563 26.0
endloop
endfacet
facet normal -0.965925826289068 0.258819045102521 0.0
outer loop
vertex 2.89777747886721 -0.776457135307563 19.0
vertex 3.0 -1.40998324127395e-015 26.0
vertex 3.0 -1.40998324127395e-015 19.0
endloop
endfacet
facet normal 2.49511077078113e-016 1.0 0.0
outer loop
vertex 0.0 -3.0 26.0
vertex 0.776457135307564 -2.89777747886721 19.0
vertex 0.0 -3.0 19.0
endloop
endfacet
facet normal -0.258819045102521 0.965925826289068 0.0
outer loop
vertex 0.776457135307564 -2.89777747886721 19.0
vertex 0.0 -3.0 26.0
vertex 0.776457135307564 -2.89777747886721 26.0
endloop
endfacet
facet normal 0.0 0.0 1.0
outer loop
vertex -2.89777747886721 -0.776457135307564 19.0
vertex -2.89777747886721 0.776457135307563 19.0
vertex -3.0 1.40998324127395e-015 19.0
endloop
endfacet
facet normal 0.0 0.0 1.0
outer loop
vertex -2.89777747886721 0.776457135307563 19.0
vertex -2.89777747886721 -0.776457135307564 19.0
vertex -2.59807621135332 -1.5 19.0
endloop
endfacet
facet normal 0.0 0.0 1.0
outer loop
vertex -2.89777747886721 0.776457135307563 19.0
vertex -2.59807621135332 -1.5 19.0
vertex -2.59807621135331 1.5 19.0
endloop
endfacet
facet normal 0.0 0.0 1.0
outer loop
vertex -2.59807621135331 1.5 19.0
vertex -2.59807621135332 -1.5 19.0
vertex -2.12132034355964 -2.12132034355964 19.0
endloop
endfacet
facet normal 0.0 0.0 1.0
outer loop
vertex -2.59807621135331 1.5 19.0
vertex -2.12132034355964 -2.12132034355964 19.0
vertex -2.12132034355964 2.12132034355964 19.0
endloop
endfacet
facet normal 0.0 0.0 1.0
outer loop
vertex -2.12132034355964 2.12132034355964 19.0
vertex -2.12132034355964 -2.12132034355964 19.0
vertex -1.5 -2.59807621135332 19.0
endloop
endfacet
facet normal 0.0 0.0 1.0
outer loop
vertex -2.12132034355964 2.12132034355964 19.0
vertex -1.5 -2.59807621135332 19.0
vertex -1.5 2.59807621135332 19.0
endloop
endfacet
facet normal 0.0 0.0 1.0
outer loop
vertex -1.5 2.59807621135332 19.0
vertex -1.5 -2.59807621135332 19.0
vertex -0.776457135307561 -2.89777747886721 19.0
endloop
endfacet
facet normal 0.0 0.0 1.0
outer loop
vertex -1.5 2.59807621135332 19.0
vertex -0.776457135307561 -2.89777747886721 19.0
vertex -0.776457135307561 2.89777747886721 19.0
endloop
endfacet
facet normal 0.0 0.0 1.0
outer loop
vertex -0.776457135307561 2.89777747886721 19.0
vertex -0.776457135307561 -2.89777747886721 19.0
vertex 0.0 -3.0 19.0
endloop
endfacet
facet normal 0.0 0.0 1.0
outer loop
vertex -0.776457135307561 2.89777747886721 19.0
vertex 0.0 -3.0 19.0
vertex 1.40998324127395e-015 3.0 19.0
endloop
endfacet
facet normal 0.0 0.0 1.0
outer loop
vertex 1.40998324127395e-015 3.0 19.0
vertex 0.0 -3.0 19.0
vertex 0.776457135307564 -2.89777747886721 19.0
endloop
endfacet
facet normal 0.0 0.0 1.0
outer loop
vertex 1.40998324127395e-015 3.0 19.0
vertex 0.776457135307564 -2.89777747886721 19.0
vertex 0.776457135307563 2.89777747886721 19.0
endloop
endfacet
facet normal 0.0 0.0 1.0
outer loop
vertex 0.776457135307563 2.89777747886721 19.0
vertex 0.776457135307564 -2.89777747886721 19.0
vertex 1.5 2.59807621135331 19.0
endloop
endfacet
facet normal 0.0 0.0 1.0
outer loop
vertex 1.5 2.59807621135331 19.0
vertex 0.776457135307564 -2.89777747886721 19.0
vertex 1.5 -2.59807621135332 19.0
endloop
endfacet
facet normal 0.0 0.0 1.0
outer loop
vertex 1.5 2.59807621135331 19.0
vertex 1.5 -2.59807621135332 19.0
vertex 2.12132034355964 -2.12132034355964 19.0
endloop
endfacet
facet normal 0.0 0.0 1.0
outer loop
vertex 1.5 2.59807621135331 19.0
vertex 2.12132034355964 -2.12132034355964 19.0
vertex 2.12132034355964 2.12132034355964 19.0
endloop
endfacet
facet normal 0.0 0.0 1.0
outer loop
vertex 2.12132034355964 2.12132034355964 19.0
vertex 2.12132034355964 -2.12132034355964 19.0
vertex 2.59807621135332 -1.5 19.0
endloop
endfacet
facet normal 0.0 0.0 1.0
outer loop
vertex 2.12132034355964 2.12132034355964 19.0
vertex 2.59807621135332 -1.5 19.0
vertex 2.59807621135332 1.5 19.0
endloop
endfacet
facet normal 0.0 0.0 1.0
outer loop
vertex 2.59807621135332 1.5 19.0
vertex 2.59807621135332 -1.5 19.0
vertex 2.89777747886721 -0.776457135307563 19.0
endloop
endfacet
facet normal 0.0 0.0 1.0
outer loop
vertex 2.59807621135332 1.5 19.0
vertex 2.89777747886721 -0.776457135307563 19.0
vertex 2.89777747886721 0.776457135307563 19.0
endloop
endfacet
facet normal 0.0 0.0 1.0
outer loop
vertex 2.89777747886721 0.776457135307563 19.0
vertex 2.89777747886721 -0.776457135307563 19.0
vertex 3.0 -1.40998324127395e-015 19.0
endloop
endfacet
facet normal -0.965925826289068 -0.258819045102521 0.0
outer loop
vertex 2.89777747886721 0.776457135307563 26.0
vertex 3.0 -1.40998324127395e-015 19.0
vertex 3.0 -1.40998324127395e-015 26.0
endloop
endfacet
facet normal -1.0 2.49511077078113e-016 0.0
outer loop
vertex 3.0 -1.40998324127395e-015 19.0
vertex 2.89777747886721 0.776457135307563 26.0
vertex 2.89777747886721 0.776457135307563 19.0
endloop
endfacet
facet normal 0.866025403784438 0.500000000000001 0.0
outer loop
vertex -2.59807621135332 -1.5 19.0
vertex -2.12132034355964 -2.12132034355964 26.0
vertex -2.12132034355964 -2.12132034355964 19.0
endloop
endfacet
facet normal 0.707106781186547 0.707106781186548 0.0
outer loop
vertex -2.12132034355964 -2.12132034355964 26.0
vertex -2.59807621135332 -1.5 19.0
vertex -2.59807621135332 -1.5 26.0
endloop
endfacet
facet normal 0.707106781186547 0.707106781186548 0.0
outer loop
vertex -2.12132034355964 -2.12132034355964 26.0
vertex -1.5 -2.59807621135332 19.0
vertex -2.12132034355964 -2.12132034355964 19.0
endloop
endfacet
facet normal 0.5 0.866025403784439 0.0
outer loop
vertex -1.5 -2.59807621135332 19.0
vertex -2.12132034355964 -2.12132034355964 26.0
vertex -1.5 -2.59807621135332 26.0
endloop
endfacet
facet normal -0.866025403784439 -0.5 0.0
outer loop
vertex 2.59807621135332 1.5 26.0
vertex 2.89777747886721 0.776457135307563 19.0
vertex 2.89777747886721 0.776457135307563 26.0
endloop
endfacet
facet normal -0.965925826289068 -0.258819045102521 0.0
outer loop
vertex 2.89777747886721 0.776457135307563 19.0
vertex 2.59807621135332 1.5 26.0
vertex 2.59807621135332 1.5 19.0
endloop
endfacet
facet normal -0.707106781186547 -0.707106781186548 0.0
outer loop
vertex 2.12132034355964 2.12132034355964 26.0
vertex 2.59807621135332 1.5 19.0
vertex 2.59807621135332 1.5 26.0
endloop
endfacet
facet normal -0.866025403784439 -0.5 0.0
outer loop
vertex 2.59807621135332 1.5 19.0
vertex 2.12132034355964 2.12132034355964 26.0
vertex 2.12132034355964 2.12132034355964 19.0
endloop
endfacet
facet normal 0.5 0.866025403784439 0.0
outer loop
vertex -1.5 -2.59807621135332 26.0
vertex -0.776457135307561 -2.89777747886721 19.0
vertex -1.5 -2.59807621135332 19.0
endloop
endfacet
facet normal 0.258819045102521 0.965925826289068 0.0
outer loop
vertex -0.776457135307561 -2.89777747886721 19.0
vertex -1.5 -2.59807621135332 26.0
vertex -0.776457135307561 -2.89777747886721 26.0
endloop
endfacet
facet normal 0.258819045102521 0.965925826289068 0.0
outer loop
vertex -0.776457135307561 -2.89777747886721 26.0
vertex 0.0 -3.0 19.0
vertex -0.776457135307561 -2.89777747886721 19.0
endloop
endfacet
facet normal 2.49511077078113e-016 1.0 0.0
outer loop
vertex 0.0 -3.0 19.0
vertex -0.776457135307561 -2.89777747886721 26.0
vertex 0.0 -3.0 26.0
endloop
endfacet
facet normal -0.707106781186547 -0.707106781186548 0.0
outer loop
vertex 2.12132034355964 2.12132034355964 26.0
vertex 1.5 2.59807621135331 19.0
vertex 2.12132034355964 2.12132034355964 19.0
endloop
endfacet
facet normal -0.5 -0.866025403784439 0.0
outer loop
vertex 1.5 2.59807621135331 19.0
vertex 2.12132034355964 2.12132034355964 26.0
vertex 1.5 2.59807621135331 26.0
endloop
endfacet
facet normal -6.23777692695283e-017 1.0 0.0
outer loop
vertex 0.0 8.0 20.0
vertex 2.07055236082017 7.72740661031255 0.0
vertex 0.0 8.0 0.0
endloop
endfacet
facet normal 0.258819045102521 0.965925826289068 0.0
outer loop
vertex 2.07055236082017 7.72740661031255 0.0
vertex 0.0 8.0 20.0
vertex 2.07055236082017 7.72740661031255 20.0
endloop
endfacet
facet normal -0.5 -0.866025403784439 0.0
outer loop
vertex -4.0 -6.92820323027551 20.0
vertex -5.65685424949238 -5.65685424949238 0.0
vertex -4.0 -6.92820323027551 0.0
endloop
endfacet
facet normal -0.707106781186548 -0.707106781186547 0.0
outer loop
vertex -5.65685424949238 -5.65685424949238 0.0
vertex -4.0 -6.92820323027551 20.0
vertex -5.65685424949238 -5.65685424949238 20.0
endloop
endfacet
facet normal -4.27733274991051e-016 -1.0 0.0
outer loop
vertex -1.40998324127395e-015 -8.0 20.0
vertex -2.07055236082017 -7.72740661031254 0.0
vertex -1.40998324127395e-015 -8.0 0.0
endloop
endfacet
facet normal -0.258819045102521 -0.965925826289068 0.0
outer loop
vertex -2.07055236082017 -7.72740661031254 0.0
vertex -1.40998324127395e-015 -8.0 20.0
vertex -2.07055236082017 -7.72740661031254 20.0
endloop
endfacet
facet normal 0.866025403784439 0.5 0.0
outer loop
vertex 6.92820323027551 4.0 0.0
vertex 7.72740661031254 2.07055236082017 20.0
vertex 7.72740661031254 2.07055236082017 0.0
endloop
endfacet
facet normal 0.965925826289068 0.258819045102521 0.0
outer loop
vertex 7.72740661031254 2.07055236082017 20.0
vertex 6.92820323027551 4.0 0.0
vertex 6.92820323027551 4.0 20.0
endloop
endfacet
facet normal -0.866025403784439 0.5 0.0
outer loop
vertex -6.92820323027551 4.0 20.0
vertex -7.72740661031254 2.07055236082017 0.0
vertex -7.72740661031254 2.07055236082017 20.0
endloop
endfacet
facet normal -0.965925826289068 0.258819045102521 0.0
outer loop
vertex -7.72740661031254 2.07055236082017 0.0
vertex -6.92820323027551 4.0 20.0
vertex -6.92820323027551 4.0 0.0
endloop
endfacet
facet normal 0.5 0.866025403784439 0.0
outer loop
vertex 4.0 6.92820323027551 20.0
vertex 5.65685424949238 5.65685424949238 0.0
vertex 4.0 6.92820323027551 0.0
endloop
endfacet
facet normal 0.707106781186548 0.707106781186547 0.0
outer loop
vertex 5.65685424949238 5.65685424949238 0.0
vertex 4.0 6.92820323027551 20.0
vertex 5.65685424949238 5.65685424949238 20.0
endloop
endfacet
facet normal 0.965925826289068 -0.258819045102521 0.0
outer loop
vertex 7.72740661031254 -2.07055236082017 0.0
vertex 6.92820323027551 -4.0 20.0
vertex 6.92820323027551 -4.0 0.0
endloop
endfacet
facet normal 0.866025403784438 -0.5 0.0
outer loop
vertex 6.92820323027551 -4.0 20.0
vertex 7.72740661031254 -2.07055236082017 0.0
vertex 7.72740661031254 -2.07055236082017 20.0
endloop
endfacet
facet normal 0.866025403784438 -0.5 0.0
outer loop
vertex 6.92820323027551 -4.0 0.0
vertex 5.65685424949238 -5.65685424949238 20.0
vertex 5.65685424949238 -5.65685424949238 0.0
endloop
endfacet
facet normal 0.707106781186547 -0.707106781186548 0.0
outer loop
vertex 5.65685424949238 -5.65685424949238 20.0
vertex 6.92820323027551 -4.0 0.0
vertex 6.92820323027551 -4.0 20.0
endloop
endfacet
facet normal -0.866025403784439 -0.5 0.0
outer loop
vertex -6.92820323027551 -4.0 20.0
vertex -5.65685424949238 -5.65685424949238 0.0
vertex -5.65685424949238 -5.65685424949238 20.0
endloop
endfacet
facet normal -0.707106781186548 -0.707106781186547 0.0
outer loop
vertex -5.65685424949238 -5.65685424949238 0.0
vertex -6.92820323027551 -4.0 20.0
vertex -6.92820323027551 -4.0 0.0
endloop
endfacet
facet normal 0.258819045102521 0.965925826289068 0.0
outer loop
vertex 2.07055236082017 7.72740661031255 20.0
vertex 4.0 6.92820323027551 0.0
vertex 2.07055236082017 7.72740661031255 0.0
endloop
endfacet
facet normal 0.5 0.866025403784439 0.0
outer loop
vertex 4.0 6.92820323027551 0.0
vertex 2.07055236082017 7.72740661031255 20.0
vertex 4.0 6.92820323027551 20.0
endloop
endfacet
facet normal 0.5 -0.866025403784439 0.0
outer loop
vertex 3.99999999999999 -6.92820323027551 20.0
vertex 2.07055236082016 -7.72740661031255 0.0
vertex 3.99999999999999 -6.92820323027551 0.0
endloop
endfacet
facet normal 0.25881904510252 -0.965925826289068 0.0
outer loop
vertex 2.07055236082016 -7.72740661031255 0.0
vertex 3.99999999999999 -6.92820323027551 20.0
vertex 2.07055236082016 -7.72740661031255 20.0
endloop
endfacet
facet normal -0.707106781186548 0.707106781186548 0.0
outer loop
vertex -5.65685424949238 5.65685424949238 20.0
vertex -4.0 6.92820323027551 0.0
vertex -5.65685424949238 5.65685424949238 0.0
endloop
endfacet
facet normal -0.5 0.866025403784439 0.0
outer loop
vertex -4.0 6.92820323027551 0.0
vertex -5.65685424949238 5.65685424949238 20.0
vertex -4.0 6.92820323027551 20.0
endloop
endfacet
facet normal 0.0 0.0 -1.0
outer loop
vertex -4.0 6.92820323027551 0.0
vertex -3.76711072252736 1.00939427589983 0.0
vertex -3.9 0.0 0.0
endloop
endfacet
facet normal 0.0 0.0 -1.0
outer loop
vertex -3.76711072252736 1.00939427589983 0.0
vertex -4.0 6.92820323027551 0.0
vertex -2.07055236082016 7.72740661031255 0.0
endloop
endfacet
facet normal 0.0 0.0 -1.0
outer loop
vertex -3.76711072252736 1.00939427589983 0.0
vertex -2.07055236082016 7.72740661031255 0.0
vertex -3.37749907475931 1.95 0.0
endloop
endfacet
facet normal 0.0 0.0 -1.0
outer loop
vertex -3.37749907475931 1.95 0.0
vertex -2.07055236082016 7.72740661031255 0.0
vertex -2.75771644662753 2.75771644662754 0.0
endloop
endfacet
facet normal 0.0 0.0 -1.0
outer loop
vertex -2.75771644662753 2.75771644662754 0.0
vertex -2.07055236082016 7.72740661031255 0.0
vertex -1.95 3.37749907475931 0.0
endloop
endfacet
facet normal 0.0 0.0 -1.0
outer loop
vertex -1.95 3.37749907475931 0.0
vertex -2.07055236082016 7.72740661031255 0.0
vertex 0.0 8.0 0.0
endloop
endfacet
facet normal 0.0 0.0 -1.0
outer loop
vertex -1.95 3.37749907475931 0.0
vertex 0.0 8.0 0.0
vertex -1.00939427589983 3.76711072252737 0.0
endloop
endfacet
facet normal 0.0 0.0 -1.0
outer loop
vertex -1.00939427589983 3.76711072252737 0.0
vertex 0.0 8.0 0.0
vertex 1.40998324127395e-015 3.9 0.0
endloop
endfacet
facet normal 0.0 0.0 -1.0
outer loop
vertex 1.40998324127395e-015 3.9 0.0
vertex 0.0 8.0 0.0
vertex 2.07055236082017 7.72740661031255 0.0
endloop
endfacet
facet normal 0.0 0.0 -1.0
outer loop
vertex 1.40998324127395e-015 3.9 0.0
vertex 2.07055236082017 7.72740661031255 0.0
vertex 1.00939427589983 3.76711072252736 0.0
endloop
endfacet
facet normal 0.0 0.0 -1.0
outer loop
vertex 1.00939427589983 3.76711072252736 0.0
vertex 2.07055236082017 7.72740661031255 0.0
vertex 1.95 3.37749907475931 0.0
endloop
endfacet
facet normal 0.0 0.0 -1.0
outer loop
vertex 1.95 3.37749907475931 0.0
vertex 2.07055236082017 7.72740661031255 0.0
vertex 2.75771644662754 2.75771644662753 0.0
endloop
endfacet
facet normal 0.0 0.0 -1.0
outer loop
vertex 2.75771644662754 2.75771644662753 0.0
vertex 2.07055236082017 7.72740661031255 0.0
vertex 4.0 6.92820323027551 0.0
endloop
endfacet
facet normal 0.0 0.0 -1.0
outer loop
vertex 2.75771644662754 2.75771644662753 0.0
vertex 4.0 6.92820323027551 0.0
vertex 3.37749907475931 1.95 0.0
endloop
endfacet
facet normal 0.0 0.0 -1.0
outer loop
vertex 3.37749907475931 1.95 0.0
vertex 4.0 6.92820323027551 0.0
vertex 3.76711072252737 1.00939427589983 0.0
endloop
endfacet
facet normal 0.0 0.0 -1.0
outer loop
vertex 3.76711072252737 1.00939427589983 0.0
vertex 4.0 6.92820323027551 0.0
vertex 3.9 0.0 0.0
endloop
endfacet
facet normal 0.0 0.0 -1.0
outer loop
vertex 3.9 0.0 0.0
vertex 4.0 6.92820323027551 0.0
vertex 3.99999999999999 -6.92820323027551 0.0
endloop
endfacet
facet normal 0.0 0.0 -1.0
outer loop
vertex 3.99999999999999 -6.92820323027551 0.0
vertex 4.0 6.92820323027551 0.0
vertex 5.65685424949238 -5.65685424949238 0.0
endloop
endfacet
facet normal 0.0 0.0 -1.0
outer loop
vertex 5.65685424949238 -5.65685424949238 0.0
vertex 4.0 6.92820323027551 0.0
vertex 5.65685424949238 5.65685424949238 0.0
endloop
endfacet
facet normal 0.0 0.0 -1.0
outer loop
vertex 5.65685424949238 -5.65685424949238 0.0
vertex 5.65685424949238 5.65685424949238 0.0
vertex 6.92820323027551 -4.0 0.0
endloop
endfacet
facet normal 0.0 0.0 -1.0
outer loop
vertex 6.92820323027551 -4.0 0.0
vertex 5.65685424949238 5.65685424949238 0.0
vertex 6.92820323027551 4.0 0.0
endloop
endfacet
facet normal 0.0 0.0 -1.0
outer loop
vertex 6.92820323027551 -4.0 0.0
vertex 6.92820323027551 4.0 0.0
vertex 7.72740661031254 2.07055236082017 0.0
endloop
endfacet
facet normal 0.0 0.0 -1.0
outer loop
vertex 6.92820323027551 -4.0 0.0
vertex 7.72740661031254 2.07055236082017 0.0
vertex 7.72740661031254 -2.07055236082017 0.0
endloop
endfacet
facet normal 0.0 0.0 -1.0
outer loop
vertex 7.72740661031254 -2.07055236082017 0.0
vertex 7.72740661031254 2.07055236082017 0.0
vertex 8.0 0.0 0.0
endloop
endfacet
facet normal 0.0 0.0 -1.0
outer loop
vertex -7.72740661031254 2.07055236082017 0.0
vertex -7.72740661031255 -2.07055236082016 0.0
vertex -8.0 1.40998324127395e-015 0.0
endloop
endfacet
facet normal 0.0 0.0 -1.0
outer loop
vertex -7.72740661031255 -2.07055236082016 0.0
vertex -7.72740661031254 2.07055236082017 0.0
vertex -6.92820323027551 -4.0 0.0
endloop
endfacet
facet normal 0.0 0.0 -1.0
outer loop
vertex -6.92820323027551 -4.0 0.0
vertex -7.72740661031254 2.07055236082017 0.0
vertex -6.92820323027551 4.0 0.0
endloop
endfacet
facet normal 0.0 0.0 -1.0
outer loop
vertex -6.92820323027551 -4.0 0.0
vertex -6.92820323027551 4.0 0.0
vertex -5.65685424949238 -5.65685424949238 0.0
endloop
endfacet
facet normal 0.0 0.0 -1.0
outer loop
vertex -5.65685424949238 -5.65685424949238 0.0
vertex -6.92820323027551 4.0 0.0
vertex -5.65685424949238 5.65685424949238 0.0
endloop
endfacet
facet normal 0.0 0.0 -1.0
outer loop
vertex -5.65685424949238 -5.65685424949238 0.0
vertex -5.65685424949238 5.65685424949238 0.0
vertex -4.0 -6.92820323027551 0.0
endloop
endfacet
facet normal 0.0 0.0 -1.0
outer loop
vertex -4.0 -6.92820323027551 0.0
vertex -5.65685424949238 5.65685424949238 0.0
vertex -4.0 6.92820323027551 0.0
endloop
endfacet
facet normal 0.0 0.0 -1.0
outer loop
vertex -4.0 -6.92820323027551 0.0
vertex -4.0 6.92820323027551 0.0
vertex -3.9 0.0 0.0
endloop
endfacet
facet normal 0.0 0.0 -1.0
outer loop
vertex -4.0 -6.92820323027551 0.0
vertex -3.9 0.0 0.0
vertex -3.76711072252737 -1.00939427589983 0.0
endloop
endfacet
facet normal 0.0 0.0 -1.0
outer loop
vertex -4.0 -6.92820323027551 0.0
vertex -3.76711072252737 -1.00939427589983 0.0
vertex -2.07055236082017 -7.72740661031254 0.0
endloop
endfacet
facet normal 0.0 0.0 -1.0
outer loop
vertex -2.07055236082017 -7.72740661031254 0.0
vertex -3.76711072252737 -1.00939427589983 0.0
vertex -3.37749907475931 -1.95 0.0
endloop
endfacet
facet normal 0.0 0.0 -1.0
outer loop
vertex -2.07055236082017 -7.72740661031254 0.0
vertex -3.37749907475931 -1.95 0.0
vertex -2.75771644662754 -2.75771644662753 0.0
endloop
endfacet
facet normal 0.0 0.0 -1.0
outer loop
vertex -2.07055236082017 -7.72740661031254 0.0
vertex -2.75771644662754 -2.75771644662753 0.0
vertex -1.95 -3.37749907475931 0.0
endloop
endfacet
facet normal 0.0 0.0 -1.0
outer loop
vertex -2.07055236082017 -7.72740661031254 0.0
vertex -1.95 -3.37749907475931 0.0
vertex -1.40998324127395e-015 -8.0 0.0
endloop
endfacet
facet normal 0.0 0.0 -1.0
outer loop
vertex -1.40998324127395e-015 -8.0 0.0
vertex -1.95 -3.37749907475931 0.0
vertex -1.00939427589983 -3.76711072252736 0.0
endloop
endfacet
facet normal 0.0 0.0 -1.0
outer loop
vertex -1.40998324127395e-015 -8.0 0.0
vertex -1.00939427589983 -3.76711072252736 0.0
vertex 0.0 -3.9 0.0
endloop
endfacet
facet normal 0.0 0.0 -1.0
outer loop
vertex -1.40998324127395e-015 -8.0 0.0
vertex 0.0 -3.9 0.0
vertex 2.07055236082016 -7.72740661031255 0.0
endloop
endfacet
facet normal 0.0 0.0 -1.0
outer loop
vertex 2.07055236082016 -7.72740661031255 0.0
vertex 0.0 -3.9 0.0
vertex 1.00939427589983 -3.76711072252737 0.0
endloop
endfacet
facet normal 0.0 0.0 -1.0
outer loop
vertex 2.07055236082016 -7.72740661031255 0.0
vertex 1.00939427589983 -3.76711072252737 0.0
vertex 1.95 -3.37749907475931 0.0
endloop
endfacet
facet normal 0.0 0.0 -1.0
outer loop
vertex 2.07055236082016 -7.72740661031255 0.0
vertex 1.95 -3.37749907475931 0.0
vertex 2.75771644662753 -2.75771644662754 0.0
endloop
endfacet
facet normal 0.0 0.0 -1.0
outer loop
vertex 2.07055236082016 -7.72740661031255 0.0
vertex 2.75771644662753 -2.75771644662754 0.0
vertex 3.99999999999999 -6.92820323027551 0.0
endloop
endfacet
facet normal 0.0 0.0 -1.0
outer loop
vertex 3.99999999999999 -6.92820323027551 0.0
vertex 2.75771644662753 -2.75771644662754 0.0
vertex 3.37749907475931 -1.95 0.0
endloop
endfacet
facet normal 0.0 0.0 -1.0
outer loop
vertex 3.99999999999999 -6.92820323027551 0.0
vertex 3.37749907475931 -1.95 0.0
vertex 3.76711072252736 -1.00939427589983 0.0
endloop
endfacet
facet normal 0.0 0.0 -1.0
outer loop
vertex 3.99999999999999 -6.92820323027551 0.0
vertex 3.76711072252736 -1.00939427589983 0.0
vertex 3.9 0.0 0.0
endloop
endfacet
facet normal 0.707106781186548 0.707106781186547 0.0
outer loop
vertex 5.65685424949238 5.65685424949238 0.0
vertex 6.92820323027551 4.0 20.0
vertex 6.92820323027551 4.0 0.0
endloop
endfacet
facet normal 0.866025403784439 0.5 0.0
outer loop
vertex 6.92820323027551 4.0 20.0
vertex 5.65685424949238 5.65685424949238 0.0
vertex 5.65685424949238 5.65685424949238 20.0
endloop
endfacet
facet normal -0.258819045102521 -0.965925826289068 0.0
outer loop
vertex -2.07055236082017 -7.72740661031254 20.0
vertex -4.0 -6.92820323027551 0.0
vertex -2.07055236082017 -7.72740661031254 0.0
endloop
endfacet
facet normal -0.5 -0.866025403784439 0.0
outer loop
vertex -4.0 -6.92820323027551 0.0
vertex -2.07055236082017 -7.72740661031254 20.0
vertex -4.0 -6.92820323027551 20.0
endloop
endfacet
facet normal -0.707106781186548 0.707106781186548 0.0
outer loop
vertex -5.65685424949238 5.65685424949238 20.0
vertex -6.92820323027551 4.0 0.0
vertex -6.92820323027551 4.0 20.0
endloop
endfacet
facet normal -0.866025403784439 0.5 0.0
outer loop
vertex -6.92820323027551 4.0 0.0
vertex -5.65685424949238 5.65685424949238 20.0
vertex -5.65685424949238 5.65685424949238 0.0
endloop
endfacet
facet normal 0.707106781186547 -0.707106781186548 0.0
outer loop
vertex 5.65685424949238 -5.65685424949238 20.0
vertex 3.99999999999999 -6.92820323027551 0.0
vertex 5.65685424949238 -5.65685424949238 0.0
endloop
endfacet
facet normal 0.5 -0.866025403784439 0.0
outer loop
vertex 3.99999999999999 -6.92820323027551 0.0
vertex 5.65685424949238 -5.65685424949238 20.0
vertex 3.99999999999999 -6.92820323027551 20.0
endloop
endfacet
facet normal 1.0 -4.63377714573639e-016 0.0
outer loop
vertex 8.0 0.0 0.0
vertex 7.72740661031254 -2.07055236082017 20.0
vertex 7.72740661031254 -2.07055236082017 0.0
endloop
endfacet
facet normal 0.965925826289068 -0.258819045102521 0.0
outer loop
vertex 7.72740661031254 -2.07055236082017 20.0
vertex 8.0 0.0 0.0
vertex 8.0 0.0 20.0
endloop
endfacet
facet normal 0.965925826289068 0.258819045102521 0.0
outer loop
vertex 7.72740661031254 2.07055236082017 0.0
vertex 8.0 0.0 20.0
vertex 8.0 0.0 0.0
endloop
endfacet
facet normal 1.0 -4.63377714573639e-016 0.0
outer loop
vertex 8.0 0.0 20.0
vertex 7.72740661031254 2.07055236082017 0.0
vertex 7.72740661031254 2.07055236082017 20.0
endloop
endfacet
facet normal -0.258819045102521 0.965925826289068 0.0
outer loop
vertex -2.07055236082016 7.72740661031255 20.0
vertex 0.0 8.0 0.0
vertex -2.07055236082016 7.72740661031255 0.0
endloop
endfacet
facet normal -6.23777692695283e-017 1.0 0.0
outer loop
vertex 0.0 8.0 0.0
vertex -2.07055236082016 7.72740661031255 20.0
vertex 0.0 8.0 20.0
endloop
endfacet
facet normal -0.5 0.866025403784439 0.0
outer loop
vertex -4.0 6.92820323027551 20.0
vertex -2.07055236082016 7.72740661031255 0.0
vertex -4.0 6.92820323027551 0.0
endloop
endfacet
facet normal -0.258819045102521 0.965925826289068 0.0
outer loop
vertex -2.07055236082016 7.72740661031255 0.0
vertex -4.0 6.92820323027551 20.0
vertex -2.07055236082016 7.72740661031255 20.0
endloop
endfacet
facet normal 0.707106781186547 -0.707106781186548 0.0
outer loop
vertex -2.12132034355964 2.12132034355964 19.0
vertex -2.59807621135331 1.5 26.0
vertex -2.59807621135331 1.5 19.0
endloop
endfacet
facet normal 0.866025403784439 -0.5 0.0
outer loop
vertex -2.59807621135331 1.5 26.0
vertex -2.12132034355964 2.12132034355964 19.0
vertex -2.12132034355964 2.12132034355964 26.0
endloop
endfacet
facet normal 0.866025403784439 -0.5 0.0
outer loop
vertex -2.59807621135331 1.5 19.0
vertex -2.89777747886721 0.776457135307563 26.0
vertex -2.89777747886721 0.776457135307563 19.0
endloop
endfacet
facet normal 0.965925826289068 -0.258819045102521 0.0
outer loop
vertex -2.89777747886721 0.776457135307563 26.0
vertex -2.59807621135331 1.5 19.0
vertex -2.59807621135331 1.5 26.0
endloop
endfacet
facet normal 0.965925826289068 -0.258819045102521 0.0
outer loop
vertex -2.89777747886721 0.776457135307563 19.0
vertex -3.0 1.40998324127395e-015 26.0
vertex -3.0 1.40998324127395e-015 19.0
endloop
endfacet
facet normal 1.0 -3.65355505721523e-016 0.0
outer loop
vertex -3.0 1.40998324127395e-015 26.0
vertex -2.89777747886721 0.776457135307563 19.0
vertex -2.89777747886721 0.776457135307563 26.0
endloop
endfacet
facet normal 1.0 -3.65355505721523e-016 0.0
outer loop
vertex -3.0 1.40998324127395e-015 19.0
vertex -2.89777747886721 -0.776457135307564 26.0
vertex -2.89777747886721 -0.776457135307564 19.0
endloop
endfacet
facet normal 0.965925826289068 0.258819045102521 0.0
outer loop
vertex -2.89777747886721 -0.776457135307564 26.0
vertex -3.0 1.40998324127395e-015 19.0
vertex -3.0 1.40998324127395e-015 26.0
endloop
endfacet
facet normal 0.0 0.0 1.0
outer loop
vertex -7.72740661031255 -2.07055236082016 20.0
vertex -7.72740661031254 2.07055236082017 20.0
vertex -8.0 1.40998324127395e-015 20.0
endloop
endfacet
facet normal 0.0 0.0 1.0
outer loop
vertex -7.72740661031254 2.07055236082017 20.0
vertex -7.72740661031255 -2.07055236082016 20.0
vertex -6.92820323027551 -4.0 20.0
endloop
endfacet
facet normal 0.0 0.0 1.0
outer loop
vertex -7.72740661031254 2.07055236082017 20.0
vertex -6.92820323027551 -4.0 20.0
vertex -6.92820323027551 4.0 20.0
endloop
endfacet
facet normal 0.0 0.0 1.0
outer loop
vertex -6.92820323027551 4.0 20.0
vertex -6.92820323027551 -4.0 20.0
vertex -5.65685424949238 -5.65685424949238 20.0
endloop
endfacet
facet normal 0.0 0.0 1.0
outer loop
vertex -6.92820323027551 4.0 20.0
vertex -5.65685424949238 -5.65685424949238 20.0
vertex -6.0 1.40998324127395e-015 20.0
endloop
endfacet
facet normal 0.0 0.0 1.0
outer loop
vertex -6.0 1.40998324127395e-015 20.0
vertex -5.65685424949238 -5.65685424949238 20.0
vertex -5.79555495773441 -1.55291427061513 20.0
endloop
endfacet
facet normal 0.0 0.0 1.0
outer loop
vertex -5.79555495773441 -1.55291427061513 20.0
vertex -5.65685424949238 -5.65685424949238 20.0
vertex -5.19615242270663 -3.0 20.0
endloop
endfacet
facet normal 0.0 0.0 1.0
outer loop
vertex -5.19615242270663 -3.0 20.0
vertex -5.65685424949238 -5.65685424949238 20.0
vertex -4.0 -6.92820323027551 20.0
endloop
endfacet
facet normal 0.0 0.0 1.0
outer loop
vertex -5.19615242270663 -3.0 20.0
vertex -4.0 -6.92820323027551 20.0
vertex -4.24264068711928 -4.24264068711928 20.0
endloop
endfacet
facet normal 0.0 0.0 1.0
outer loop
vertex -4.24264068711928 -4.24264068711928 20.0
vertex -4.0 -6.92820323027551 20.0
vertex -3.0 -5.19615242270663 20.0
endloop
endfacet
facet normal 0.0 0.0 1.0
outer loop
vertex -3.0 -5.19615242270663 20.0
vertex -4.0 -6.92820323027551 20.0
vertex -2.07055236082017 -7.72740661031254 20.0
endloop
endfacet
facet normal 0.0 0.0 1.0
outer loop
vertex -3.0 -5.19615242270663 20.0
vertex -2.07055236082017 -7.72740661031254 20.0
vertex -1.55291427061512 -5.79555495773441 20.0
endloop
endfacet
facet normal 0.0 0.0 1.0
outer loop
vertex -1.55291427061512 -5.79555495773441 20.0
vertex -2.07055236082017 -7.72740661031254 20.0
vertex -1.40998324127395e-015 -8.0 20.0
endloop
endfacet
facet normal 0.0 0.0 1.0
outer loop
vertex -1.55291427061512 -5.79555495773441 20.0
vertex -1.40998324127395e-015 -8.0 20.0
vertex 0.0 -6.0 20.0
endloop
endfacet
facet normal 0.0 0.0 1.0
outer loop
vertex 0.0 -6.0 20.0
vertex -1.40998324127395e-015 -8.0 20.0
vertex 2.07055236082016 -7.72740661031255 20.0
endloop
endfacet
facet normal 0.0 0.0 1.0
outer loop
vertex 0.0 -6.0 20.0
vertex 2.07055236082016 -7.72740661031255 20.0
vertex 1.55291427061513 -5.79555495773441 20.0
endloop
endfacet
facet normal 0.0 0.0 1.0
outer loop
vertex 1.55291427061513 -5.79555495773441 20.0
vertex 2.07055236082016 -7.72740661031255 20.0
vertex 3.0 -5.19615242270663 20.0
endloop
endfacet
facet normal 0.0 0.0 1.0
outer loop
vertex 3.0 -5.19615242270663 20.0
vertex 2.07055236082016 -7.72740661031255 20.0
vertex 3.99999999999999 -6.92820323027551 20.0
endloop
endfacet
facet normal 0.0 0.0 1.0
outer loop
vertex 3.0 -5.19615242270663 20.0
vertex 3.99999999999999 -6.92820323027551 20.0
vertex 4.24264068711929 -4.24264068711928 20.0
endloop
endfacet
facet normal 0.0 0.0 1.0
outer loop
vertex 4.24264068711929 -4.24264068711928 20.0
vertex 3.99999999999999 -6.92820323027551 20.0
vertex 5.65685424949238 -5.65685424949238 20.0
endloop
endfacet
facet normal 0.0 0.0 1.0
outer loop
vertex 4.24264068711929 -4.24264068711928 20.0
vertex 5.65685424949238 -5.65685424949238 20.0
vertex 5.19615242270663 -3.0 20.0
endloop
endfacet
facet normal 0.0 0.0 1.0
outer loop
vertex 5.19615242270663 -3.0 20.0
vertex 5.65685424949238 -5.65685424949238 20.0
vertex 5.79555495773441 -1.55291427061512 20.0
endloop
endfacet
facet normal 0.0 0.0 1.0
outer loop
vertex 5.79555495773441 -1.55291427061512 20.0
vertex 5.65685424949238 -5.65685424949238 20.0
vertex 6.92820323027551 -4.0 20.0
endloop
endfacet
facet normal 0.0 0.0 1.0
outer loop
vertex 5.79555495773441 -1.55291427061512 20.0
vertex 6.92820323027551 -4.0 20.0
vertex 6.0 -1.40998324127395e-015 20.0
endloop
endfacet
facet normal 0.0 0.0 1.0
outer loop
vertex -6.0 1.40998324127395e-015 20.0
vertex -5.65685424949238 5.65685424949238 20.0
vertex -6.92820323027551 4.0 20.0
endloop
endfacet
facet normal 0.0 0.0 1.0
outer loop
vertex -5.65685424949238 5.65685424949238 20.0
vertex -6.0 1.40998324127395e-015 20.0
vertex -5.79555495773441 1.55291427061513 20.0
endloop
endfacet
facet normal 0.0 0.0 1.0
outer loop
vertex -5.65685424949238 5.65685424949238 20.0
vertex -5.79555495773441 1.55291427061513 20.0
vertex -5.19615242270663 3.0 20.0
endloop
endfacet
facet normal 0.0 0.0 1.0
outer loop
vertex -5.65685424949238 5.65685424949238 20.0
vertex -5.19615242270663 3.0 20.0
vertex -4.0 6.92820323027551 20.0
endloop
endfacet
facet normal 0.0 0.0 1.0
outer loop
vertex -4.0 6.92820323027551 20.0
vertex -5.19615242270663 3.0 20.0
vertex -4.24264068711928 4.24264068711929 20.0
endloop
endfacet
facet normal 0.0 0.0 1.0
outer loop
vertex -4.0 6.92820323027551 20.0
vertex -4.24264068711928 4.24264068711929 20.0
vertex -3.0 5.19615242270663 20.0
endloop
endfacet
facet normal 0.0 0.0 1.0
outer loop
vertex -4.0 6.92820323027551 20.0
vertex -3.0 5.19615242270663 20.0
vertex -2.07055236082016 7.72740661031255 20.0
endloop
endfacet
facet normal 0.0 0.0 1.0
outer loop
vertex -2.07055236082016 7.72740661031255 20.0
vertex -3.0 5.19615242270663 20.0
vertex -1.55291427061512 5.79555495773441 20.0
endloop
endfacet
facet normal 0.0 0.0 1.0
outer loop
vertex -2.07055236082016 7.72740661031255 20.0
vertex -1.55291427061512 5.79555495773441 20.0
vertex 0.0 8.0 20.0
endloop
endfacet
facet normal 0.0 0.0 1.0
outer loop
vertex 0.0 8.0 20.0
vertex -1.55291427061512 5.79555495773441 20.0
vertex 1.40998324127395e-015 6.0 20.0
endloop
endfacet
facet normal 0.0 0.0 1.0
outer loop
vertex 0.0 8.0 20.0
vertex 1.40998324127395e-015 6.0 20.0
vertex 2.07055236082017 7.72740661031255 20.0
endloop
endfacet
facet normal 0.0 0.0 1.0
outer loop
vertex 2.07055236082017 7.72740661031255 20.0
vertex 1.40998324127395e-015 6.0 20.0
vertex 1.55291427061513 5.79555495773441 20.0
endloop
endfacet
facet normal 0.0 0.0 1.0
outer loop
vertex 2.07055236082017 7.72740661031255 20.0
vertex 1.55291427061513 5.79555495773441 20.0
vertex 3.0 5.19615242270663 20.0
endloop
endfacet
facet normal 0.0 0.0 1.0
outer loop
vertex 2.07055236082017 7.72740661031255 20.0
vertex 3.0 5.19615242270663 20.0
vertex 4.0 6.92820323027551 20.0
endloop
endfacet
facet normal 0.0 0.0 1.0
outer loop
vertex 4.0 6.92820323027551 20.0
vertex 3.0 5.19615242270663 20.0
vertex 4.24264068711929 4.24264068711928 20.0
endloop
endfacet
facet normal 0.0 0.0 1.0
outer loop
vertex 4.0 6.92820323027551 20.0
vertex 4.24264068711929 4.24264068711928 20.0
vertex 5.65685424949238 5.65685424949238 20.0
endloop
endfacet
facet normal 0.0 0.0 1.0
outer loop
vertex 5.65685424949238 5.65685424949238 20.0
vertex 4.24264068711929 4.24264068711928 20.0
vertex 5.19615242270663 3.0 20.0
endloop
endfacet
facet normal 0.0 0.0 1.0
outer loop
vertex 5.65685424949238 5.65685424949238 20.0
vertex 5.19615242270663 3.0 20.0
vertex 5.79555495773441 1.55291427061513 20.0
endloop
endfacet
facet normal 0.0 0.0 1.0
outer loop
vertex 5.65685424949238 5.65685424949238 20.0
vertex 5.79555495773441 1.55291427061513 20.0
vertex 6.92820323027551 4.0 20.0
endloop
endfacet
facet normal 0.0 0.0 1.0
outer loop
vertex 6.92820323027551 4.0 20.0
vertex 5.79555495773441 1.55291427061513 20.0
vertex 6.0 -1.40998324127395e-015 20.0
endloop
endfacet
facet normal 0.0 0.0 1.0
outer loop
vertex 6.92820323027551 4.0 20.0
vertex 6.0 -1.40998324127395e-015 20.0
vertex 6.92820323027551 -4.0 20.0
endloop
endfacet
facet normal 0.0 0.0 1.0
outer loop
vertex 6.92820323027551 4.0 20.0
vertex 6.92820323027551 -4.0 20.0
vertex 7.72740661031254 -2.07055236082017 20.0
endloop
endfacet
facet normal 0.0 0.0 1.0
outer loop
vertex 6.92820323027551 4.0 20.0
vertex 7.72740661031254 -2.07055236082017 20.0
vertex 7.72740661031254 2.07055236082017 20.0
endloop
endfacet
facet normal 0.0 0.0 1.0
outer loop
vertex 7.72740661031254 2.07055236082017 20.0
vertex 7.72740661031254 -2.07055236082017 20.0
vertex 8.0 0.0 20.0
endloop
endfacet
facet normal -1.0 2.22777747391173e-016 0.0
outer loop
vertex -8.0 1.40998324127395e-015 20.0
vertex -7.72740661031255 -2.07055236082016 0.0
vertex -7.72740661031255 -2.07055236082016 20.0
endloop
endfacet
facet normal -0.965925826289068 -0.25881904510252 0.0
outer loop
vertex -7.72740661031255 -2.07055236082016 0.0
vertex -8.0 1.40998324127395e-015 20.0
vertex -8.0 1.40998324127395e-015 0.0
endloop
endfacet
facet normal 0.25881904510252 -0.965925826289068 0.0
outer loop
vertex 2.07055236082016 -7.72740661031255 20.0
vertex -1.40998324127395e-015 -8.0 0.0
vertex 2.07055236082016 -7.72740661031255 0.0
endloop
endfacet
facet normal -4.27733274991051e-016 -1.0 0.0
outer loop
vertex -1.40998324127395e-015 -8.0 0.0
vertex 2.07055236082016 -7.72740661031255 20.0
vertex -1.40998324127395e-015 -8.0 20.0
endloop
endfacet
facet normal -0.965925826289068 -0.25881904510252 0.0
outer loop
vertex -7.72740661031255 -2.07055236082016 20.0
vertex -6.92820323027551 -4.0 0.0
vertex -6.92820323027551 -4.0 20.0
endloop
endfacet
facet normal -0.866025403784439 -0.5 0.0
outer loop
vertex -6.92820323027551 -4.0 0.0
vertex -7.72740661031255 -2.07055236082016 20.0
vertex -7.72740661031255 -2.07055236082016 0.0
endloop
endfacet
facet normal -0.258819045102521 -0.965925826289068 0.0
outer loop
vertex 1.00939427589983 3.76711072252736 15.0
vertex 1.40998324127395e-015 3.9 0.0
vertex 1.00939427589983 3.76711072252736 0.0
endloop
endfacet
facet normal -4.72288824469286e-016 -1.0 0.0
outer loop
vertex 1.40998324127395e-015 3.9 0.0
vertex 1.00939427589983 3.76711072252736 15.0
vertex 1.40998324127395e-015 3.9 15.0
endloop
endfacet
facet normal 0.5 0.866025403784439 0.0
outer loop
vertex -1.95 -3.37749907475931 15.0
vertex -1.00939427589983 -3.76711072252736 0.0
vertex -1.95 -3.37749907475931 0.0
endloop
endfacet
facet normal 0.258819045102521 0.965925826289068 0.0
outer loop
vertex -1.00939427589983 -3.76711072252736 0.0
vertex -1.95 -3.37749907475931 15.0
vertex -1.00939427589983 -3.76711072252736 15.0
endloop
endfacet
facet normal -1.0 5.88133253112696e-016 0.0
outer loop
vertex 3.9 0.0 15.0
vertex 3.76711072252736 -1.00939427589983 0.0
vertex 3.76711072252736 -1.00939427589983 15.0
endloop
endfacet
facet normal -0.965925826289068 0.258819045102521 0.0
outer loop
vertex 3.76711072252736 -1.00939427589983 0.0
vertex 3.9 0.0 15.0
vertex 3.9 0.0 0.0
endloop
endfacet
facet normal 0.258819045102521 0.965925826289068 0.0
outer loop
vertex -1.00939427589983 -3.76711072252736 15.0
vertex 0.0 -3.9 0.0
vertex -1.00939427589983 -3.76711072252736 0.0
endloop
endfacet
facet normal 2.94066626556348e-016 1.0 0.0
outer loop
vertex 0.0 -3.9 0.0
vertex -1.00939427589983 -3.76711072252736 15.0
vertex 0.0 -3.9 15.0
endloop
endfacet
facet normal -0.500000000000001 -0.866025403784438 0.0
outer loop
vertex 1.95 3.37749907475931 15.0
vertex 1.00939427589983 3.76711072252736 0.0
vertex 1.95 3.37749907475931 0.0
endloop
endfacet
facet normal -0.258819045102521 -0.965925826289068 0.0
outer loop
vertex 1.00939427589983 3.76711072252736 0.0
vertex 1.95 3.37749907475931 15.0
vertex 1.00939427589983 3.76711072252736 15.0
endloop
endfacet
facet normal -0.707106781186548 -0.707106781186547 0.0
outer loop
vertex 2.75771644662754 2.75771644662753 15.0
vertex 1.95 3.37749907475931 0.0
vertex 2.75771644662754 2.75771644662753 0.0
endloop
endfacet
facet normal -0.500000000000001 -0.866025403784438 0.0
outer loop
vertex 1.95 3.37749907475931 0.0
vertex 2.75771644662754 2.75771644662753 15.0
vertex 1.95 3.37749907475931 15.0
endloop
endfacet
facet normal 1.0 -1.42577758330351e-016 0.0
outer loop
vertex -3.9 0.0 0.0
vertex -3.76711072252737 -1.00939427589983 15.0
vertex -3.76711072252737 -1.00939427589983 0.0
endloop
endfacet
facet normal 0.965925826289068 0.258819045102521 0.0
outer loop
vertex -3.76711072252737 -1.00939427589983 15.0
vertex -3.9 0.0 0.0
vertex -3.9 0.0 15.0
endloop
endfacet
facet normal 0.965925826289068 -0.258819045102521 0.0
outer loop
vertex -3.76711072252736 1.00939427589983 0.0
vertex -3.9 0.0 15.0
vertex -3.9 0.0 0.0
endloop
endfacet
facet normal 1.0 -1.42577758330351e-016 0.0
outer loop
vertex -3.9 0.0 15.0
vertex -3.76711072252736 1.00939427589983 0.0
vertex -3.76711072252736 1.00939427589983 15.0
endloop
endfacet
facet normal 0.866025403784439 0.5 0.0
outer loop
vertex -3.37749907475931 -1.95 0.0
vertex -2.75771644662754 -2.75771644662753 15.0
vertex -2.75771644662754 -2.75771644662753 0.0
endloop
endfacet
facet normal 0.707106781186547 0.707106781186548 0.0
outer loop
vertex -2.75771644662754 -2.75771644662753 15.0
vertex -3.37749907475931 -1.95 0.0
vertex -3.37749907475931 -1.95 15.0
endloop
endfacet
facet normal 0.866025403784438 -0.500000000000001 0.0
outer loop
vertex -3.37749907475931 1.95 0.0
vertex -3.76711072252736 1.00939427589983 15.0
vertex -3.76711072252736 1.00939427589983 0.0
endloop
endfacet
facet normal 0.965925826289068 -0.258819045102521 0.0
outer loop
vertex -3.76711072252736 1.00939427589983 15.0
vertex -3.37749907475931 1.95 0.0
vertex -3.37749907475931 1.95 15.0
endloop
endfacet
facet normal 0.707106781186547 -0.707106781186548 0.0
outer loop
vertex -2.75771644662753 2.75771644662754 0.0
vertex -3.37749907475931 1.95 15.0
vertex -3.37749907475931 1.95 0.0
endloop
endfacet
facet normal 0.866025403784438 -0.500000000000001 0.0
outer loop
vertex -3.37749907475931 1.95 15.0
vertex -2.75771644662753 2.75771644662754 0.0
vertex -2.75771644662753 2.75771644662754 15.0
endloop
endfacet
facet normal 0.5 -0.866025403784439 0.0
outer loop
vertex -1.95 3.37749907475931 15.0
vertex -2.75771644662753 2.75771644662754 0.0
vertex -1.95 3.37749907475931 0.0
endloop
endfacet
facet normal 0.707106781186547 -0.707106781186548 0.0
outer loop
vertex -2.75771644662753 2.75771644662754 0.0
vertex -1.95 3.37749907475931 15.0
vertex -2.75771644662753 2.75771644662754 15.0
endloop
endfacet
facet normal 0.965925826289068 0.258819045102521 0.0
outer loop
vertex -3.76711072252737 -1.00939427589983 0.0
vertex -3.37749907475931 -1.95 15.0
vertex -3.37749907475931 -1.95 0.0
endloop
endfacet
facet normal 0.866025403784439 0.5 0.0
outer loop
vertex -3.37749907475931 -1.95 15.0
vertex -3.76711072252737 -1.00939427589983 0.0
vertex -3.76711072252737 -1.00939427589983 15.0
endloop
endfacet
facet normal -0.866025403784439 0.5 0.0
outer loop
vertex 3.37749907475931 -1.95 15.0
vertex 2.75771644662753 -2.75771644662754 0.0
vertex 2.75771644662753 -2.75771644662754 15.0
endloop
endfacet
facet normal -0.707106781186547 0.707106781186548 0.0
outer loop
vertex 2.75771644662753 -2.75771644662754 0.0
vertex 3.37749907475931 -1.95 15.0
vertex 3.37749907475931 -1.95 0.0
endloop
endfacet
facet normal -0.5 0.866025403784439 0.0
outer loop
vertex 1.95 -3.37749907475931 15.0
vertex 2.75771644662753 -2.75771644662754 0.0
vertex 1.95 -3.37749907475931 0.0
endloop
endfacet
facet normal -0.707106781186547 0.707106781186548 0.0
outer loop
vertex 2.75771644662753 -2.75771644662754 0.0
vertex 1.95 -3.37749907475931 15.0
vertex 2.75771644662753 -2.75771644662754 15.0
endloop
endfacet
facet normal -0.258819045102521 0.965925826289068 0.0
outer loop
vertex 1.00939427589983 -3.76711072252737 15.0
vertex 1.95 -3.37749907475931 0.0
vertex 1.00939427589983 -3.76711072252737 0.0
endloop
endfacet
facet normal -0.5 0.866025403784439 0.0
outer loop
vertex 1.95 -3.37749907475931 0.0
vertex 1.00939427589983 -3.76711072252737 15.0
vertex 1.95 -3.37749907475931 15.0
endloop
endfacet
facet normal 2.94066626556348e-016 1.0 0.0
outer loop
vertex 0.0 -3.9 15.0
vertex 1.00939427589983 -3.76711072252737 0.0
vertex 0.0 -3.9 0.0
endloop
endfacet
facet normal -0.258819045102521 0.965925826289068 0.0
outer loop
vertex 1.00939427589983 -3.76711072252737 0.0
vertex 0.0 -3.9 15.0
vertex 1.00939427589983 -3.76711072252737 15.0
endloop
endfacet
facet normal -0.965925826289068 0.258819045102521 0.0
outer loop
vertex -7.72740661031254 2.07055236082017 20.0
vertex -8.0 1.40998324127395e-015 0.0
vertex -8.0 1.40998324127395e-015 20.0
endloop
endfacet
facet normal -1.0 2.22777747391173e-016 0.0
outer loop
vertex -8.0 1.40998324127395e-015 0.0
vertex -7.72740661031254 2.07055236082017 20.0
vertex -7.72740661031254 2.07055236082017 0.0
endloop
endfacet
facet normal -0.866025403784439 -0.5 0.0
outer loop
vertex 3.37749907475931 1.95 15.0
vertex 3.76711072252737 1.00939427589983 0.0
vertex 3.76711072252737 1.00939427589983 15.0
endloop
endfacet
facet normal -0.965925826289068 -0.258819045102521 0.0
outer loop
vertex 3.76711072252737 1.00939427589983 0.0
vertex 3.37749907475931 1.95 15.0
vertex 3.37749907475931 1.95 0.0
endloop
endfacet
facet normal -0.707106781186548 -0.707106781186547 0.0
outer loop
vertex 2.75771644662754 2.75771644662753 15.0
vertex 3.37749907475931 1.95 0.0
vertex 3.37749907475931 1.95 15.0
endloop
endfacet
facet normal -0.866025403784439 -0.5 0.0
outer loop
vertex 3.37749907475931 1.95 0.0
vertex 2.75771644662754 2.75771644662753 15.0
vertex 2.75771644662754 2.75771644662753 0.0
endloop
endfacet
facet normal 0.0 0.0 -1.0
outer loop
vertex -3.76711072252736 1.00939427589983 15.0
vertex -3.76711072252737 -1.00939427589983 15.0
vertex -3.9 0.0 15.0
endloop
endfacet
facet normal 0.0 0.0 -1.0
outer loop
vertex -3.76711072252737 -1.00939427589983 15.0
vertex -3.76711072252736 1.00939427589983 15.0
vertex -3.37749907475931 -1.95 15.0
endloop
endfacet
facet normal 0.0 0.0 -1.0
outer loop
vertex -3.37749907475931 -1.95 15.0
vertex -3.76711072252736 1.00939427589983 15.0
vertex -3.37749907475931 1.95 15.0
endloop
endfacet
facet normal 0.0 0.0 -1.0
outer loop
vertex -3.37749907475931 -1.95 15.0
vertex -3.37749907475931 1.95 15.0
vertex -2.75771644662754 -2.75771644662753 15.0
endloop
endfacet
facet normal 0.0 0.0 -1.0
outer loop
vertex -2.75771644662754 -2.75771644662753 15.0
vertex -3.37749907475931 1.95 15.0
vertex -2.75771644662753 2.75771644662754 15.0
endloop
endfacet
facet normal 0.0 0.0 -1.0
outer loop
vertex -2.75771644662754 -2.75771644662753 15.0
vertex -2.75771644662753 2.75771644662754 15.0
vertex -1.95 -3.37749907475931 15.0
endloop
endfacet
facet normal 0.0 0.0 -1.0
outer loop
vertex -1.95 -3.37749907475931 15.0
vertex -2.75771644662753 2.75771644662754 15.0
vertex -1.95 3.37749907475931 15.0
endloop
endfacet
facet normal 0.0 0.0 -1.0
outer loop
vertex -1.95 -3.37749907475931 15.0
vertex -1.95 3.37749907475931 15.0
vertex -1.00939427589983 -3.76711072252736 15.0
endloop
endfacet
facet normal 0.0 0.0 -1.0
outer loop
vertex -1.00939427589983 -3.76711072252736 15.0
vertex -1.95 3.37749907475931 15.0
vertex -1.00939427589983 3.76711072252737 15.0
endloop
endfacet
facet normal 0.0 0.0 -1.0
outer loop
vertex -1.00939427589983 -3.76711072252736 15.0
vertex -1.00939427589983 3.76711072252737 15.0
vertex 0.0 -3.9 15.0
endloop
endfacet
facet normal 0.0 0.0 -1.0
outer loop
vertex 0.0 -3.9 15.0
vertex -1.00939427589983 3.76711072252737 15.0
vertex 1.40998324127395e-015 3.9 15.0
endloop
endfacet
facet normal 0.0 0.0 -1.0
outer loop
vertex 0.0 -3.9 15.0
vertex 1.40998324127395e-015 3.9 15.0
vertex 1.00939427589983 -3.76711072252737 15.0
endloop
endfacet
facet normal 0.0 0.0 -1.0
outer loop
vertex 1.00939427589983 -3.76711072252737 15.0
vertex 1.40998324127395e-015 3.9 15.0
vertex 1.00939427589983 3.76711072252736 15.0
endloop
endfacet
facet normal 0.0 0.0 -1.0
outer loop
vertex 1.00939427589983 -3.76711072252737 15.0
vertex 1.00939427589983 3.76711072252736 15.0
vertex 1.95 -3.37749907475931 15.0
endloop
endfacet
facet normal 0.0 0.0 -1.0
outer loop
vertex 1.95 -3.37749907475931 15.0
vertex 1.00939427589983 3.76711072252736 15.0
vertex 1.95 3.37749907475931 15.0
endloop
endfacet
facet normal 0.0 0.0 -1.0
outer loop
vertex 1.95 -3.37749907475931 15.0
vertex 1.95 3.37749907475931 15.0
vertex 2.75771644662753 -2.75771644662754 15.0
endloop
endfacet
facet normal 0.0 0.0 -1.0
outer loop
vertex 2.75771644662753 -2.75771644662754 15.0
vertex 1.95 3.37749907475931 15.0
vertex 2.75771644662754 2.75771644662753 15.0
endloop
endfacet
facet normal 0.0 0.0 -1.0
outer loop
vertex 2.75771644662753 -2.75771644662754 15.0
vertex 2.75771644662754 2.75771644662753 15.0
vertex 3.37749907475931 -1.95 15.0
endloop
endfacet
facet normal 0.0 0.0 -1.0
outer loop
vertex 3.37749907475931 -1.95 15.0
vertex 2.75771644662754 2.75771644662753 15.0
vertex 3.37749907475931 1.95 15.0
endloop
endfacet
facet normal 0.0 0.0 -1.0
outer loop
vertex 3.37749907475931 -1.95 15.0
vertex 3.37749907475931 1.95 15.0
vertex 3.76711072252737 1.00939427589983 15.0
endloop
endfacet
facet normal 0.0 0.0 -1.0
outer loop
vertex 3.37749907475931 -1.95 15.0
vertex 3.76711072252737 1.00939427589983 15.0
vertex 3.76711072252736 -1.00939427589983 15.0
endloop
endfacet
facet normal 0.0 0.0 -1.0
outer loop
vertex 3.76711072252736 -1.00939427589983 15.0
vertex 3.76711072252737 1.00939427589983 15.0
vertex 3.9 0.0 15.0
endloop
endfacet
facet normal -0.965925826289068 -0.258819045102521 0.0
outer loop
vertex 3.76711072252737 1.00939427589983 15.0
vertex 3.9 0.0 0.0
vertex 3.9 0.0 15.0
endloop
endfacet
facet normal -1.0 5.88133253112696e-016 0.0
outer loop
vertex 3.9 0.0 0.0
vertex 3.76711072252737 1.00939427589983 15.0
vertex 3.76711072252737 1.00939427589983 0.0
endloop
endfacet
facet normal 0.707106781186547 0.707106781186548 0.0
outer loop
vertex -2.75771644662754 -2.75771644662753 15.0
vertex -1.95 -3.37749907475931 0.0
vertex -2.75771644662754 -2.75771644662753 0.0
endloop
endfacet
facet normal 0.5 0.866025403784439 0.0
outer loop
vertex -1.95 -3.37749907475931 0.0
vertex -2.75771644662754 -2.75771644662753 15.0
vertex -1.95 -3.37749907475931 15.0
endloop
endfacet
facet normal 0.25881904510252 -0.965925826289068 0.0
outer loop
vertex -1.00939427589983 3.76711072252737 15.0
vertex -1.95 3.37749907475931 0.0
vertex -1.00939427589983 3.76711072252737 0.0
endloop
endfacet
facet normal 0.5 -0.866025403784439 0.0
outer loop
vertex -1.95 3.37749907475931 0.0
vertex -1.00939427589983 3.76711072252737 15.0
vertex -1.95 3.37749907475931 15.0
endloop
endfacet
facet normal -0.965925826289068 0.258819045102521 0.0
outer loop
vertex 3.76711072252736 -1.00939427589983 15.0
vertex 3.37749907475931 -1.95 0.0
vertex 3.37749907475931 -1.95 15.0
endloop
endfacet
facet normal -0.866025403784439 0.5 0.0
outer loop
vertex 3.37749907475931 -1.95 0.0
vertex 3.76711072252736 -1.00939427589983 15.0
vertex 3.76711072252736 -1.00939427589983 0.0
endloop
endfacet
facet normal -4.72288824469286e-016 -1.0 0.0
outer loop
vertex 1.40998324127395e-015 3.9 15.0
vertex -1.00939427589983 3.76711072252737 0.0
vertex 1.40998324127395e-015 3.9 0.0
endloop
endfacet
facet normal 0.25881904510252 -0.965925826289068 0.0
outer loop
vertex -1.00939427589983 3.76711072252737 0.0
vertex 1.40998324127395e-015 3.9 15.0
vertex -1.00939427589983 3.76711072252737 15.0
endloop
endfacet
facet normal -0.866025403784439 -0.5 0.0
outer loop
vertex -5.19615242270663 -3.0 26.0
vertex -4.24264068711928 -4.24264068711928 20.0
vertex -4.24264068711928 -4.24264068711928 26.0
endloop
endfacet
facet normal -0.707106781186547 -0.707106781186548 0.0
outer loop
vertex -4.24264068711928 -4.24264068711928 20.0
vertex -5.19615242270663 -3.0 26.0
vertex -5.19615242270663 -3.0 20.0
endloop
endfacet
facet normal -0.5 -0.866025403784439 0.0
outer loop
vertex -3.0 -5.19615242270663 26.0
vertex -4.24264068711928 -4.24264068711928 20.0
vertex -3.0 -5.19615242270663 20.0
endloop
endfacet
facet normal -0.707106781186547 -0.707106781186548 0.0
outer loop
vertex -4.24264068711928 -4.24264068711928 20.0
vertex -3.0 -5.19615242270663 26.0
vertex -4.24264068711928 -4.24264068711928 26.0
endloop
endfacet
facet normal -1.0 2.40599967182466e-016 0.0
outer loop
vertex -6.0 1.40998324127395e-015 26.0
vertex -5.79555495773441 -1.55291427061513 20.0
vertex -5.79555495773441 -1.55291427061513 26.0
endloop
endfacet
facet normal -0.965925826289068 -0.258819045102521 0.0
outer loop
vertex -5.79555495773441 -1.55291427061513 20.0
vertex -6.0 1.40998324127395e-015 26.0
vertex -6.0 1.40998324127395e-015 20.0
endloop
endfacet
facet normal -0.965925826289068 -0.258819045102521 0.0
outer loop
vertex -5.79555495773441 -1.55291427061513 26.0
vertex -5.19615242270663 -3.0 20.0
vertex -5.19615242270663 -3.0 26.0
endloop
endfacet
facet normal -0.866025403784439 -0.5 0.0
outer loop
vertex -5.19615242270663 -3.0 20.0
vertex -5.79555495773441 -1.55291427061513 26.0
vertex -5.79555495773441 -1.55291427061513 20.0
endloop
endfacet
facet normal 0.0 0.0 1.0
outer loop
vertex -5.79555495773441 -1.55291427061513 26.0
vertex -5.79555495773441 1.55291427061513 26.0
vertex -6.0 1.40998324127395e-015 26.0
endloop
endfacet
facet normal 0.0 0.0 1.0
outer loop
vertex -5.79555495773441 1.55291427061513 26.0
vertex -5.79555495773441 -1.55291427061513 26.0
vertex -5.19615242270663 -3.0 26.0
endloop
endfacet
facet normal 0.0 0.0 1.0
outer loop
vertex -5.79555495773441 1.55291427061513 26.0
vertex -5.19615242270663 -3.0 26.0
vertex -5.19615242270663 3.0 26.0
endloop
endfacet
facet normal 0.0 0.0 1.0
outer loop
vertex -5.19615242270663 3.0 26.0
vertex -5.19615242270663 -3.0 26.0
vertex -4.24264068711928 -4.24264068711928 26.0
endloop
endfacet
facet normal 0.0 0.0 1.0
outer loop
vertex -5.19615242270663 3.0 26.0
vertex -4.24264068711928 -4.24264068711928 26.0
vertex -4.24264068711928 4.24264068711929 26.0
endloop
endfacet
facet normal 0.0 0.0 1.0
outer loop
vertex -4.24264068711928 4.24264068711929 26.0
vertex -4.24264068711928 -4.24264068711928 26.0
vertex -3.0 -5.19615242270663 26.0
endloop
endfacet
facet normal 0.0 0.0 1.0
outer loop
vertex -4.24264068711928 4.24264068711929 26.0
vertex -3.0 -5.19615242270663 26.0
vertex -3.0 1.40998324127395e-015 26.0
endloop
endfacet
facet normal 0.0 0.0 1.0
outer loop
vertex -3.0 1.40998324127395e-015 26.0
vertex -3.0 -5.19615242270663 26.0
vertex -2.89777747886721 -0.776457135307564 26.0
endloop
endfacet
facet normal 0.0 0.0 1.0
outer loop
vertex -2.89777747886721 -0.776457135307564 26.0
vertex -3.0 -5.19615242270663 26.0
vertex -1.55291427061512 -5.79555495773441 26.0
endloop
endfacet
facet normal 0.0 0.0 1.0
outer loop
vertex -2.89777747886721 -0.776457135307564 26.0
vertex -1.55291427061512 -5.79555495773441 26.0
vertex -2.59807621135332 -1.5 26.0
endloop
endfacet
facet normal 0.0 0.0 1.0
outer loop
vertex -2.59807621135332 -1.5 26.0
vertex -1.55291427061512 -5.79555495773441 26.0
vertex -2.12132034355964 -2.12132034355964 26.0
endloop
endfacet
facet normal 0.0 0.0 1.0
outer loop
vertex -2.12132034355964 -2.12132034355964 26.0
vertex -1.55291427061512 -5.79555495773441 26.0
vertex -1.5 -2.59807621135332 26.0
endloop
endfacet
facet normal 0.0 0.0 1.0
outer loop
vertex -1.5 -2.59807621135332 26.0
vertex -1.55291427061512 -5.79555495773441 26.0
vertex 0.0 -6.0 26.0
endloop
endfacet
facet normal 0.0 0.0 1.0
outer loop
vertex -1.5 -2.59807621135332 26.0
vertex 0.0 -6.0 26.0
vertex -0.776457135307561 -2.89777747886721 26.0
endloop
endfacet
facet normal 0.0 0.0 1.0
outer loop
vertex -0.776457135307561 -2.89777747886721 26.0
vertex 0.0 -6.0 26.0
vertex 0.0 -3.0 26.0
endloop
endfacet
facet normal 0.0 0.0 1.0
outer loop
vertex 0.0 -3.0 26.0
vertex 0.0 -6.0 26.0
vertex 1.55291427061513 -5.79555495773441 26.0
endloop
endfacet
facet normal 0.0 0.0 1.0
outer loop
vertex 0.0 -3.0 26.0
vertex 1.55291427061513 -5.79555495773441 26.0
vertex 0.776457135307564 -2.89777747886721 26.0
endloop
endfacet
facet normal 0.0 0.0 1.0
outer loop
vertex 0.776457135307564 -2.89777747886721 26.0
vertex 1.55291427061513 -5.79555495773441 26.0
vertex 1.5 -2.59807621135332 26.0
endloop
endfacet
facet normal 0.0 0.0 1.0
outer loop
vertex 1.5 -2.59807621135332 26.0
vertex 1.55291427061513 -5.79555495773441 26.0
vertex 2.12132034355964 -2.12132034355964 26.0
endloop
endfacet
facet normal 0.0 0.0 1.0
outer loop
vertex 2.12132034355964 -2.12132034355964 26.0
vertex 1.55291427061513 -5.79555495773441 26.0
vertex 3.0 -5.19615242270663 26.0
endloop
endfacet
facet normal 0.0 0.0 1.0
outer loop
vertex 2.12132034355964 -2.12132034355964 26.0
vertex 3.0 -5.19615242270663 26.0
vertex 2.59807621135332 -1.5 26.0
endloop
endfacet
facet normal 0.0 0.0 1.0
outer loop
vertex 2.59807621135332 -1.5 26.0
vertex 3.0 -5.19615242270663 26.0
vertex 2.89777747886721 -0.776457135307563 26.0
endloop
endfacet
facet normal 0.0 0.0 1.0
outer loop
vertex 2.89777747886721 -0.776457135307563 26.0
vertex 3.0 -5.19615242270663 26.0
vertex 3.0 -1.40998324127395e-015 26.0
endloop
endfacet
facet normal 0.0 0.0 1.0
outer loop
vertex 3.0 -1.40998324127395e-015 26.0
vertex 3.0 -5.19615242270663 26.0
vertex 3.0 5.19615242270663 26.0
endloop
endfacet
facet normal 0.0 0.0 1.0
outer loop
vertex 3.0 5.19615242270663 26.0
vertex 3.0 -5.19615242270663 26.0
vertex 4.24264068711929 4.24264068711928 26.0
endloop
endfacet
facet normal 0.0 0.0 1.0
outer loop
vertex 4.24264068711929 4.24264068711928 26.0
vertex 3.0 -5.19615242270663 26.0
vertex 4.24264068711929 -4.24264068711928 26.0
endloop
endfacet
facet normal 0.0 0.0 1.0
outer loop
vertex 4.24264068711929 4.24264068711928 26.0
vertex 4.24264068711929 -4.24264068711928 26.0
vertex 5.19615242270663 -3.0 26.0
endloop
endfacet
facet normal 0.0 0.0 1.0
outer loop
vertex 4.24264068711929 4.24264068711928 26.0
vertex 5.19615242270663 -3.0 26.0
vertex 5.19615242270663 3.0 26.0
endloop
endfacet
facet normal 0.0 0.0 1.0
outer loop
vertex 5.19615242270663 3.0 26.0
vertex 5.19615242270663 -3.0 26.0
vertex 5.79555495773441 -1.55291427061512 26.0
endloop
endfacet
facet normal 0.0 0.0 1.0
outer loop
vertex 5.19615242270663 3.0 26.0
vertex 5.79555495773441 -1.55291427061512 26.0
vertex 5.79555495773441 1.55291427061513 26.0
endloop
endfacet
facet normal 0.0 0.0 1.0
outer loop
vertex 5.79555495773441 1.55291427061513 26.0
vertex 5.79555495773441 -1.55291427061512 26.0
vertex 6.0 -1.40998324127395e-015 26.0
endloop
endfacet
facet normal 0.0 0.0 1.0
outer loop
vertex -3.0 1.40998324127395e-015 26.0
vertex -3.0 5.19615242270663 26.0
vertex -4.24264068711928 4.24264068711929 26.0
endloop
endfacet
facet normal 0.0 0.0 1.0
outer loop
vertex -3.0 5.19615242270663 26.0
vertex -3.0 1.40998324127395e-015 26.0
vertex -2.89777747886721 0.776457135307563 26.0
endloop
endfacet
facet normal 0.0 0.0 1.0
outer loop
vertex -3.0 5.19615242270663 26.0
vertex -2.89777747886721 0.776457135307563 26.0
vertex -1.55291427061512 5.79555495773441 26.0
endloop
endfacet
facet normal 0.0 0.0 1.0
outer loop
vertex -1.55291427061512 5.79555495773441 26.0
vertex -2.89777747886721 0.776457135307563 26.0
vertex -2.59807621135331 1.5 26.0
endloop
endfacet
facet normal 0.0 0.0 1.0
outer loop
vertex -1.55291427061512 5.79555495773441 26.0
vertex -2.59807621135331 1.5 26.0
vertex -2.12132034355964 2.12132034355964 26.0
endloop
endfacet
facet normal 0.0 0.0 1.0
outer loop
vertex -1.55291427061512 5.79555495773441 26.0
vertex -2.12132034355964 2.12132034355964 26.0
vertex -1.5 2.59807621135332 26.0
endloop
endfacet
facet normal 0.0 0.0 1.0
outer loop
vertex -1.55291427061512 5.79555495773441 26.0
vertex -1.5 2.59807621135332 26.0
vertex 1.40998324127395e-015 6.0 26.0
endloop
endfacet
facet normal 0.0 0.0 1.0
outer loop
vertex 1.40998324127395e-015 6.0 26.0
vertex -1.5 2.59807621135332 26.0
vertex -0.776457135307561 2.89777747886721 26.0
endloop
endfacet
facet normal 0.0 0.0 1.0
outer loop
vertex 1.40998324127395e-015 6.0 26.0
vertex -0.776457135307561 2.89777747886721 26.0
vertex 1.40998324127395e-015 3.0 26.0
endloop
endfacet
facet normal 0.0 0.0 1.0
outer loop
vertex 1.40998324127395e-015 6.0 26.0
vertex 1.40998324127395e-015 3.0 26.0
vertex 0.776457135307563 2.89777747886721 26.0
endloop
endfacet
facet normal 0.0 0.0 1.0
outer loop
vertex 1.40998324127395e-015 6.0 26.0
vertex 0.776457135307563 2.89777747886721 26.0
vertex 1.55291427061513 5.79555495773441 26.0
endloop
endfacet
facet normal 0.0 0.0 1.0
outer loop
vertex 1.55291427061513 5.79555495773441 26.0
vertex 0.776457135307563 2.89777747886721 26.0
vertex 1.5 2.59807621135331 26.0
endloop
endfacet
facet normal 0.0 0.0 1.0
outer loop
vertex 1.55291427061513 5.79555495773441 26.0
vertex 1.5 2.59807621135331 26.0
vertex 2.12132034355964 2.12132034355964 26.0
endloop
endfacet
facet normal 0.0 0.0 1.0
outer loop
vertex 1.55291427061513 5.79555495773441 26.0
vertex 2.12132034355964 2.12132034355964 26.0
vertex 3.0 5.19615242270663 26.0
endloop
endfacet
facet normal 0.0 0.0 1.0
outer loop
vertex 3.0 5.19615242270663 26.0
vertex 2.12132034355964 2.12132034355964 26.0
vertex 2.59807621135332 1.5 26.0
endloop
endfacet
facet normal 0.0 0.0 1.0
outer loop
vertex 3.0 5.19615242270663 26.0
vertex 2.59807621135332 1.5 26.0
vertex 2.89777747886721 0.776457135307563 26.0
endloop
endfacet
facet normal 0.0 0.0 1.0
outer loop
vertex 3.0 5.19615242270663 26.0
vertex 2.89777747886721 0.776457135307563 26.0
vertex 3.0 -1.40998324127395e-015 26.0
endloop
endfacet
facet normal -0.258819045102521 0.965925826289068 0.0
outer loop
vertex -1.55291427061512 5.79555495773441 26.0
vertex 1.40998324127395e-015 6.0 20.0
vertex -1.55291427061512 5.79555495773441 20.0
endloop
endfacet
facet normal 6.23777692695283e-017 1.0 0.0
outer loop
vertex 1.40998324127395e-015 6.0 20.0
vertex -1.55291427061512 5.79555495773441 26.0
vertex 1.40998324127395e-015 6.0 26.0
endloop
endfacet
facet normal -0.965925826289068 0.258819045102521 0.0
outer loop
vertex -5.79555495773441 1.55291427061513 26.0
vertex -6.0 1.40998324127395e-015 20.0
vertex -6.0 1.40998324127395e-015 26.0
endloop
endfacet
facet normal -1.0 2.40599967182466e-016 0.0
outer loop
vertex -6.0 1.40998324127395e-015 20.0
vertex -5.79555495773441 1.55291427061513 26.0
vertex -5.79555495773441 1.55291427061513 20.0
endloop
endfacet
facet normal -0.866025403784439 0.5 0.0
outer loop
vertex -5.19615242270663 3.0 26.0
vertex -5.79555495773441 1.55291427061513 20.0
vertex -5.79555495773441 1.55291427061513 26.0
endloop
endfacet
facet normal -0.965925826289068 0.258819045102521 0.0
outer loop
vertex -5.79555495773441 1.55291427061513 20.0
vertex -5.19615242270663 3.0 26.0
vertex -5.19615242270663 3.0 20.0
endloop
endfacet
facet normal -0.707106781186547 0.707106781186548 0.0
outer loop
vertex -4.24264068711928 4.24264068711929 26.0
vertex -5.19615242270663 3.0 20.0
vertex -5.19615242270663 3.0 26.0
endloop
endfacet
facet normal -0.866025403784439 0.5 0.0
outer loop
vertex -5.19615242270663 3.0 20.0
vertex -4.24264068711928 4.24264068711929 26.0
vertex -4.24264068711928 4.24264068711929 20.0
endloop
endfacet
facet normal -0.707106781186547 0.707106781186548 0.0
outer loop
vertex -4.24264068711928 4.24264068711929 26.0
vertex -3.0 5.19615242270663 20.0
vertex -4.24264068711928 4.24264068711929 20.0
endloop
endfacet
facet normal -0.5 0.866025403784439 0.0
outer loop
vertex -3.0 5.19615242270663 20.0
vertex -4.24264068711928 4.24264068711929 26.0
vertex -3.0 5.19615242270663 26.0
endloop
endfacet
facet normal -0.5 0.866025403784439 0.0
outer loop
vertex -3.0 5.19615242270663 26.0
vertex -1.55291427061512 5.79555495773441 20.0
vertex -3.0 5.19615242270663 20.0
endloop
endfacet
facet normal -0.258819045102521 0.965925826289068 0.0
outer loop
vertex -1.55291427061512 5.79555495773441 20.0
vertex -3.0 5.19615242270663 26.0
vertex -1.55291427061512 5.79555495773441 26.0
endloop
endfacet
facet normal 0.707106781186548 -0.707106781186547 0.0
outer loop
vertex 4.24264068711929 -4.24264068711928 26.0
vertex 3.0 -5.19615242270663 20.0
vertex 4.24264068711929 -4.24264068711928 20.0
endloop
endfacet
facet normal 0.5 -0.866025403784439 0.0
outer loop
vertex 3.0 -5.19615242270663 20.0
vertex 4.24264068711929 -4.24264068711928 26.0
vertex 3.0 -5.19615242270663 26.0
endloop
endfacet
facet normal 0.5 -0.866025403784439 0.0
outer loop
vertex 3.0 -5.19615242270663 26.0
vertex 1.55291427061513 -5.79555495773441 20.0
vertex 3.0 -5.19615242270663 20.0
endloop
endfacet
facet normal 0.258819045102521 -0.965925826289068 0.0
outer loop
vertex 1.55291427061513 -5.79555495773441 20.0
vertex 3.0 -5.19615242270663 26.0
vertex 1.55291427061513 -5.79555495773441 26.0
endloop
endfacet
facet normal 0.258819045102521 -0.965925826289068 0.0
outer loop
vertex 1.55291427061513 -5.79555495773441 26.0
vertex 0.0 -6.0 20.0
vertex 1.55291427061513 -5.79555495773441 20.0
endloop
endfacet
facet normal -1.24755538539057e-016 -1.0 0.0
outer loop
vertex 0.0 -6.0 20.0
vertex 1.55291427061513 -5.79555495773441 26.0
vertex 0.0 -6.0 26.0
endloop
endfacet
facet normal -1.24755538539057e-016 -1.0 0.0
outer loop
vertex 0.0 -6.0 26.0
vertex -1.55291427061512 -5.79555495773441 20.0
vertex 0.0 -6.0 20.0
endloop
endfacet
facet normal -0.258819045102521 -0.965925826289068 0.0
outer loop
vertex -1.55291427061512 -5.79555495773441 20.0
vertex 0.0 -6.0 26.0
vertex -1.55291427061512 -5.79555495773441 26.0
endloop
endfacet
facet normal -0.258819045102521 -0.965925826289068 0.0
outer loop
vertex -1.55291427061512 -5.79555495773441 26.0
vertex -3.0 -5.19615242270663 20.0
vertex -1.55291427061512 -5.79555495773441 20.0
endloop
endfacet
facet normal -0.5 -0.866025403784439 0.0
outer loop
vertex -3.0 -5.19615242270663 20.0
vertex -1.55291427061512 -5.79555495773441 26.0
vertex -3.0 -5.19615242270663 26.0
endloop
endfacet
facet normal 6.23777692695283e-017 1.0 0.0
outer loop
vertex 1.40998324127395e-015 6.0 26.0
vertex 1.55291427061513 5.79555495773441 20.0
vertex 1.40998324127395e-015 6.0 20.0
endloop
endfacet
facet normal 0.258819045102521 0.965925826289068 0.0
outer loop
vertex 1.55291427061513 5.79555495773441 20.0
vertex 1.40998324127395e-015 6.0 26.0
vertex 1.55291427061513 5.79555495773441 26.0
endloop
endfacet
facet normal 0.258819045102521 0.965925826289068 0.0
outer loop
vertex 1.55291427061513 5.79555495773441 26.0
vertex 3.0 5.19615242270663 20.0
vertex 1.55291427061513 5.79555495773441 20.0
endloop
endfacet
facet normal 0.5 0.866025403784439 0.0
outer loop
vertex 3.0 5.19615242270663 20.0
vertex 1.55291427061513 5.79555495773441 26.0
vertex 3.0 5.19615242270663 26.0
endloop
endfacet
facet normal 0.5 0.866025403784439 0.0
outer loop
vertex 3.0 5.19615242270663 26.0
vertex 4.24264068711929 4.24264068711928 20.0
vertex 3.0 5.19615242270663 20.0
endloop
endfacet
facet normal 0.707106781186548 0.707106781186547 0.0
outer loop
vertex 4.24264068711929 4.24264068711928 20.0
vertex 3.0 5.19615242270663 26.0
vertex 4.24264068711929 4.24264068711928 26.0
endloop
endfacet
facet normal 0.707106781186548 0.707106781186547 0.0
outer loop
vertex 4.24264068711929 4.24264068711928 20.0
vertex 5.19615242270663 3.0 26.0
vertex 5.19615242270663 3.0 20.0
endloop
endfacet
facet normal 0.866025403784439 0.5 0.0
outer loop
vertex 5.19615242270663 3.0 26.0
vertex 4.24264068711929 4.24264068711928 20.0
vertex 4.24264068711929 4.24264068711928 26.0
endloop
endfacet
facet normal 0.866025403784439 0.5 0.0
outer loop
vertex 5.19615242270663 3.0 20.0
vertex 5.79555495773441 1.55291427061513 26.0
vertex 5.79555495773441 1.55291427061513 20.0
endloop
endfacet
facet normal 0.965925826289068 0.258819045102521 0.0
outer loop
vertex 5.79555495773441 1.55291427061513 26.0
vertex 5.19615242270663 3.0 20.0
vertex 5.19615242270663 3.0 26.0
endloop
endfacet
facet normal 0.965925826289068 0.258819045102521 0.0
outer loop
vertex 5.79555495773441 1.55291427061513 20.0
vertex 6.0 -1.40998324127395e-015 26.0
vertex 6.0 -1.40998324127395e-015 20.0
endloop
endfacet
facet normal 1.0 -1.78222197912938e-016 0.0
outer loop
vertex 6.0 -1.40998324127395e-015 26.0
vertex 5.79555495773441 1.55291427061513 20.0
vertex 5.79555495773441 1.55291427061513 26.0
endloop
endfacet
facet normal 1.0 -1.78222197912938e-016 0.0
outer loop
vertex 6.0 -1.40998324127395e-015 20.0
vertex 5.79555495773441 -1.55291427061512 26.0
vertex 5.79555495773441 -1.55291427061512 20.0
endloop
endfacet
facet normal 0.965925826289068 -0.258819045102521 0.0
outer loop
vertex 5.79555495773441 -1.55291427061512 26.0
vertex 6.0 -1.40998324127395e-015 20.0
vertex 6.0 -1.40998324127395e-015 26.0
endloop
endfacet
facet normal 0.965925826289068 -0.258819045102521 0.0
outer loop
vertex 5.79555495773441 -1.55291427061512 20.0
vertex 5.19615242270663 -3.0 26.0
vertex 5.19615242270663 -3.0 20.0
endloop
endfacet
facet normal 0.866025403784439 -0.5 0.0
outer loop
vertex 5.19615242270663 -3.0 26.0
vertex 5.79555495773441 -1.55291427061512 20.0
vertex 5.79555495773441 -1.55291427061512 26.0
endloop
endfacet
facet normal 0.866025403784439 -0.5 0.0
outer loop
vertex 5.19615242270663 -3.0 20.0
vertex 4.24264068711929 -4.24264068711928 26.0
vertex 4.24264068711929 -4.24264068711928 20.0
endloop
endfacet
facet normal 0.707106781186548 -0.707106781186547 0.0
outer loop
vertex 4.24264068711929 -4.24264068711928 26.0
vertex 5.19615242270663 -3.0 20.0
vertex 5.19615242270663 -3.0 26.0
endloop
endfacet
endsolid Egg Cup Idle
