solid Idler Knob
facet normal -0.965925826289068 -0.25881904510252 0.0
outer loop
vertex -9.65925826289068 -2.5881904510252 2.0
vertex -8.66025403784439 -5.0 0.0
vertex -8.66025403784439 -5.0 2.0
endloop
endfacet
facet normal -0.866025403784439 -0.5 0.0
outer loop
vertex -8.66025403784439 -5.0 0.0
vertex -9.65925826289068 -2.5881904510252 2.0
vertex -9.65925826289068 -2.5881904510252 0.0
endloop
endfacet
facet normal -0.866025403784439 0.5 0.0
outer loop
vertex -8.66025403784438 5.0 2.0
vertex -9.65925826289068 2.58819045102521 0.0
vertex -9.65925826289068 2.58819045102521 2.0
endloop
endfacet
facet normal -0.965925826289068 0.258819045102521 0.0
outer loop
vertex -9.65925826289068 2.58819045102521 0.0
vertex -8.66025403784438 5.0 2.0
vertex -8.66025403784438 5.0 0.0
endloop
endfacet
facet normal -0.965925826289068 0.258819045102521 0.0
outer loop
vertex -9.65925826289068 2.58819045102521 2.0
vertex -10.0 1.40998324127395e-015 0.0
vertex -10.0 1.40998324127395e-015 2.0
endloop
endfacet
facet normal -1.0 1.51488868225997e-016 0.0
outer loop
vertex -10.0 1.40998324127395e-015 0.0
vertex -9.65925826289068 2.58819045102521 2.0
vertex -9.65925826289068 2.58819045102521 0.0
endloop
endfacet
facet normal 0.707106781186548 0.707106781186547 0.0
outer loop
vertex 7.07106781186548 7.07106781186547 0.0
vertex 8.66025403784439 5.0 2.0
vertex 8.66025403784439 5.0 0.0
endloop
endfacet
facet normal 0.866025403784439 0.5 0.0
outer loop
vertex 8.66025403784439 5.0 2.0
vertex 7.07106781186548 7.07106781186547 0.0
vertex 7.07106781186548 7.07106781186547 2.0
endloop
endfacet
facet normal 0.5 0.866025403784439 0.0
outer loop
vertex 5.0 8.66025403784439 2.0
vertex 7.07106781186548 7.07106781186547 0.0
vertex 5.0 8.66025403784439 0.0
endloop
endfacet
facet normal 0.707106781186548 0.707106781186547 0.0
outer loop
vertex 7.07106781186548 7.07106781186547 0.0
vertex 5.0 8.66025403784439 2.0
vertex 7.07106781186548 7.07106781186547 2.0
endloop
endfacet
facet normal 0.258819045102521 0.965925826289068 0.0
outer loop
vertex 2.58819045102521 9.65925826289068 2.0
vertex 5.0 8.66025403784439 0.0
vertex 2.58819045102521 9.65925826289068 0.0
endloop
endfacet
facet normal 0.5 0.866025403784439 0.0
outer loop
vertex 5.0 8.66025403784439 0.0
vertex 2.58819045102521 9.65925826289068 2.0
vertex 5.0 8.66025403784439 2.0
endloop
endfacet
facet normal 0.965925826289068 0.258819045102521 0.0
outer loop
vertex 9.65925826289068 2.58819045102521 0.0
vertex 10.0 0.0 2.0
vertex 10.0 0.0 0.0
endloop
endfacet
facet normal 1.0 -7.12888791651753e-017 0.0
outer loop
vertex 10.0 0.0 2.0
vertex 9.65925826289068 2.58819045102521 0.0
vertex 9.65925826289068 2.58819045102521 2.0
endloop
endfacet
facet normal -5.34666593738814e-017 1.0 0.0
outer loop
vertex 0.0 10.0 2.0
vertex 2.58819045102521 9.65925826289068 0.0
vertex 0.0 10.0 0.0
endloop
endfacet
facet normal 0.258819045102521 0.965925826289068 0.0
outer loop
vertex 2.58819045102521 9.65925826289068 0.0
vertex 0.0 10.0 2.0
vertex 2.58819045102521 9.65925826289068 2.0
endloop
endfacet
facet normal -0.258819045102521 0.965925826289068 0.0
outer loop
vertex -2.58819045102521 9.65925826289068 2.0
vertex 0.0 10.0 0.0
vertex -2.58819045102521 9.65925826289068 0.0
endloop
endfacet
facet normal -5.34666593738814e-017 1.0 0.0
outer loop
vertex 0.0 10.0 0.0
vertex -2.58819045102521 9.65925826289068 2.0
vertex 0.0 10.0 2.0
endloop
endfacet
facet normal -0.500000000000001 -0.866025403784438 0.0
outer loop
vertex -5.0 -8.66025403784438 2.0
vertex -7.07106781186548 -7.07106781186547 0.0
vertex -5.0 -8.66025403784438 0.0
endloop
endfacet
facet normal -0.707106781186548 -0.707106781186547 0.0
outer loop
vertex -7.07106781186548 -7.07106781186547 0.0
vertex -5.0 -8.66025403784438 2.0
vertex -7.07106781186548 -7.07106781186547 2.0
endloop
endfacet
facet normal 0.0 0.0 1.0
outer loop
vertex -9.65925826289068 -2.5881904510252 2.0
vertex -9.65925826289068 2.58819045102521 2.0
vertex -10.0 1.40998324127395e-015 2.0
endloop
endfacet
facet normal 0.0 0.0 1.0
outer loop
vertex -9.65925826289068 2.58819045102521 2.0
vertex -9.65925826289068 -2.5881904510252 2.0
vertex -8.66025403784439 -5.0 2.0
endloop
endfacet
facet normal 0.0 0.0 1.0
outer loop
vertex -9.65925826289068 2.58819045102521 2.0
vertex -8.66025403784439 -5.0 2.0
vertex -8.66025403784438 5.0 2.0
endloop
endfacet
facet normal 0.0 0.0 1.0
outer loop
vertex -8.66025403784438 5.0 2.0
vertex -8.66025403784439 -5.0 2.0
vertex -7.07106781186548 -7.07106781186547 2.0
endloop
endfacet
facet normal 0.0 0.0 1.0
outer loop
vertex -8.66025403784438 5.0 2.0
vertex -7.07106781186548 -7.07106781186547 2.0
vertex -8.0 -1.40998324127395e-015 2.0
endloop
endfacet
facet normal 0.0 0.0 1.0
outer loop
vertex -8.0 -1.40998324127395e-015 2.0
vertex -7.07106781186548 -7.07106781186547 2.0
vertex -7.72740661031254 -2.07055236082017 2.0
endloop
endfacet
facet normal 0.0 0.0 1.0
outer loop
vertex -7.72740661031254 -2.07055236082017 2.0
vertex -7.07106781186548 -7.07106781186547 2.0
vertex -6.92820323027551 -4.0 2.0
endloop
endfacet
facet normal 0.0 0.0 1.0
outer loop
vertex -6.92820323027551 -4.0 2.0
vertex -7.07106781186548 -7.07106781186547 2.0
vertex -5.0 -8.66025403784438 2.0
endloop
endfacet
facet normal 0.0 0.0 1.0
outer loop
vertex -6.92820323027551 -4.0 2.0
vertex -5.0 -8.66025403784438 2.0
vertex -5.65685424949238 -5.65685424949238 2.0
endloop
endfacet
facet normal 0.0 0.0 1.0
outer loop
vertex -5.65685424949238 -5.65685424949238 2.0
vertex -5.0 -8.66025403784438 2.0
vertex -4.0 -6.92820323027551 2.0
endloop
endfacet
facet normal 0.0 0.0 1.0
outer loop
vertex -4.0 -6.92820323027551 2.0
vertex -5.0 -8.66025403784438 2.0
vertex -2.58819045102521 -9.65925826289068 2.0
endloop
endfacet
facet normal 0.0 0.0 1.0
outer loop
vertex -4.0 -6.92820323027551 2.0
vertex -2.58819045102521 -9.65925826289068 2.0
vertex -2.07055236082017 -7.72740661031255 2.0
endloop
endfacet
facet normal 0.0 0.0 1.0
outer loop
vertex -2.07055236082017 -7.72740661031255 2.0
vertex -2.58819045102521 -9.65925826289068 2.0
vertex -1.40998324127395e-015 -10.0 2.0
endloop
endfacet
facet normal 0.0 0.0 1.0
outer loop
vertex -2.07055236082017 -7.72740661031255 2.0
vertex -1.40998324127395e-015 -10.0 2.0
vertex 0.0 -8.0 2.0
endloop
endfacet
facet normal 0.0 0.0 1.0
outer loop
vertex 0.0 -8.0 2.0
vertex -1.40998324127395e-015 -10.0 2.0
vertex 2.5881904510252 -9.65925826289068 2.0
endloop
endfacet
facet normal 0.0 0.0 1.0
outer loop
vertex 0.0 -8.0 2.0
vertex 2.5881904510252 -9.65925826289068 2.0
vertex 2.07055236082017 -7.72740661031255 2.0
endloop
endfacet
facet normal 0.0 0.0 1.0
outer loop
vertex 2.07055236082017 -7.72740661031255 2.0
vertex 2.5881904510252 -9.65925826289068 2.0
vertex 4.0 -6.92820323027551 2.0
endloop
endfacet
facet normal 0.0 0.0 1.0
outer loop
vertex 4.0 -6.92820323027551 2.0
vertex 2.5881904510252 -9.65925826289068 2.0
vertex 4.99999999999999 -8.66025403784439 2.0
endloop
endfacet
facet normal 0.0 0.0 1.0
outer loop
vertex 4.0 -6.92820323027551 2.0
vertex 4.99999999999999 -8.66025403784439 2.0
vertex 5.65685424949238 -5.65685424949238 2.0
endloop
endfacet
facet normal 0.0 0.0 1.0
outer loop
vertex 5.65685424949238 -5.65685424949238 2.0
vertex 4.99999999999999 -8.66025403784439 2.0
vertex 7.07106781186547 -7.07106781186548 2.0
endloop
endfacet
facet normal 0.0 0.0 1.0
outer loop
vertex 5.65685424949238 -5.65685424949238 2.0
vertex 7.07106781186547 -7.07106781186548 2.0
vertex 6.92820323027551 -4.0 2.0
endloop
endfacet
facet normal 0.0 0.0 1.0
outer loop
vertex 6.92820323027551 -4.0 2.0
vertex 7.07106781186547 -7.07106781186548 2.0
vertex 7.72740661031254 -2.07055236082017 2.0
endloop
endfacet
facet normal 0.0 0.0 1.0
outer loop
vertex 7.72740661031254 -2.07055236082017 2.0
vertex 7.07106781186547 -7.07106781186548 2.0
vertex 8.66025403784438 -5.0 2.0
endloop
endfacet
facet normal 0.0 0.0 1.0
outer loop
vertex 7.72740661031254 -2.07055236082017 2.0
vertex 8.66025403784438 -5.0 2.0
vertex 8.0 0.0 2.0
endloop
endfacet
facet normal 0.0 0.0 1.0
outer loop
vertex -8.0 -1.40998324127395e-015 2.0
vertex -7.07106781186547 7.07106781186547 2.0
vertex -8.66025403784438 5.0 2.0
endloop
endfacet
facet normal 0.0 0.0 1.0
outer loop
vertex -7.07106781186547 7.07106781186547 2.0
vertex -8.0 -1.40998324127395e-015 2.0
vertex -7.72740661031255 2.07055236082016 2.0
endloop
endfacet
facet normal 0.0 0.0 1.0
outer loop
vertex -7.07106781186547 7.07106781186547 2.0
vertex -7.72740661031255 2.07055236082016 2.0
vertex -6.92820323027551 4.0 2.0
endloop
endfacet
facet normal 0.0 0.0 1.0
outer loop
vertex -7.07106781186547 7.07106781186547 2.0
vertex -6.92820323027551 4.0 2.0
vertex -5.0 8.66025403784439 2.0
endloop
endfacet
facet normal 0.0 0.0 1.0
outer loop
vertex -5.0 8.66025403784439 2.0
vertex -6.92820323027551 4.0 2.0
vertex -5.65685424949238 5.65685424949238 2.0
endloop
endfacet
facet normal 0.0 0.0 1.0
outer loop
vertex -5.0 8.66025403784439 2.0
vertex -5.65685424949238 5.65685424949238 2.0
vertex -4.0 6.92820323027551 2.0
endloop
endfacet
facet normal 0.0 0.0 1.0
outer loop
vertex -5.0 8.66025403784439 2.0
vertex -4.0 6.92820323027551 2.0
vertex -2.58819045102521 9.65925826289068 2.0
endloop
endfacet
facet normal 0.0 0.0 1.0
outer loop
vertex -2.58819045102521 9.65925826289068 2.0
vertex -4.0 6.92820323027551 2.0
vertex -2.07055236082017 7.72740661031254 2.0
endloop
endfacet
facet normal 0.0 0.0 1.0
outer loop
vertex -2.58819045102521 9.65925826289068 2.0
vertex -2.07055236082017 7.72740661031254 2.0
vertex 0.0 10.0 2.0
endloop
endfacet
facet normal 0.0 0.0 1.0
outer loop
vertex 0.0 10.0 2.0
vertex -2.07055236082017 7.72740661031254 2.0
vertex -1.40998324127395e-015 8.0 2.0
endloop
endfacet
facet normal 0.0 0.0 1.0
outer loop
vertex 0.0 10.0 2.0
vertex -1.40998324127395e-015 8.0 2.0
vertex 2.07055236082016 7.72740661031255 2.0
endloop
endfacet
facet normal 0.0 0.0 1.0
outer loop
vertex 0.0 10.0 2.0
vertex 2.07055236082016 7.72740661031255 2.0
vertex 2.58819045102521 9.65925826289068 2.0
endloop
endfacet
facet normal 0.0 0.0 1.0
outer loop
vertex 2.58819045102521 9.65925826289068 2.0
vertex 2.07055236082016 7.72740661031255 2.0
vertex 3.99999999999999 6.92820323027551 2.0
endloop
endfacet
facet normal 0.0 0.0 1.0
outer loop
vertex 2.58819045102521 9.65925826289068 2.0
vertex 3.99999999999999 6.92820323027551 2.0
vertex 5.0 8.66025403784439 2.0
endloop
endfacet
facet normal 0.0 0.0 1.0
outer loop
vertex 5.0 8.66025403784439 2.0
vertex 3.99999999999999 6.92820323027551 2.0
vertex 5.65685424949238 5.65685424949238 2.0
endloop
endfacet
facet normal 0.0 0.0 1.0
outer loop
vertex 5.0 8.66025403784439 2.0
vertex 5.65685424949238 5.65685424949238 2.0
vertex 7.07106781186548 7.07106781186547 2.0
endloop
endfacet
facet normal 0.0 0.0 1.0
outer loop
vertex 7.07106781186548 7.07106781186547 2.0
vertex 5.65685424949238 5.65685424949238 2.0
vertex 6.92820323027551 4.0 2.0
endloop
endfacet
facet normal 0.0 0.0 1.0
outer loop
vertex 7.07106781186548 7.07106781186547 2.0
vertex 6.92820323027551 4.0 2.0
vertex 7.72740661031254 2.07055236082017 2.0
endloop
endfacet
facet normal 0.0 0.0 1.0
outer loop
vertex 7.07106781186548 7.07106781186547 2.0
vertex 7.72740661031254 2.07055236082017 2.0
vertex 8.66025403784439 5.0 2.0
endloop
endfacet
facet normal 0.0 0.0 1.0
outer loop
vertex 8.66025403784439 5.0 2.0
vertex 7.72740661031254 2.07055236082017 2.0
vertex 8.0 0.0 2.0
endloop
endfacet
facet normal 0.0 0.0 1.0
outer loop
vertex 8.66025403784439 5.0 2.0
vertex 8.0 0.0 2.0
vertex 8.66025403784438 -5.0 2.0
endloop
endfacet
facet normal 0.0 0.0 1.0
outer loop
vertex 8.66025403784439 5.0 2.0
vertex 8.66025403784438 -5.0 2.0
vertex 9.65925826289068 -2.58819045102521 2.0
endloop
endfacet
facet normal 0.0 0.0 1.0
outer loop
vertex 8.66025403784439 5.0 2.0
vertex 9.65925826289068 -2.58819045102521 2.0
vertex 9.65925826289068 2.58819045102521 2.0
endloop
endfacet
facet normal 0.0 0.0 1.0
outer loop
vertex 9.65925826289068 2.58819045102521 2.0
vertex 9.65925826289068 -2.58819045102521 2.0
vertex 10.0 0.0 2.0
endloop
endfacet
facet normal 0.866025403784438 -0.500000000000001 0.0
outer loop
vertex 8.66025403784438 -5.0 0.0
vertex 7.07106781186547 -7.07106781186548 2.0
vertex 7.07106781186547 -7.07106781186548 0.0
endloop
endfacet
facet normal 0.707106781186547 -0.707106781186548 0.0
outer loop
vertex 7.07106781186547 -7.07106781186548 2.0
vertex 8.66025403784438 -5.0 0.0
vertex 8.66025403784438 -5.0 2.0
endloop
endfacet
facet normal 0.965925826289068 -0.258819045102521 0.0
outer loop
vertex 9.65925826289068 -2.58819045102521 0.0
vertex 8.66025403784438 -5.0 2.0
vertex 8.66025403784438 -5.0 0.0
endloop
endfacet
facet normal 0.866025403784438 -0.500000000000001 0.0
outer loop
vertex 8.66025403784438 -5.0 2.0
vertex 9.65925826289068 -2.58819045102521 0.0
vertex 9.65925826289068 -2.58819045102521 2.0
endloop
endfacet
facet normal 1.0 -7.12888791651753e-017 0.0
outer loop
vertex 10.0 0.0 0.0
vertex 9.65925826289068 -2.58819045102521 2.0
vertex 9.65925826289068 -2.58819045102521 0.0
endloop
endfacet
facet normal 0.965925826289068 -0.258819045102521 0.0
outer loop
vertex 9.65925826289068 -2.58819045102521 2.0
vertex 10.0 0.0 0.0
vertex 10.0 0.0 2.0
endloop
endfacet
facet normal 0.866025403784439 0.5 0.0
outer loop
vertex 8.66025403784439 5.0 0.0
vertex 9.65925826289068 2.58819045102521 2.0
vertex 9.65925826289068 2.58819045102521 0.0
endloop
endfacet
facet normal 0.965925826289068 0.258819045102521 0.0
outer loop
vertex 9.65925826289068 2.58819045102521 2.0
vertex 8.66025403784439 5.0 0.0
vertex 8.66025403784439 5.0 2.0
endloop
endfacet
facet normal -0.258819045102522 -0.965925826289068 0.0
outer loop
vertex -2.58819045102521 -9.65925826289068 2.0
vertex -5.0 -8.66025403784438 0.0
vertex -2.58819045102521 -9.65925826289068 0.0
endloop
endfacet
facet normal -0.500000000000001 -0.866025403784438 0.0
outer loop
vertex -5.0 -8.66025403784438 0.0
vertex -2.58819045102521 -9.65925826289068 2.0
vertex -5.0 -8.66025403784438 2.0
endloop
endfacet
facet normal -3.20799956243289e-016 -1.0 0.0
outer loop
vertex -1.40998324127395e-015 -10.0 2.0
vertex -2.58819045102521 -9.65925826289068 0.0
vertex -1.40998324127395e-015 -10.0 0.0
endloop
endfacet
facet normal -0.258819045102522 -0.965925826289068 0.0
outer loop
vertex -2.58819045102521 -9.65925826289068 0.0
vertex -1.40998324127395e-015 -10.0 2.0
vertex -2.58819045102521 -9.65925826289068 2.0
endloop
endfacet
facet normal 0.25881904510252 -0.965925826289068 0.0
outer loop
vertex 2.5881904510252 -9.65925826289068 2.0
vertex -1.40998324127395e-015 -10.0 0.0
vertex 2.5881904510252 -9.65925826289068 0.0
endloop
endfacet
facet normal -3.20799956243289e-016 -1.0 0.0
outer loop
vertex -1.40998324127395e-015 -10.0 0.0
vertex 2.5881904510252 -9.65925826289068 2.0
vertex -1.40998324127395e-015 -10.0 2.0
endloop
endfacet
facet normal -0.707106781186547 0.707106781186548 0.0
outer loop
vertex -7.07106781186547 7.07106781186547 2.0
vertex -5.0 8.66025403784439 0.0
vertex -7.07106781186547 7.07106781186547 0.0
endloop
endfacet
facet normal -0.5 0.866025403784439 0.0
outer loop
vertex -5.0 8.66025403784439 0.0
vertex -7.07106781186547 7.07106781186547 2.0
vertex -5.0 8.66025403784439 2.0
endloop
endfacet
facet normal -0.5 0.866025403784439 0.0
outer loop
vertex -5.0 8.66025403784439 2.0
vertex -2.58819045102521 9.65925826289068 0.0
vertex -5.0 8.66025403784439 0.0
endloop
endfacet
facet normal -0.258819045102521 0.965925826289068 0.0
outer loop
vertex -2.58819045102521 9.65925826289068 0.0
vertex -5.0 8.66025403784439 2.0
vertex -2.58819045102521 9.65925826289068 2.0
endloop
endfacet
facet normal 0.707106781186547 -0.707106781186548 0.0
outer loop
vertex 7.07106781186547 -7.07106781186548 2.0
vertex 4.99999999999999 -8.66025403784439 0.0
vertex 7.07106781186547 -7.07106781186548 0.0
endloop
endfacet
facet normal 0.5 -0.866025403784439 0.0
outer loop
vertex 4.99999999999999 -8.66025403784439 0.0
vertex 7.07106781186547 -7.07106781186548 2.0
vertex 4.99999999999999 -8.66025403784439 2.0
endloop
endfacet
facet normal 0.5 -0.866025403784439 0.0
outer loop
vertex 4.99999999999999 -8.66025403784439 2.0
vertex 2.5881904510252 -9.65925826289068 0.0
vertex 4.99999999999999 -8.66025403784439 0.0
endloop
endfacet
facet normal 0.25881904510252 -0.965925826289068 0.0
outer loop
vertex 2.5881904510252 -9.65925826289068 0.0
vertex 4.99999999999999 -8.66025403784439 2.0
vertex 2.5881904510252 -9.65925826289068 2.0
endloop
endfacet
facet normal 0.0 0.0 -1.0
outer loop
vertex -9.65925826289068 2.58819045102521 0.0
vertex -9.65925826289068 -2.5881904510252 0.0
vertex -10.0 1.40998324127395e-015 0.0
endloop
endfacet
facet normal 0.0 0.0 -1.0
outer loop
vertex -9.65925826289068 -2.5881904510252 0.0
vertex -9.65925826289068 2.58819045102521 0.0
vertex -8.66025403784439 -5.0 0.0
endloop
endfacet
facet normal 0.0 0.0 -1.0
outer loop
vertex -8.66025403784439 -5.0 0.0
vertex -9.65925826289068 2.58819045102521 0.0
vertex -8.66025403784438 5.0 0.0
endloop
endfacet
facet normal 0.0 0.0 -1.0
outer loop
vertex -8.66025403784439 -5.0 0.0
vertex -8.66025403784438 5.0 0.0
vertex -7.07106781186548 -7.07106781186547 0.0
endloop
endfacet
facet normal 0.0 0.0 -1.0
outer loop
vertex -7.07106781186548 -7.07106781186547 0.0
vertex -8.66025403784438 5.0 0.0
vertex -7.07106781186547 7.07106781186547 0.0
endloop
endfacet
facet normal 0.0 0.0 -1.0
outer loop
vertex -7.07106781186548 -7.07106781186547 0.0
vertex -7.07106781186547 7.07106781186547 0.0
vertex -5.0 -8.66025403784438 0.0
endloop
endfacet
facet normal 0.0 0.0 -1.0
outer loop
vertex -5.0 -8.66025403784438 0.0
vertex -7.07106781186547 7.07106781186547 0.0
vertex -5.0 8.66025403784439 0.0
endloop
endfacet
facet normal 0.0 0.0 -1.0
outer loop
vertex -5.0 -8.66025403784438 0.0
vertex -5.0 8.66025403784439 0.0
vertex -2.58819045102521 -9.65925826289068 0.0
endloop
endfacet
facet normal 0.0 0.0 -1.0
outer loop
vertex -2.58819045102521 -9.65925826289068 0.0
vertex -5.0 8.66025403784439 0.0
vertex -2.58819045102521 9.65925826289068 0.0
endloop
endfacet
facet normal 0.0 0.0 -1.0
outer loop
vertex -2.58819045102521 -9.65925826289068 0.0
vertex -2.58819045102521 9.65925826289068 0.0
vertex -1.40998324127395e-015 -10.0 0.0
endloop
endfacet
facet normal 0.0 0.0 -1.0
outer loop
vertex -1.40998324127395e-015 -10.0 0.0
vertex -2.58819045102521 9.65925826289068 0.0
vertex 0.0 10.0 0.0
endloop
endfacet
facet normal 0.0 0.0 -1.0
outer loop
vertex -1.40998324127395e-015 -10.0 0.0
vertex 0.0 10.0 0.0
vertex 2.5881904510252 -9.65925826289068 0.0
endloop
endfacet
facet normal 0.0 0.0 -1.0
outer loop
vertex 2.5881904510252 -9.65925826289068 0.0
vertex 0.0 10.0 0.0
vertex 2.58819045102521 9.65925826289068 0.0
endloop
endfacet
facet normal 0.0 0.0 -1.0
outer loop
vertex 2.5881904510252 -9.65925826289068 0.0
vertex 2.58819045102521 9.65925826289068 0.0
vertex 4.99999999999999 -8.66025403784439 0.0
endloop
endfacet
facet normal 0.0 0.0 -1.0
outer loop
vertex 4.99999999999999 -8.66025403784439 0.0
vertex 2.58819045102521 9.65925826289068 0.0
vertex 5.0 8.66025403784439 0.0
endloop
endfacet
facet normal 0.0 0.0 -1.0
outer loop
vertex 4.99999999999999 -8.66025403784439 0.0
vertex 5.0 8.66025403784439 0.0
vertex 7.07106781186547 -7.07106781186548 0.0
endloop
endfacet
facet normal 0.0 0.0 -1.0
outer loop
vertex 7.07106781186547 -7.07106781186548 0.0
vertex 5.0 8.66025403784439 0.0
vertex 7.07106781186548 7.07106781186547 0.0
endloop
endfacet
facet normal 0.0 0.0 -1.0
outer loop
vertex 7.07106781186547 -7.07106781186548 0.0
vertex 7.07106781186548 7.07106781186547 0.0
vertex 8.66025403784438 -5.0 0.0
endloop
endfacet
facet normal 0.0 0.0 -1.0
outer loop
vertex 8.66025403784438 -5.0 0.0
vertex 7.07106781186548 7.07106781186547 0.0
vertex 8.66025403784439 5.0 0.0
endloop
endfacet
facet normal 0.0 0.0 -1.0
outer loop
vertex 8.66025403784438 -5.0 0.0
vertex 8.66025403784439 5.0 0.0
vertex 9.65925826289068 -2.58819045102521 0.0
endloop
endfacet
facet normal 0.0 0.0 -1.0
outer loop
vertex 9.65925826289068 -2.58819045102521 0.0
vertex 8.66025403784439 5.0 0.0
vertex 9.65925826289068 2.58819045102521 0.0
endloop
endfacet
facet normal 0.0 0.0 -1.0
outer loop
vertex 9.65925826289068 -2.58819045102521 0.0
vertex 9.65925826289068 2.58819045102521 0.0
vertex 10.0 0.0 0.0
endloop
endfacet
facet normal -1.0 1.51488868225997e-016 0.0
outer loop
vertex -10.0 1.40998324127395e-015 2.0
vertex -9.65925826289068 -2.5881904510252 0.0
vertex -9.65925826289068 -2.5881904510252 2.0
endloop
endfacet
facet normal -0.965925826289068 -0.25881904510252 0.0
outer loop
vertex -9.65925826289068 -2.5881904510252 0.0
vertex -10.0 1.40998324127395e-015 2.0
vertex -10.0 1.40998324127395e-015 0.0
endloop
endfacet
facet normal 0.0 0.0 1.0
outer loop
vertex -3.76711072252737 -1.00939427589983 2.0
vertex -3.76711072252737 1.00939427589983 2.0
vertex -3.9 -1.40998324127395e-015 2.0
endloop
endfacet
facet normal 0.0 0.0 1.0
outer loop
vertex -3.76711072252737 1.00939427589983 2.0
vertex -3.76711072252737 -1.00939427589983 2.0
vertex -3.37749907475931 1.95 2.0
endloop
endfacet
facet normal 0.0 0.0 1.0
outer loop
vertex -3.37749907475931 1.95 2.0
vertex -3.76711072252737 -1.00939427589983 2.0
vertex -3.37749907475931 -1.95 2.0
endloop
endfacet
facet normal 0.0 0.0 1.0
outer loop
vertex -3.37749907475931 1.95 2.0
vertex -3.37749907475931 -1.95 2.0
vertex -2.75771644662754 2.75771644662753 2.0
endloop
endfacet
facet normal 0.0 0.0 1.0
outer loop
vertex -2.75771644662754 2.75771644662753 2.0
vertex -3.37749907475931 -1.95 2.0
vertex -2.75771644662753 -2.75771644662754 2.0
endloop
endfacet
facet normal 0.0 0.0 1.0
outer loop
vertex -2.75771644662754 2.75771644662753 2.0
vertex -2.75771644662753 -2.75771644662754 2.0
vertex -1.95 3.37749907475931 2.0
endloop
endfacet
facet normal 0.0 0.0 1.0
outer loop
vertex -1.95 3.37749907475931 2.0
vertex -2.75771644662753 -2.75771644662754 2.0
vertex -1.95 -3.37749907475931 2.0
endloop
endfacet
facet normal 0.0 0.0 1.0
outer loop
vertex -1.95 3.37749907475931 2.0
vertex -1.95 -3.37749907475931 2.0
vertex -1.00939427589983 3.76711072252736 2.0
endloop
endfacet
facet normal 0.0 0.0 1.0
outer loop
vertex -1.00939427589983 3.76711072252736 2.0
vertex -1.95 -3.37749907475931 2.0
vertex -1.00939427589983 -3.76711072252737 2.0
endloop
endfacet
facet normal 0.0 0.0 1.0
outer loop
vertex -1.00939427589983 3.76711072252736 2.0
vertex -1.00939427589983 -3.76711072252737 2.0
vertex -1.40998324127395e-015 3.9 2.0
endloop
endfacet
facet normal 0.0 0.0 1.0
outer loop
vertex -1.40998324127395e-015 3.9 2.0
vertex -1.00939427589983 -3.76711072252737 2.0
vertex 1.40998324127395e-015 -3.9 2.0
endloop
endfacet
facet normal 0.0 0.0 1.0
outer loop
vertex -1.40998324127395e-015 3.9 2.0
vertex 1.40998324127395e-015 -3.9 2.0
vertex 1.00939427589983 3.76711072252737 2.0
endloop
endfacet
facet normal 0.0 0.0 1.0
outer loop
vertex 1.00939427589983 3.76711072252737 2.0
vertex 1.40998324127395e-015 -3.9 2.0
vertex 1.00939427589983 -3.76711072252737 2.0
endloop
endfacet
facet normal 0.0 0.0 1.0
outer loop
vertex 1.00939427589983 3.76711072252737 2.0
vertex 1.00939427589983 -3.76711072252737 2.0
vertex 1.95 3.37749907475931 2.0
endloop
endfacet
facet normal 0.0 0.0 1.0
outer loop
vertex 1.95 3.37749907475931 2.0
vertex 1.00939427589983 -3.76711072252737 2.0
vertex 1.95 -3.37749907475931 2.0
endloop
endfacet
facet normal 0.0 0.0 1.0
outer loop
vertex 1.95 3.37749907475931 2.0
vertex 1.95 -3.37749907475931 2.0
vertex 2.75771644662753 2.75771644662754 2.0
endloop
endfacet
facet normal 0.0 0.0 1.0
outer loop
vertex 2.75771644662753 2.75771644662754 2.0
vertex 1.95 -3.37749907475931 2.0
vertex 2.75771644662753 -2.75771644662753 2.0
endloop
endfacet
facet normal 0.0 0.0 1.0
outer loop
vertex 2.75771644662753 2.75771644662754 2.0
vertex 2.75771644662753 -2.75771644662753 2.0
vertex 3.37749907475931 -1.95 2.0
endloop
endfacet
facet normal 0.0 0.0 1.0
outer loop
vertex 2.75771644662753 2.75771644662754 2.0
vertex 3.37749907475931 -1.95 2.0
vertex 3.37749907475931 1.95 2.0
endloop
endfacet
facet normal 0.0 0.0 1.0
outer loop
vertex 3.37749907475931 1.95 2.0
vertex 3.37749907475931 -1.95 2.0
vertex 3.76711072252737 -1.00939427589983 2.0
endloop
endfacet
facet normal 0.0 0.0 1.0
outer loop
vertex 3.37749907475931 1.95 2.0
vertex 3.76711072252737 -1.00939427589983 2.0
vertex 3.76711072252737 1.00939427589983 2.0
endloop
endfacet
facet normal 0.0 0.0 1.0
outer loop
vertex 3.76711072252737 1.00939427589983 2.0
vertex 3.76711072252737 -1.00939427589983 2.0
vertex 3.9 0.0 2.0
endloop
endfacet
facet normal -0.866025403784439 -0.5 0.0
outer loop
vertex -8.66025403784439 -5.0 2.0
vertex -7.07106781186548 -7.07106781186547 0.0
vertex -7.07106781186548 -7.07106781186547 2.0
endloop
endfacet
facet normal -0.707106781186548 -0.707106781186547 0.0
outer loop
vertex -7.07106781186548 -7.07106781186547 0.0
vertex -8.66025403784439 -5.0 2.0
vertex -8.66025403784439 -5.0 0.0
endloop
endfacet
facet normal -0.707106781186547 0.707106781186548 0.0
outer loop
vertex -7.07106781186547 7.07106781186547 2.0
vertex -8.66025403784438 5.0 0.0
vertex -8.66025403784438 5.0 2.0
endloop
endfacet
facet normal -0.866025403784439 0.5 0.0
outer loop
vertex -8.66025403784438 5.0 0.0
vertex -7.07106781186547 7.07106781186547 2.0
vertex -7.07106781186547 7.07106781186547 0.0
endloop
endfacet
facet normal 0.500000000000001 -0.866025403784438 0.0
outer loop
vertex -1.95 3.37749907475931 12.0
vertex -2.75771644662754 2.75771644662753 2.0
vertex -1.95 3.37749907475931 2.0
endloop
endfacet
facet normal 0.707106781186548 -0.707106781186547 0.0
outer loop
vertex -2.75771644662754 2.75771644662753 2.0
vertex -1.95 3.37749907475931 12.0
vertex -2.75771644662754 2.75771644662753 12.0
endloop
endfacet
facet normal -0.258819045102521 0.965925826289068 0.0
outer loop
vertex 1.00939427589983 -3.76711072252737 12.0
vertex 1.95 -3.37749907475931 2.0
vertex 1.00939427589983 -3.76711072252737 2.0
endloop
endfacet
facet normal -0.5 0.866025403784439 0.0
outer loop
vertex 1.95 -3.37749907475931 2.0
vertex 1.00939427589983 -3.76711072252737 12.0
vertex 1.95 -3.37749907475931 12.0
endloop
endfacet
facet normal -0.5 0.866025403784439 0.0
outer loop
vertex 1.95 -3.37749907475931 12.0
vertex 2.75771644662753 -2.75771644662753 2.0
vertex 1.95 -3.37749907475931 2.0
endloop
endfacet
facet normal -0.707106781186548 0.707106781186547 0.0
outer loop
vertex 2.75771644662753 -2.75771644662753 2.0
vertex 1.95 -3.37749907475931 12.0
vertex 2.75771644662753 -2.75771644662753 12.0
endloop
endfacet
facet normal 1.0 1.42577758330351e-016 0.0
outer loop
vertex 8.0 0.0 2.0
vertex 7.72740661031254 -2.07055236082017 12.0
vertex 7.72740661031254 -2.07055236082017 2.0
endloop
endfacet
facet normal 0.965925826289068 -0.258819045102521 0.0
outer loop
vertex 7.72740661031254 -2.07055236082017 12.0
vertex 8.0 0.0 2.0
vertex 8.0 0.0 12.0
endloop
endfacet
facet normal -0.965925826289068 0.25881904510252 0.0
outer loop
vertex -7.72740661031255 2.07055236082016 12.0
vertex -8.0 -1.40998324127395e-015 2.0
vertex -8.0 -1.40998324127395e-015 12.0
endloop
endfacet
facet normal -1.0 -2.22777747391173e-016 0.0
outer loop
vertex -8.0 -1.40998324127395e-015 2.0
vertex -7.72740661031255 2.07055236082016 12.0
vertex -7.72740661031255 2.07055236082016 2.0
endloop
endfacet
facet normal -0.5 -0.866025403784439 0.0
outer loop
vertex -4.0 -6.92820323027551 12.0
vertex -5.65685424949238 -5.65685424949238 2.0
vertex -4.0 -6.92820323027551 2.0
endloop
endfacet
facet normal -0.707106781186547 -0.707106781186548 0.0
outer loop
vertex -5.65685424949238 -5.65685424949238 2.0
vertex -4.0 -6.92820323027551 12.0
vertex -5.65685424949238 -5.65685424949238 12.0
endloop
endfacet
facet normal -0.965925826289068 -0.258819045102521 0.0
outer loop
vertex -7.72740661031254 -2.07055236082017 12.0
vertex -6.92820323027551 -4.0 2.0
vertex -6.92820323027551 -4.0 12.0
endloop
endfacet
facet normal -0.866025403784439 -0.5 0.0
outer loop
vertex -6.92820323027551 -4.0 2.0
vertex -7.72740661031254 -2.07055236082017 12.0
vertex -7.72740661031254 -2.07055236082017 2.0
endloop
endfacet
facet normal 0.258819045102521 0.965925826289068 0.0
outer loop
vertex -1.00939427589983 -3.76711072252737 12.0
vertex 1.40998324127395e-015 -3.9 2.0
vertex -1.00939427589983 -3.76711072252737 2.0
endloop
endfacet
facet normal -2.94066626556348e-016 1.0 0.0
outer loop
vertex 1.40998324127395e-015 -3.9 2.0
vertex -1.00939427589983 -3.76711072252737 12.0
vertex 1.40998324127395e-015 -3.9 12.0
endloop
endfacet
facet normal -0.965925826289068 -0.258819045102521 0.0
outer loop
vertex 3.76711072252737 1.00939427589983 12.0
vertex 3.9 0.0 2.0
vertex 3.9 0.0 12.0
endloop
endfacet
facet normal -1.0 -1.24755538539057e-016 0.0
outer loop
vertex 3.9 0.0 2.0
vertex 3.76711072252737 1.00939427589983 12.0
vertex 3.76711072252737 1.00939427589983 2.0
endloop
endfacet
facet normal -0.5 -0.866025403784439 0.0
outer loop
vertex 1.95 3.37749907475931 12.0
vertex 1.00939427589983 3.76711072252737 2.0
vertex 1.95 3.37749907475931 2.0
endloop
endfacet
facet normal -0.25881904510252 -0.965925826289069 0.0
outer loop
vertex 1.00939427589983 3.76711072252737 2.0
vertex 1.95 3.37749907475931 12.0
vertex 1.00939427589983 3.76711072252737 12.0
endloop
endfacet
facet normal 0.965925826289068 0.258819045102521 0.0
outer loop
vertex -3.76711072252737 -1.00939427589983 2.0
vertex -3.37749907475931 -1.95 12.0
vertex -3.37749907475931 -1.95 2.0
endloop
endfacet
facet normal 0.866025403784439 0.5 0.0
outer loop
vertex -3.37749907475931 -1.95 12.0
vertex -3.76711072252737 -1.00939427589983 2.0
vertex -3.76711072252737 -1.00939427589983 12.0
endloop
endfacet
facet normal -0.866025403784439 0.5 0.0
outer loop
vertex -6.92820323027551 4.0 12.0
vertex -7.72740661031255 2.07055236082016 2.0
vertex -7.72740661031255 2.07055236082016 12.0
endloop
endfacet
facet normal -0.965925826289068 0.25881904510252 0.0
outer loop
vertex -7.72740661031255 2.07055236082016 2.0
vertex -6.92820323027551 4.0 12.0
vertex -6.92820323027551 4.0 2.0
endloop
endfacet
facet normal -0.25881904510252 -0.965925826289069 0.0
outer loop
vertex 1.00939427589983 3.76711072252737 12.0
vertex -1.40998324127395e-015 3.9 2.0
vertex 1.00939427589983 3.76711072252737 2.0
endloop
endfacet
facet normal 4.63377714573639e-016 -1.0 0.0
outer loop
vertex -1.40998324127395e-015 3.9 2.0
vertex 1.00939427589983 3.76711072252737 12.0
vertex -1.40998324127395e-015 3.9 12.0
endloop
endfacet
facet normal 0.866025403784439 -0.5 0.0
outer loop
vertex -3.37749907475931 1.95 2.0
vertex -3.76711072252737 1.00939427589983 12.0
vertex -3.76711072252737 1.00939427589983 2.0
endloop
endfacet
facet normal 0.965925826289068 -0.25881904510252 0.0
outer loop
vertex -3.76711072252737 1.00939427589983 12.0
vertex -3.37749907475931 1.95 2.0
vertex -3.37749907475931 1.95 12.0
endloop
endfacet
facet normal 0.866025403784439 0.5 0.0
outer loop
vertex -3.37749907475931 -1.95 2.0
vertex -2.75771644662753 -2.75771644662754 12.0
vertex -2.75771644662753 -2.75771644662754 2.0
endloop
endfacet
facet normal 0.707106781186547 0.707106781186548 0.0
outer loop
vertex -2.75771644662753 -2.75771644662754 12.0
vertex -3.37749907475931 -1.95 2.0
vertex -3.37749907475931 -1.95 12.0
endloop
endfacet
facet normal -0.707106781186547 -0.707106781186548 0.0
outer loop
vertex 2.75771644662753 2.75771644662754 12.0
vertex 3.37749907475931 1.95 2.0
vertex 3.37749907475931 1.95 12.0
endloop
endfacet
facet normal -0.866025403784438 -0.500000000000001 0.0
outer loop
vertex 3.37749907475931 1.95 2.0
vertex 2.75771644662753 2.75771644662754 12.0
vertex 2.75771644662753 2.75771644662754 2.0
endloop
endfacet
facet normal 0.965925826289068 -0.258819045102521 0.0
outer loop
vertex 7.72740661031254 -2.07055236082017 2.0
vertex 6.92820323027551 -4.0 12.0
vertex 6.92820323027551 -4.0 2.0
endloop
endfacet
facet normal 0.866025403784439 -0.5 0.0
outer loop
vertex 6.92820323027551 -4.0 12.0
vertex 7.72740661031254 -2.07055236082017 2.0
vertex 7.72740661031254 -2.07055236082017 12.0
endloop
endfacet
facet normal 0.707106781186547 0.707106781186548 0.0
outer loop
vertex -2.75771644662753 -2.75771644662754 12.0
vertex -1.95 -3.37749907475931 2.0
vertex -2.75771644662753 -2.75771644662754 2.0
endloop
endfacet
facet normal 0.5 0.866025403784439 0.0
outer loop
vertex -1.95 -3.37749907475931 2.0
vertex -2.75771644662753 -2.75771644662754 12.0
vertex -1.95 -3.37749907475931 12.0
endloop
endfacet
facet normal -0.258819045102521 -0.965925826289068 0.0
outer loop
vertex -2.07055236082017 -7.72740661031255 12.0
vertex -4.0 -6.92820323027551 2.0
vertex -2.07055236082017 -7.72740661031255 2.0
endloop
endfacet
facet normal -0.5 -0.866025403784439 0.0
outer loop
vertex -4.0 -6.92820323027551 2.0
vertex -2.07055236082017 -7.72740661031255 12.0
vertex -4.0 -6.92820323027551 12.0
endloop
endfacet
facet normal 0.707106781186547 0.707106781186548 0.0
outer loop
vertex 5.65685424949238 5.65685424949238 2.0
vertex 6.92820323027551 4.0 12.0
vertex 6.92820323027551 4.0 2.0
endloop
endfacet
facet normal 0.866025403784439 0.5 0.0
outer loop
vertex 6.92820323027551 4.0 12.0
vertex 5.65685424949238 5.65685424949238 2.0
vertex 5.65685424949238 5.65685424949238 12.0
endloop
endfacet
facet normal 0.707106781186548 -0.707106781186547 0.0
outer loop
vertex -2.75771644662754 2.75771644662753 2.0
vertex -3.37749907475931 1.95 12.0
vertex -3.37749907475931 1.95 2.0
endloop
endfacet
facet normal 0.866025403784439 -0.5 0.0
outer loop
vertex -3.37749907475931 1.95 12.0
vertex -2.75771644662754 2.75771644662753 2.0
vertex -2.75771644662754 2.75771644662753 12.0
endloop
endfacet
facet normal -5.34666593738814e-017 -1.0 0.0
outer loop
vertex 0.0 -8.0 12.0
vertex -2.07055236082017 -7.72740661031255 2.0
vertex 0.0 -8.0 2.0
endloop
endfacet
facet normal -0.258819045102521 -0.965925826289068 0.0
outer loop
vertex -2.07055236082017 -7.72740661031255 2.0
vertex 0.0 -8.0 12.0
vertex -2.07055236082017 -7.72740661031255 12.0
endloop
endfacet
facet normal -0.707106781186548 0.707106781186547 0.0
outer loop
vertex -5.65685424949238 5.65685424949238 12.0
vertex -4.0 6.92820323027551 2.0
vertex -5.65685424949238 5.65685424949238 2.0
endloop
endfacet
facet normal -0.5 0.866025403784438 0.0
outer loop
vertex -4.0 6.92820323027551 2.0
vertex -5.65685424949238 5.65685424949238 12.0
vertex -4.0 6.92820323027551 12.0
endloop
endfacet
facet normal -0.866025403784438 -0.500000000000001 0.0
outer loop
vertex 3.37749907475931 1.95 12.0
vertex 3.76711072252737 1.00939427589983 2.0
vertex 3.76711072252737 1.00939427589983 12.0
endloop
endfacet
facet normal -0.965925826289068 -0.258819045102521 0.0
outer loop
vertex 3.76711072252737 1.00939427589983 2.0
vertex 3.37749907475931 1.95 12.0
vertex 3.37749907475931 1.95 2.0
endloop
endfacet
facet normal 0.707106781186548 -0.707106781186547 0.0
outer loop
vertex 5.65685424949238 -5.65685424949238 12.0
vertex 4.0 -6.92820323027551 2.0
vertex 5.65685424949238 -5.65685424949238 2.0
endloop
endfacet
facet normal 0.5 -0.866025403784439 0.0
outer loop
vertex 4.0 -6.92820323027551 2.0
vertex 5.65685424949238 -5.65685424949238 12.0
vertex 4.0 -6.92820323027551 12.0
endloop
endfacet
facet normal -4.54466604677992e-016 1.0 0.0
outer loop
vertex -1.40998324127395e-015 8.0 12.0
vertex 2.07055236082016 7.72740661031255 2.0
vertex -1.40998324127395e-015 8.0 2.0
endloop
endfacet
facet normal 0.25881904510252 0.965925826289068 0.0
outer loop
vertex 2.07055236082016 7.72740661031255 2.0
vertex -1.40998324127395e-015 8.0 12.0
vertex 2.07055236082016 7.72740661031255 12.0
endloop
endfacet
facet normal 0.5 0.866025403784439 0.0
outer loop
vertex -1.95 -3.37749907475931 12.0
vertex -1.00939427589983 -3.76711072252737 2.0
vertex -1.95 -3.37749907475931 2.0
endloop
endfacet
facet normal 0.258819045102521 0.965925826289068 0.0
outer loop
vertex -1.00939427589983 -3.76711072252737 2.0
vertex -1.95 -3.37749907475931 12.0
vertex -1.00939427589983 -3.76711072252737 12.0
endloop
endfacet
facet normal -0.707106781186548 0.707106781186547 0.0
outer loop
vertex -5.65685424949238 5.65685424949238 12.0
vertex -6.92820323027551 4.0 2.0
vertex -6.92820323027551 4.0 12.0
endloop
endfacet
facet normal -0.866025403784439 0.5 0.0
outer loop
vertex -6.92820323027551 4.0 2.0
vertex -5.65685424949238 5.65685424949238 12.0
vertex -5.65685424949238 5.65685424949238 2.0
endloop
endfacet
facet normal 4.63377714573639e-016 -1.0 0.0
outer loop
vertex -1.40998324127395e-015 3.9 12.0
vertex -1.00939427589983 3.76711072252736 2.0
vertex -1.40998324127395e-015 3.9 2.0
endloop
endfacet
facet normal 0.258819045102521 -0.965925826289068 0.0
outer loop
vertex -1.00939427589983 3.76711072252736 2.0
vertex -1.40998324127395e-015 3.9 12.0
vertex -1.00939427589983 3.76711072252736 12.0
endloop
endfacet
facet normal 0.5 0.866025403784439 0.0
outer loop
vertex 3.99999999999999 6.92820323027551 12.0
vertex 5.65685424949238 5.65685424949238 2.0
vertex 3.99999999999999 6.92820323027551 2.0
endloop
endfacet
facet normal 0.707106781186547 0.707106781186548 0.0
outer loop
vertex 5.65685424949238 5.65685424949238 2.0
vertex 3.99999999999999 6.92820323027551 12.0
vertex 5.65685424949238 5.65685424949238 12.0
endloop
endfacet
facet normal -0.707106781186547 -0.707106781186548 0.0
outer loop
vertex 2.75771644662753 2.75771644662754 12.0
vertex 1.95 3.37749907475931 2.0
vertex 2.75771644662753 2.75771644662754 2.0
endloop
endfacet
facet normal -0.5 -0.866025403784439 0.0
outer loop
vertex 1.95 3.37749907475931 2.0
vertex 2.75771644662753 2.75771644662754 12.0
vertex 1.95 3.37749907475931 12.0
endloop
endfacet
facet normal 0.25881904510252 0.965925826289068 0.0
outer loop
vertex 2.07055236082016 7.72740661031255 12.0
vertex 3.99999999999999 6.92820323027551 2.0
vertex 2.07055236082016 7.72740661031255 2.0
endloop
endfacet
facet normal 0.5 0.866025403784439 0.0
outer loop
vertex 3.99999999999999 6.92820323027551 2.0
vertex 2.07055236082016 7.72740661031255 12.0
vertex 3.99999999999999 6.92820323027551 12.0
endloop
endfacet
facet normal -0.258819045102521 0.965925826289068 0.0
outer loop
vertex -2.07055236082017 7.72740661031254 12.0
vertex -1.40998324127395e-015 8.0 2.0
vertex -2.07055236082017 7.72740661031254 2.0
endloop
endfacet
facet normal -4.54466604677992e-016 1.0 0.0
outer loop
vertex -1.40998324127395e-015 8.0 2.0
vertex -2.07055236082017 7.72740661031254 12.0
vertex -1.40998324127395e-015 8.0 12.0
endloop
endfacet
facet normal 0.866025403784439 -0.5 0.0
outer loop
vertex 6.92820323027551 -4.0 2.0
vertex 5.65685424949238 -5.65685424949238 12.0
vertex 5.65685424949238 -5.65685424949238 2.0
endloop
endfacet
facet normal 0.707106781186548 -0.707106781186547 0.0
outer loop
vertex 5.65685424949238 -5.65685424949238 12.0
vertex 6.92820323027551 -4.0 2.0
vertex 6.92820323027551 -4.0 12.0
endloop
endfacet
facet normal -2.94066626556348e-016 1.0 0.0
outer loop
vertex 1.40998324127395e-015 -3.9 12.0
vertex 1.00939427589983 -3.76711072252737 2.0
vertex 1.40998324127395e-015 -3.9 2.0
endloop
endfacet
facet normal -0.258819045102521 0.965925826289068 0.0
outer loop
vertex 1.00939427589983 -3.76711072252737 2.0
vertex 1.40998324127395e-015 -3.9 12.0
vertex 1.00939427589983 -3.76711072252737 12.0
endloop
endfacet
facet normal -0.866025403784439 -0.5 0.0
outer loop
vertex -6.92820323027551 -4.0 12.0
vertex -5.65685424949238 -5.65685424949238 2.0
vertex -5.65685424949238 -5.65685424949238 12.0
endloop
endfacet
facet normal -0.707106781186547 -0.707106781186548 0.0
outer loop
vertex -5.65685424949238 -5.65685424949238 2.0
vertex -6.92820323027551 -4.0 12.0
vertex -6.92820323027551 -4.0 2.0
endloop
endfacet
facet normal -0.866025403784439 0.5 0.0
outer loop
vertex 3.37749907475931 -1.95 12.0
vertex 2.75771644662753 -2.75771644662753 2.0
vertex 2.75771644662753 -2.75771644662753 12.0
endloop
endfacet
facet normal -0.707106781186548 0.707106781186547 0.0
outer loop
vertex 2.75771644662753 -2.75771644662753 2.0
vertex 3.37749907475931 -1.95 12.0
vertex 3.37749907475931 -1.95 2.0
endloop
endfacet
facet normal -0.965925826289068 0.258819045102521 0.0
outer loop
vertex 3.76711072252737 -1.00939427589983 12.0
vertex 3.37749907475931 -1.95 2.0
vertex 3.37749907475931 -1.95 12.0
endloop
endfacet
facet normal -0.866025403784439 0.5 0.0
outer loop
vertex 3.37749907475931 -1.95 2.0
vertex 3.76711072252737 -1.00939427589983 12.0
vertex 3.76711072252737 -1.00939427589983 2.0
endloop
endfacet
facet normal 0.0 0.0 1.0
outer loop
vertex -4.0 -6.92820323027551 12.0
vertex -3.76711072252737 -1.00939427589983 12.0
vertex -3.9 -1.40998324127395e-015 12.0
endloop
endfacet
facet normal 0.0 0.0 1.0
outer loop
vertex -3.76711072252737 -1.00939427589983 12.0
vertex -4.0 -6.92820323027551 12.0
vertex -2.07055236082017 -7.72740661031255 12.0
endloop
endfacet
facet normal 0.0 0.0 1.0
outer loop
vertex -3.76711072252737 -1.00939427589983 12.0
vertex -2.07055236082017 -7.72740661031255 12.0
vertex -3.37749907475931 -1.95 12.0
endloop
endfacet
facet normal 0.0 0.0 1.0
outer loop
vertex -3.37749907475931 -1.95 12.0
vertex -2.07055236082017 -7.72740661031255 12.0
vertex -2.75771644662753 -2.75771644662754 12.0
endloop
endfacet
facet normal 0.0 0.0 1.0
outer loop
vertex -2.75771644662753 -2.75771644662754 12.0
vertex -2.07055236082017 -7.72740661031255 12.0
vertex -1.95 -3.37749907475931 12.0
endloop
endfacet
facet normal 0.0 0.0 1.0
outer loop
vertex -1.95 -3.37749907475931 12.0
vertex -2.07055236082017 -7.72740661031255 12.0
vertex 0.0 -8.0 12.0
endloop
endfacet
facet normal 0.0 0.0 1.0
outer loop
vertex -1.95 -3.37749907475931 12.0
vertex 0.0 -8.0 12.0
vertex -1.00939427589983 -3.76711072252737 12.0
endloop
endfacet
facet normal 0.0 0.0 1.0
outer loop
vertex -1.00939427589983 -3.76711072252737 12.0
vertex 0.0 -8.0 12.0
vertex 1.40998324127395e-015 -3.9 12.0
endloop
endfacet
facet normal 0.0 0.0 1.0
outer loop
vertex 1.40998324127395e-015 -3.9 12.0
vertex 0.0 -8.0 12.0
vertex 2.07055236082017 -7.72740661031255 12.0
endloop
endfacet
facet normal 0.0 0.0 1.0
outer loop
vertex 1.40998324127395e-015 -3.9 12.0
vertex 2.07055236082017 -7.72740661031255 12.0
vertex 1.00939427589983 -3.76711072252737 12.0
endloop
endfacet
facet normal 0.0 0.0 1.0
outer loop
vertex 1.00939427589983 -3.76711072252737 12.0
vertex 2.07055236082017 -7.72740661031255 12.0
vertex 1.95 -3.37749907475931 12.0
endloop
endfacet
facet normal 0.0 0.0 1.0
outer loop
vertex 1.95 -3.37749907475931 12.0
vertex 2.07055236082017 -7.72740661031255 12.0
vertex 2.75771644662753 -2.75771644662753 12.0
endloop
endfacet
facet normal 0.0 0.0 1.0
outer loop
vertex 2.75771644662753 -2.75771644662753 12.0
vertex 2.07055236082017 -7.72740661031255 12.0
vertex 4.0 -6.92820323027551 12.0
endloop
endfacet
facet normal 0.0 0.0 1.0
outer loop
vertex 2.75771644662753 -2.75771644662753 12.0
vertex 4.0 -6.92820323027551 12.0
vertex 3.37749907475931 -1.95 12.0
endloop
endfacet
facet normal 0.0 0.0 1.0
outer loop
vertex 3.37749907475931 -1.95 12.0
vertex 4.0 -6.92820323027551 12.0
vertex 3.76711072252737 -1.00939427589983 12.0
endloop
endfacet
facet normal 0.0 0.0 1.0
outer loop
vertex 3.76711072252737 -1.00939427589983 12.0
vertex 4.0 -6.92820323027551 12.0
vertex 3.9 0.0 12.0
endloop
endfacet
facet normal 0.0 0.0 1.0
outer loop
vertex 3.9 0.0 12.0
vertex 4.0 -6.92820323027551 12.0
vertex 3.99999999999999 6.92820323027551 12.0
endloop
endfacet
facet normal 0.0 0.0 1.0
outer loop
vertex 3.99999999999999 6.92820323027551 12.0
vertex 4.0 -6.92820323027551 12.0
vertex 5.65685424949238 5.65685424949238 12.0
endloop
endfacet
facet normal 0.0 0.0 1.0
outer loop
vertex 5.65685424949238 5.65685424949238 12.0
vertex 4.0 -6.92820323027551 12.0
vertex 5.65685424949238 -5.65685424949238 12.0
endloop
endfacet
facet normal 0.0 0.0 1.0
outer loop
vertex 5.65685424949238 5.65685424949238 12.0
vertex 5.65685424949238 -5.65685424949238 12.0
vertex 6.92820323027551 4.0 12.0
endloop
endfacet
facet normal 0.0 0.0 1.0
outer loop
vertex 6.92820323027551 4.0 12.0
vertex 5.65685424949238 -5.65685424949238 12.0
vertex 6.92820323027551 -4.0 12.0
endloop
endfacet
facet normal 0.0 0.0 1.0
outer loop
vertex 6.92820323027551 4.0 12.0
vertex 6.92820323027551 -4.0 12.0
vertex 7.72740661031254 2.07055236082017 12.0
endloop
endfacet
facet normal 0.0 0.0 1.0
outer loop
vertex 7.72740661031254 2.07055236082017 12.0
vertex 6.92820323027551 -4.0 12.0
vertex 7.72740661031254 -2.07055236082017 12.0
endloop
endfacet
facet normal 0.0 0.0 1.0
outer loop
vertex 7.72740661031254 2.07055236082017 12.0
vertex 7.72740661031254 -2.07055236082017 12.0
vertex 8.0 0.0 12.0
endloop
endfacet
facet normal 0.0 0.0 1.0
outer loop
vertex -7.72740661031254 -2.07055236082017 12.0
vertex -7.72740661031255 2.07055236082016 12.0
vertex -8.0 -1.40998324127395e-015 12.0
endloop
endfacet
facet normal 0.0 0.0 1.0
outer loop
vertex -7.72740661031255 2.07055236082016 12.0
vertex -7.72740661031254 -2.07055236082017 12.0
vertex -6.92820323027551 4.0 12.0
endloop
endfacet
facet normal 0.0 0.0 1.0
outer loop
vertex -6.92820323027551 4.0 12.0
vertex -7.72740661031254 -2.07055236082017 12.0
vertex -6.92820323027551 -4.0 12.0
endloop
endfacet
facet normal 0.0 0.0 1.0
outer loop
vertex -6.92820323027551 4.0 12.0
vertex -6.92820323027551 -4.0 12.0
vertex -5.65685424949238 5.65685424949238 12.0
endloop
endfacet
facet normal 0.0 0.0 1.0
outer loop
vertex -5.65685424949238 5.65685424949238 12.0
vertex -6.92820323027551 -4.0 12.0
vertex -5.65685424949238 -5.65685424949238 12.0
endloop
endfacet
facet normal 0.0 0.0 1.0
outer loop
vertex -5.65685424949238 5.65685424949238 12.0
vertex -5.65685424949238 -5.65685424949238 12.0
vertex -4.0 6.92820323027551 12.0
endloop
endfacet
facet normal 0.0 0.0 1.0
outer loop
vertex -4.0 6.92820323027551 12.0
vertex -5.65685424949238 -5.65685424949238 12.0
vertex -4.0 -6.92820323027551 12.0
endloop
endfacet
facet normal 0.0 0.0 1.0
outer loop
vertex -4.0 6.92820323027551 12.0
vertex -4.0 -6.92820323027551 12.0
vertex -3.9 -1.40998324127395e-015 12.0
endloop
endfacet
facet normal 0.0 0.0 1.0
outer loop
vertex -4.0 6.92820323027551 12.0
vertex -3.9 -1.40998324127395e-015 12.0
vertex -3.76711072252737 1.00939427589983 12.0
endloop
endfacet
facet normal 0.0 0.0 1.0
outer loop
vertex -4.0 6.92820323027551 12.0
vertex -3.76711072252737 1.00939427589983 12.0
vertex -2.07055236082017 7.72740661031254 12.0
endloop
endfacet
facet normal 0.0 0.0 1.0
outer loop
vertex -2.07055236082017 7.72740661031254 12.0
vertex -3.76711072252737 1.00939427589983 12.0
vertex -3.37749907475931 1.95 12.0
endloop
endfacet
facet normal 0.0 0.0 1.0
outer loop
vertex -2.07055236082017 7.72740661031254 12.0
vertex -3.37749907475931 1.95 12.0
vertex -2.75771644662754 2.75771644662753 12.0
endloop
endfacet
facet normal 0.0 0.0 1.0
outer loop
vertex -2.07055236082017 7.72740661031254 12.0
vertex -2.75771644662754 2.75771644662753 12.0
vertex -1.95 3.37749907475931 12.0
endloop
endfacet
facet normal 0.0 0.0 1.0
outer loop
vertex -2.07055236082017 7.72740661031254 12.0
vertex -1.95 3.37749907475931 12.0
vertex -1.40998324127395e-015 8.0 12.0
endloop
endfacet
facet normal 0.0 0.0 1.0
outer loop
vertex -1.40998324127395e-015 8.0 12.0
vertex -1.95 3.37749907475931 12.0
vertex -1.00939427589983 3.76711072252736 12.0
endloop
endfacet
facet normal 0.0 0.0 1.0
outer loop
vertex -1.40998324127395e-015 8.0 12.0
vertex -1.00939427589983 3.76711072252736 12.0
vertex -1.40998324127395e-015 3.9 12.0
endloop
endfacet
facet normal 0.0 0.0 1.0
outer loop
vertex -1.40998324127395e-015 8.0 12.0
vertex -1.40998324127395e-015 3.9 12.0
vertex 1.00939427589983 3.76711072252737 12.0
endloop
endfacet
facet normal 0.0 0.0 1.0
outer loop
vertex -1.40998324127395e-015 8.0 12.0
vertex 1.00939427589983 3.76711072252737 12.0
vertex 2.07055236082016 7.72740661031255 12.0
endloop
endfacet
facet normal 0.0 0.0 1.0
outer loop
vertex 2.07055236082016 7.72740661031255 12.0
vertex 1.00939427589983 3.76711072252737 12.0
vertex 1.95 3.37749907475931 12.0
endloop
endfacet
facet normal 0.0 0.0 1.0
outer loop
vertex 2.07055236082016 7.72740661031255 12.0
vertex 1.95 3.37749907475931 12.0
vertex 2.75771644662753 2.75771644662754 12.0
endloop
endfacet
facet normal 0.0 0.0 1.0
outer loop
vertex 2.07055236082016 7.72740661031255 12.0
vertex 2.75771644662753 2.75771644662754 12.0
vertex 3.99999999999999 6.92820323027551 12.0
endloop
endfacet
facet normal 0.0 0.0 1.0
outer loop
vertex 3.99999999999999 6.92820323027551 12.0
vertex 2.75771644662753 2.75771644662754 12.0
vertex 3.37749907475931 1.95 12.0
endloop
endfacet
facet normal 0.0 0.0 1.0
outer loop
vertex 3.99999999999999 6.92820323027551 12.0
vertex 3.37749907475931 1.95 12.0
vertex 3.76711072252737 1.00939427589983 12.0
endloop
endfacet
facet normal 0.0 0.0 1.0
outer loop
vertex 3.99999999999999 6.92820323027551 12.0
vertex 3.76711072252737 1.00939427589983 12.0
vertex 3.9 0.0 12.0
endloop
endfacet
facet normal -1.0 -1.24755538539057e-016 0.0
outer loop
vertex 3.9 0.0 12.0
vertex 3.76711072252737 -1.00939427589983 2.0
vertex 3.76711072252737 -1.00939427589983 12.0
endloop
endfacet
facet normal -0.965925826289068 0.258819045102521 0.0
outer loop
vertex 3.76711072252737 -1.00939427589983 2.0
vertex 3.9 0.0 12.0
vertex 3.9 0.0 2.0
endloop
endfacet
facet normal 0.258819045102521 -0.965925826289068 0.0
outer loop
vertex -1.00939427589983 3.76711072252736 12.0
vertex -1.95 3.37749907475931 2.0
vertex -1.00939427589983 3.76711072252736 2.0
endloop
endfacet
facet normal 0.500000000000001 -0.866025403784438 0.0
outer loop
vertex -1.95 3.37749907475931 2.0
vertex -1.00939427589983 3.76711072252736 12.0
vertex -1.95 3.37749907475931 12.0
endloop
endfacet
facet normal -1.0 -2.22777747391173e-016 0.0
outer loop
vertex -8.0 -1.40998324127395e-015 12.0
vertex -7.72740661031254 -2.07055236082017 2.0
vertex -7.72740661031254 -2.07055236082017 12.0
endloop
endfacet
facet normal -0.965925826289068 -0.258819045102521 0.0
outer loop
vertex -7.72740661031254 -2.07055236082017 2.0
vertex -8.0 -1.40998324127395e-015 12.0
vertex -8.0 -1.40998324127395e-015 2.0
endloop
endfacet
facet normal 0.258819045102521 -0.965925826289068 0.0
outer loop
vertex 2.07055236082017 -7.72740661031255 12.0
vertex 0.0 -8.0 2.0
vertex 2.07055236082017 -7.72740661031255 2.0
endloop
endfacet
facet normal -5.34666593738814e-017 -1.0 0.0
outer loop
vertex 0.0 -8.0 2.0
vertex 2.07055236082017 -7.72740661031255 12.0
vertex 0.0 -8.0 12.0
endloop
endfacet
facet normal -0.5 0.866025403784438 0.0
outer loop
vertex -4.0 6.92820323027551 12.0
vertex -2.07055236082017 7.72740661031254 2.0
vertex -4.0 6.92820323027551 2.0
endloop
endfacet
facet normal -0.258819045102521 0.965925826289068 0.0
outer loop
vertex -2.07055236082017 7.72740661031254 2.0
vertex -4.0 6.92820323027551 12.0
vertex -2.07055236082017 7.72740661031254 12.0
endloop
endfacet
facet normal 1.0 5.43577703634461e-016 0.0
outer loop
vertex -3.9 -1.40998324127395e-015 2.0
vertex -3.76711072252737 -1.00939427589983 12.0
vertex -3.76711072252737 -1.00939427589983 2.0
endloop
endfacet
facet normal 0.965925826289068 0.258819045102521 0.0
outer loop
vertex -3.76711072252737 -1.00939427589983 12.0
vertex -3.9 -1.40998324127395e-015 2.0
vertex -3.9 -1.40998324127395e-015 12.0
endloop
endfacet
facet normal 0.866025403784439 0.5 0.0
outer loop
vertex 6.92820323027551 4.0 2.0
vertex 7.72740661031254 2.07055236082017 12.0
vertex 7.72740661031254 2.07055236082017 2.0
endloop
endfacet
facet normal 0.965925826289068 0.258819045102521 0.0
outer loop
vertex 7.72740661031254 2.07055236082017 12.0
vertex 6.92820323027551 4.0 2.0
vertex 6.92820323027551 4.0 12.0
endloop
endfacet
facet normal 0.965925826289068 0.258819045102521 0.0
outer loop
vertex 7.72740661031254 2.07055236082017 2.0
vertex 8.0 0.0 12.0
vertex 8.0 0.0 2.0
endloop
endfacet
facet normal 1.0 1.42577758330351e-016 0.0
outer loop
vertex 8.0 0.0 12.0
vertex 7.72740661031254 2.07055236082017 2.0
vertex 7.72740661031254 2.07055236082017 12.0
endloop
endfacet
facet normal 0.965925826289068 -0.25881904510252 0.0
outer loop
vertex -3.76711072252737 1.00939427589983 2.0
vertex -3.9 -1.40998324127395e-015 12.0
vertex -3.9 -1.40998324127395e-015 2.0
endloop
endfacet
facet normal 1.0 5.43577703634461e-016 0.0
outer loop
vertex -3.9 -1.40998324127395e-015 12.0
vertex -3.76711072252737 1.00939427589983 2.0
vertex -3.76711072252737 1.00939427589983 12.0
endloop
endfacet
facet normal 0.5 -0.866025403784439 0.0
outer loop
vertex 4.0 -6.92820323027551 12.0
vertex 2.07055236082017 -7.72740661031255 2.0
vertex 4.0 -6.92820323027551 2.0
endloop
endfacet
facet normal 0.258819045102521 -0.965925826289068 0.0
outer loop
vertex 2.07055236082017 -7.72740661031255 2.0
vertex 4.0 -6.92820323027551 12.0
vertex 2.07055236082017 -7.72740661031255 12.0
endloop
endfacet
endsolid Idler Knob
